<mxfile host="app.diagrams.net" modified="2020-10-22T17:08:21.962Z" agent="5.0 (X11; Linux x86_64) AppleWebKit/537.36 (KHTML, like Gecko) Chrome/84.0.4147.125 Safari/537.36" etag="5PKOLcboIYUcxvLePGLF" version="13.8.1" type="github">
  <diagram name="Page-1" id="822b0af5-4adb-64df-f703-e8dfc1f81529">
    <mxGraphModel dx="2062" dy="1603" grid="1" gridSize="10" guides="1" tooltips="1" connect="1" arrows="1" fold="1" page="1" pageScale="1" pageWidth="1100" pageHeight="850" math="0" shadow="0">
      <root>
        <mxCell id="0" />
        <mxCell id="1" parent="0" />
        <mxCell id="d-yFGQFBO1lt44kxvrD7-39" value="" style="edgeStyle=orthogonalEdgeStyle;shape=flexArrow;curved=0;rounded=1;sketch=0;orthogonalLoop=1;jettySize=auto;html=1;startArrow=block;strokeColor=#FF6392;fillColor=#FFE45E;fontColor=#000000;" parent="1" source="d-yFGQFBO1lt44kxvrD7-38" target="d-yFGQFBO1lt44kxvrD7-57" edge="1">
          <mxGeometry relative="1" as="geometry">
            <mxPoint x="121.40000000000032" y="593" as="targetPoint" />
          </mxGeometry>
        </mxCell>
        <mxCell id="d-yFGQFBO1lt44kxvrD7-38" value="DEV" style="aspect=fixed;html=1;points=[];align=center;image;fontSize=12;image=img/lib/azure2/identity/Users.svg;rounded=0;labelBackgroundColor=none;sketch=0;strokeColor=#FF6392;fillColor=#FFE45E;fontStyle=1" parent="1" vertex="1">
          <mxGeometry x="103" y="730" width="64" height="70" as="geometry" />
        </mxCell>
        <mxCell id="d-yFGQFBO1lt44kxvrD7-57" value="" style="shape=image;verticalLabelPosition=bottom;labelBackgroundColor=#ffffff;verticalAlign=top;aspect=fixed;imageAspect=0;image=https://www.infodocket.com/wp-content/uploads/2020/07/github_PNG20.png;" parent="1" vertex="1">
          <mxGeometry x="300" y="760" width="85.74" height="77.5" as="geometry" />
        </mxCell>
        <mxCell id="d-yFGQFBO1lt44kxvrD7-59" value="Clientes - Distribuidores" style="aspect=fixed;html=1;points=[];align=center;image;fontSize=12;image=img/lib/azure2/identity/Users.svg;rounded=0;labelBackgroundColor=none;sketch=0;strokeColor=#FF6392;fillColor=#FFE45E;fontStyle=1" parent="1" vertex="1">
          <mxGeometry x="912.95" y="730" width="64" height="70" as="geometry" />
        </mxCell>
        <mxCell id="d-yFGQFBO1lt44kxvrD7-71" value="" style="group;labelBackgroundColor=none;verticalAlign=middle;align=center;fontStyle=0" parent="1" vertex="1" connectable="0">
          <mxGeometry x="760" width="310" height="158" as="geometry" />
        </mxCell>
        <mxCell id="d-yFGQFBO1lt44kxvrD7-47" value="Servicios Externos" style="group;verticalAlign=bottom;fontStyle=1;fontSize=15;" parent="d-yFGQFBO1lt44kxvrD7-71" vertex="1" connectable="0">
          <mxGeometry x="-40" y="-87.45" width="350" height="224.45" as="geometry" />
        </mxCell>
        <mxCell id="d-yFGQFBO1lt44kxvrD7-48" value="" style="group" parent="d-yFGQFBO1lt44kxvrD7-47" vertex="1" connectable="0">
          <mxGeometry x="10" y="21" width="350" height="224.45" as="geometry" />
        </mxCell>
        <mxCell id="d-yFGQFBO1lt44kxvrD7-70" value="" style="group" parent="d-yFGQFBO1lt44kxvrD7-48" vertex="1" connectable="0">
          <mxGeometry y="17" width="350" height="207.45" as="geometry" />
        </mxCell>
        <mxCell id="d-yFGQFBO1lt44kxvrD7-11" value="" style="shape=image;verticalLabelPosition=bottom;labelBackgroundColor=#ffffff;verticalAlign=top;aspect=fixed;imageAspect=0;image=data:image/png,iVBORw0KGgoAAAANSUhEUgAAA4QAAAOECAYAAAD5Tv87AAAgAElEQVR4AezdB7zkVn3o8Wsg9BbwYrNldHSvjgwECBAglAAO/dFLNhQ/m92ro7nSmqWG0GETSjAEQocQ3qOHBEzv5SHNXa+xwUCMsWmm2BQDphmMK+t9nzN37zI7VdL5SzP33t9+Pvu5Mxqd9tUZSf+RdM7cHP8QQAABBBBAAAEEEEAAAQQQQAABBBBAAAEEEEAAAQQQQAABBBBAAAEEEEAAAQQQQAABBBBAAAEEEEAAAQQQQAABBBBAAAEEEEAAAQQQQAABBBBAAAEEEEAAAQQQQAABBBBAAAEEEEAAAQQQQAABBBBAAAEEEEAAAQQQQAABBBBAAAEEEEAAAQQQQAABBBBAAAEEEEAAAQQQQAABBBBAAAEEEEAAAQQQQAABBBBAAAEEEEAAAQQQQAABBBBAAAEEEEAAAQQQQAABBBBAAAEEEEAAAQQQQAABBBBAAAEEEEAAAQQQQAABBBBAAAEEEEAAAQQQQAABBBBAAAEEEEAAAQQQQAABBBBAAAEEEEAAAQQQQAABBBBAAAEEEEAAAQQQQAABBBBAAAEEEEAAAQQQQAABBBBAAAEEEEAAAQQQQAABBBBAAAEEEEAAAQQQQAABBBBAAAEEEEAAAQQQQAABBBBAAAEEEEAAAQQQQAABBBBAAAEEEEAAAQQQQAABBBBAAAEEEEAAAQQQQAABBBBAAAEEEEAAAQQQQAABBBBAAAEEEEAAAQQQQAABBBBAAAEEEEAAAQQQQAABBBBAAAEEEEAAAQQQQAABBBBAAAEEEEAAAQQQQAABBBBAAAEEEEAAAQQQQAABBBBAAAEEEEAAAQQQQAABBBBAAAEEEEAAAQQQQAABBBBAAAEEEEAAAQQQQAABBBBAAAEEEEAAAQQQQAABBBBAAAEEEEAAAQQQQAABBBBAAAEEEEAAAQQQQAABBBBAAAEEEEAAAQQQQAABBBBAAAEEEEAAAQQQQAABBBBAAAEEEEAAAQQQQAABBBBAAAEEEEAAAQQQQAABBBBAAAEEEEAAAQQQQAABBBBAAAEEEEAAAQQQQAABBBBAAAEEEEAAAQQQQAABBBBAAAEEEEAAAQQQQAABBBBAAAEEEEAAAQQQQAABBBBAAAEEEEAAAQQQQAABBBBAAAEEEEAAAQQQQAABBBBAAAEEEEAAAQQQQAABBBBAAAEEEEAAAQQQQAABBBBAAAEEEEAAAQQQQAABBBBAAAEEEEAAAQQQQAABBBBAAAEEEEAAAQQQQAABBBBAAAEEEEAAAQQQQAABBBBAAAEEEEAAAQQQQAABBBBAAAEEEEAAAQQQQAABBBBAAAEEEEAAAQQQQAABBBBAAAEEEEAAAQQQQAABBBBAAAEEEEAAAQQQQAABBBBAAAEEEEAAAQQQQAABBBBAAAEEEEAAAQQQQAABBBBAAAEEEEAAAQQQQAABBBBAAAEEEEAAAQQQQAABBBBAAAEEEEAAAQQQQAABBBBAAAEEEEAAAQQQQAABBBBAAAEEEEAAAQQQQAABBBBAAAEEEEAAAQQQQAABBBBAAAEEEEAAAQQQQAABBBBAAAEEEEAAAQQQQAABBBBAAAEEEEAAAQQQQAABBBBAAAEEEEAAAQQQQAABBBBAAAEEEEAAAQQQQAABBBBAAAEEEEAAAQQQQAABBBBAAAEEEEAAAQQQQAABBBBAAAEEEEAAAQQQQAABBBBAAAEEEEAAAQQQQAABBBBAAAEEEEAAAQQQQAABBBBAAAEEEEAAAQQQQAABBBBAAAEEEEAAAQQQQAABBBBAAAEEEEAAAQQQQAABBBBAAAEEEEAAAQQQQAABBBBAAAEEEEAAAQQQQAABBBBAAAEEEEAAAQQQQAABBBBAAAEEEEAAAQQQQAABBBBAAAEEEEAAAQQQQAABBBBAAAEEEEAAAQQQQAABBBBAAAEEEEAAAQQQQAABBBBAAAEEEEAAAQQQQAABBBBAAAEEEEAAAQQQQAABBBBAAAEEEEAAAQQQQAABBBBAAAEEEEAAAQQQQAABBBBAAAEEEEAAAQQQQAABBBBAAAEEEEAAAQQQQAABBBBAAAEEEEAAAQQQQAABBBBAAAEEEEAAAQQQQAABBBBAAAEEEEAAAQQQQAABBBBAAAEEEEAAAQQQQAABBBBAAAEEEEAAAQQQQAABBBBAAAEEEEAAAQQQQAABBBBAAAEEEEAAAQQQQAABBBBAAAEEEEAAAQQQQAABBBBAAAEEEEAAAQQQQAABBBBAAAEEEEAAAQQQQAABBBBAAAEEEEAAAQQQQAABBBBAAAEEEEAAAQQQQAABBBBAAAEEEEAAAQQQQAABBBBAAAEEEEAAAQQQQAABBBBAAAEEEEAAAQQQQAABBBBAAAEEEEAAAQQQQAABBBBAAAEEEEAAAQQQQAABBBBAAAEEEEAAAQQQQAABBBBAAAEEEEAAAQQQQAABBBBAAAEEEEAAAQQQQAABBBBAAAEEEEAAAQQQQAABBBBAAAEEEEAAAQQQQAABBBBAAAEEEEAAAQQQQAABBBBAAAEEEEAAAQQQQAABBBBAAAEEEEAAAQQQQAABBBBAAAEEEEAAAQQQQAABBBBAAAEEEEAAAQQQQAABBBBAAAEEEEAAAQQQQAABBBBAAAEEEEAAAQQQQAABBBBAAAEEEEAAAQQQQAABBBBAAAEEEEAAAQQQQAABBBBAAAEEEEAAAQQQQAABBBBAAAEEEEAAAQQQQAABBBBAAAEEEEAAAQQQQAABBBBAAAEEEEAAAQQQQAABBBBAAAEEEEAAAQQQQAABBBBAAAEEEEAAAQQQQAABBBBAAAEEEEAAAQQQQAABBBBAAAEEEEAAAQQQQAABBBBAAAEEEEAAAQQQQAABBBBAAAEEEEAAAQQQQAABBBBAAAEEEEAAAQQQQAABBBBAAAEEEEAAAQQQQAABBBBAAAEEEEAAAQQQQAABBBBAAAEEEEAAAQQQQAABBBBAAAEEEEAAAQQQQAABBBBAAAEEEEAAAQQQQAABBBBAAAEEEEAAAQQQQAABBBBAAAEEEEAAAQQQQAABBBBAAAEEEEAAAQQQQAABBBBAAAEEEEAAAQQQQAABBBBAAAEEEEAAAQQQQAABBBBAAAEEEEAAAQQQQAABBBBAAAEEEEAAAQQQQAABBBBAAAEEEEAAAQQQQAABBBBAAAEEEEAAAQQQQAABBBBAAAEEEEAAAQQQQAABBBBAAAEEEEAAAQQQQAABBBBAAAEEEEAAAQQQQAABBBBAAAEEEEAAAQQQQAABBBBAAAEEEEAAAQQQQAABBBBAAAEEEEAAAQQQQAABBBBAAAEEEEAAAQQQQAABBBBAAAEEEEAAAQQQQAABBBBAAAEEEEAAAQQQQAABBBBAAAEEEEAAAQQQQAABBBBAAAEEEEAAAQQQQAABBBBAAAEEEEAAAQQQQAABBBBAAAEEEEAAAQQQQAABBBBAAAEEEEAAAQQQQAABBBBAAAEEEEAAAQQQQAABBBBAAAEEEEAAAQQQQAABBBBAAAEEEEAAAQQQQAABBBBAAAEEEEAAAQQQQAABBBBAAAEEEEAAAQQQQAABBBBAAAEEEEAAAQQQQAABBBBAAAEEEEAAAQQQQAABBBBAAAEEEEAAAQQQQAABBBBAAAEEEEAAAQQQQAABBBBAAAEEEEAAAQQQQAABBBBAAAEEEEAAAQQQQAABBBBAAAEEEEAAAQQQQAABBBBAAAEEEEAAAQQQQAABBBBAAAEEEEAAAQQQQAABBBBAAAEEEEAAAQQQQAABBBBAAAEEEEAAAQQQQAABBBBAAAEEEEAAAQQQQAABBBBAAAEEEEAAAQQQQAABBBBAAAEEEEAAAQQQQAABBBBAAAEEEEAAAQQQQAABBBBAAAEEEEAAAQQQQAABBBBAAAEEEEAAAQQQQAABBBBAAAEEEEAAAQQQQAABBBBAAAEEEEAAAQQQQAABBBBAAAEEEEAAAQQQQAABBBBAAAEEEEAAAQQQQAABBBBAAAEEEEAAAQQQQAABBBBAAAEEEEAAAQQQQAABBBBAAAEEEEAAAQQQQAABBBBAAAEEEEAAAQQQQAABBBBAAAEEEEAAAQQQQAABBBBAAAEEEEAAAQQQQAABBBBAAAEEEEAAAQQQQAABBBBAAAEEEEAAAQQQQAABBBBAAAEEEEAAAQQQQAABBBBAAAEEEEAAAQQQQAABBBBAAAEEEEAAAQQQQAABBBBAAAEEEEAAAQQQQAABBBBAAAEEEEAAAQQQQAABBBBAAAEEEEAAAQQQQAABBBBAAAEEEEAAAQQQQAABBBBAAAEEEEAAAQQQQAABBBBAAAEEEEAAAQQQQAABBBBAAAEEEEAAAQQQQAABBBBAAAEEEEAAAQQQQAABBBBAAAEEEEAAAQQQQAABBBBAAAEEEEAAAQQQQAABBBBAAAEEEEAAAQQQQAABBBBAAAEEEEAAAQQQQAABBBBAAAEEEEAAAQQQQAABBBBAAAEEEEAAAQQQQAABBBBAAAEEEEAAAQQQQAABBBBAAAEEEEAAAQQQQAABBBBAAAEEEEAAAQQQQAABBBBAAAEEEEAAAQQQQAABBBBAAAEEEEAAAQQQQAABBBBAAAEEEEAAAQQQQAABBBBAAAEEEEAAAQQQQAABBBBAAAEEEEAAAQQQQAABBBBAAAEEEEAAAQQQQAABBBBAAAEEEEAAAQQQQAABBBBAAAEEEEAAAQQQQAABBBBAAAEEEEAAAQQQQAABBBBAAAEEEEAAAQQQQAABBBBAAAEEEEAAAQQQQAABBBBAAAEEEEAAAQQQQAABBBBAAAEEEEAAAQQQQAABBBBAAAEEEEAAAQQQQAABBBBAAAEEEEAAAQQQQAABBBBAAAEEEEAAAQQQQAABBBBAAAEEEEAAAQQQQAABBBBAAAEEEEAAAQQQQAABBBBAAAEEEEAAAQQQQAABBBBAAAEEEEAAAQQQQAABBBBAAAEEEEAAAQQQQAABBBBAAAEEEEAAAQQQQAABBBBAAAEEEEAAAQQQQAABBBBAAAEEEEAAAQQQQAABBBBAAAEEEEAAAQQQQAABBBBAAAEEEEAAAQQQQAABBBBAAAEEEEAAAQQQQAABBBBAAAEEEEAAAQQQQAABBBBAAAEEEEAAAQQQQAABBBBAAAEEEEAAAQQQQAABBBBAAAEEEEAAAQQQQAABBBBAAAEEEEAAAQQQQAABBBBAAAEEEEAAAQQQQAABBBBAAAEEEEAAAQQQQAABBBBAAAEEEEAAAQQQQAABBBBAAAEEEEAAAQQQQAABBBBAAAEEEEAAAQQQQAABBBBAAAEEEEAAAQQQQAABBBBAAAEEEEAAAQQQQAABBBBAAAEEEEAAAQQQQAABBBBAAAEEEEAAAQQQQAABBBBAAAEEEEAAAQQQQAABBBBAAAEEEEAAAQQQQAABBBBAAAEEEEAAAQQQQAABBBBAAAEEEEAAAQQQQAABBBBAAAEEEEAAAQQQQAABBBBAAAEEEEAAAQQQQAABBBBAAAEEEEAAAQQQQAABBBBAAAEEEEAAAQQQQAABBBBAAAEEEEAAAQQQQAABBBBAAAEEEEAAAQQQQAABBBBAAAEEEEAAAQQQQAABBBBAAAEEEEAAAQQQQAABBBBAAAEEEEAAAQQQQAABBBBAAAEEEEAAAQQQQAABBBBAAAEEEEAAAQQQQAABBBBAAAEEEEAAAQQQQAABBBBAAAEEEEAAAQQQQAABBBBAAAEEEEAAAQQQQAABBBBAAAEEEEAAAQQQQAABBBBAAAEEEEAAAQQQQAABBBBAAAEEEEAAAQQQQAABBBBAAAEEEEAAAQQQQAABBBBAAAEEEEAAAQQQQAABBBBAAAEEEEAAAQQQQAABBBBAAAEEEEAAAQQQQAABBBBAAAEEEEAAAQQQQAABBBBAAAEEEEAAAQQQQAABBBBAAAEEEEAAAQQQQAABBBBAAAEEEEAAAQQQQAABBBBAAAEEEEAAAQQQQAABBBBAAAEEEEAAAQQQQAABBBBAAAEEEEAAAQQQQAABBBBAAAEEEEAAAQQQQAABBBBAAAEEEEAAAQQQQAABBBBAAAEEEEAAAQQQQAABBBBAAAEEEEAAAQQQQAABBBBAAAEEEEAAAQQQQAABBBBAAAEEEEAAAQQQQAABBBBAAAEEEEAAAQQQQAABBBBAAAEEEEAAAQQQQAABBBBAAAEEEEAAAQQQQAABBBBAAAEEEEAAAQQQQAABBBBAAAEEEEAAAQQQQAABBBBAAAEEEEAAAQQQQAABBBBAAAEEEEAAAQQQQAABBBBAAAEEEEAAAQQQQAABBBBAAAEEEEAAAQQQQAABBBBAAAEEEEAAAQQQQAABBBBAAAEEEEAAAQQQQAABBBBAAAEEEEAAAQQQQAABBBBAAAEEEEAAAQQQQAABBBBAAAEEEEAAAQQQQAABBBBAAAEEEEAAAQQQQAABBBBAAAEEEEAAAQQQQAABBBBAAAEEEEAAAQQQQAABBBBAAAEEEEAAAQQQQAABBBBAAAEEEEAAAQQQQAABBBBAAAEEEEAAAQQQQAABBBBAAAEEEEAAAQQQQAABBBBAAAEEEEAAAQQQQAABBBBAAAEEEEAAAQQQQAABBBBAAAEEEEAAAQQQQAABBBBAAAEEEEAAAQQQQAABBBBAAAEEEEAAAQQQQAABBBBAAAEEEEAAAQQQQAABBBBAAAEEEEAAAQQQQAABBBBAAAEEEEAAAQQQQAABBBBAAAEEEEAAAQQQQAABBBBAAAEEEEAAAQQQQAABBBBAAAEEEEAAAQQQQAABBBBAAAEEEEAAAQQQQAABBBBAAAEEEEAAAQQQQAABBBBAAAEEEEAAAQQQQAABBBBAAAEEEEAAAQQQQAABBBBAAAEEEEAAAQQQQAABBBBAAAEEEEAAAQQQQAABBBBAAAEEEEAAAQQQQAABBBBAAAEEEEAAAQQQQAABBBBAAAEEEEAAAQQQQAABBBBAAAEEEEAAAQQQQAABBBBAAAEEEEAAAQQQQAABBBBAAAEEEEAAAQQQQAABBBBAAAEEEEAAAQQQQAABBBBAAAEEEEAAAQQQQAABBBBAAAEEEEAAAQQQQAABBBBAAAEEEEAAAQQQQAABBBBAAAEEEEAAAQQQQAABBBBAAAEEEEAAAQQQQAABBBBAAAEEEEAAAQQQQAABBBBAAAEEEEAAAQQQQAABBBBAAAEEEEAAAQQQQAABBBBAAAEEEEAAAQQQQAABBBBAAAEEEEAAAQQQQAABBBBAAAEEEEAAAQQQQAABBBBAAAEEEEAAAQQQQAABBBBAAAEEEEAAAQQQQAABBBBAAAEEEEAAAQQQQAABBBBAAAEEEEAAAQQQQAABBBBAAAEEEEAAAQQQQAABBBBAAAEEEEAAAQQQQAABBBBAAAEEEEAAAQQQQAABBBBAAAEEEEAAAQQQQAABBBBAAAEEEEAAAQQQQAABBBBAAAEEEEAAAQQQQAABBBBAAAEEEEAAAQQQQAABBBBAAAEEEEAAAQQQQAABBBBAAAEEEEAAAQQQQAABBBBAAAEEEEAAAQQQQAABBBBAAAEEEEAAAQQQQAABBBBAAAEEEEAAAQQQQAABBBBAAAEEEEAAAQQQQAABBBBAAAEEEEAAAQQQQAABBBBAAAEEEEAAAQQQQAABBBBAAAEEEEAAAQQQQAABBBBAAAEEEEAAAQQQQAABBBBAAAEEEEAAAQQQQAABBBBAAAEEEEAAAQQQQAABBBBAAAEEEEAAAQQQQAABBBBAAAEEEEAAAQQQQAABBBBAAAEEEEAAAQQQQAABBBBAAAEEEEAAAQQQQAABBBBAAAEEEEAAAQQQQAABBBBAAAEEEEAAAQQQQAABBBBAAAEEEEAAAQQQQAABBBBAAAEEEEAAAQQQQAABBBBAAAEEEEAAAQQQQAABBBBAAAEEEEAAAQQQQAABBBBAAAEEEEAAAQQQQAABBBBAAAEEEEAAAQQQQAABBBBAAAEEEEAAAQQQQAABBBBAAAEEEEAAAQQQQAABBBBAAAEEEEAAAQQQQAABBBBAAAEEEEAAAQQQQAABBBBAAAEEEEAAAQQQQAABBBBAAAEEEEAAAQQQQAABBBBAAAEEEEAAAQQQQAABBBBAAAEEEEAAAQQQQAABBBBAAAEEEEAAAQQQQAABBBBAAAEEEEAAAQQQQAABBBBAAAEEEEAAAQQQQAABBBBAAAEEEEAAAQQQQAABBBBAAAEEEEAAAQQQQAABBBBAAAEEEEAAAQQQQAABBBBAAAEEEEAAAQQQQAABBBBAAAEEEEAAAQQQQAABBBBAAAEEEEAAAQQQQAABBGoVMHF6QPL/jh07blxrhckcAQQQQAABBBBAAAEEEEBARkAyGLR5ERDKbBdyQQABBBBAAAEEEEAAAQRqFyAgrJ2YAhBAAAEEEEAAAQQQQACB2RQgIJzN7UKtEEAAAQQQQAABBBBAAIHaBQgIayemAAQQQAABBBBAAAEEEEBgNgUICGdzu1ArBBBAAAEEEEAAAQQQQKB2AQLC2okpAAEEEEAAAQQQQAABBBCYTQECwtncLtQKAQQQQAABBBBAAAEEEKhdgICwdmIKQAABBBBAAAEEEEAAAQRmU4CAcDa3C7VCAAEEEEAAAQQQQAABBGoXICCsnZgCEEAAAQQQQAABBBBAAIHZFCAgnM3tQq0QQAABBBBAAAEEEEAAgdoFCAhrJ6YABBBAAAEEEEAAAQQQQGA2BQgIZ3O7UCsEEEAAAQQQQAABBBBAoHYBAsLaiSkAAQQQQAABBBBAAAEEEJhNAQLC2dwu1AoBBBBAAAEEEEAAAQQQqF2AgLB2YgpAAAEEEEAAAQQQQAABBGZTgIBwNrcLtUIAAQQQQAABBBBAAAEEahcgIKydmAIQQAABBBBAAAEEEEAAgdkUICCcze1CrRBAAAEEEEAAAQQQQACB2gUICGsnpgAEEEAAAQQQQAABBBBAYDYFCAhnc7tQKwQQQAABBBBAAAEEEFjHAtu3b796HCcPiOLk1cakXzRxcmFk0iuNSS+JTHp+FKefMSZ5bhzHYZ0MBIR16pI3AggggAACCCCAAAIIINAjcOyxe64RxUu7bNBXOBgzyad3ttt36MlG7GXhOsTpgSLr7tix48ZilSMjBBBAAAEEEEAAAQQQQGC9CCwupsdEJvlqkcBqyDr7ozh9mQ0oJT2GlFMo8BuVjoBQcuuQFwIIIIAAAggggAACCKwLgThO7xXF6UWjAqmiy6M4/WS73b6uFErRcouuR0AotWXIBwEEEEAAgRkTODA3d7Vsc3hkppSy/ztb52+TKX27lf/hLVaXn3aT4IYzVnWqgwACCExVYHFx6Y6RSS8uGlRNXi/5mH0GUaJRk8sqdqvoaj4EhBJbhTwQQAABBBCYgoAN9nJv4W8zPzCZr1+c+frdudKn5n7w7UzpX+Z+eKDwf09fmfn6Z7nSZ2d++PnMD9+ae+FzOp5+fL4tvNMZmzeL/bo9BSqKRAABBAoL2ACp1POCBZ/VMyZ5fuFKjFlxNZCT+ktAOAabjxBAAAEEEJgVgeWjg03LKnh4rvRJeUt/JlfhBYWDvTKB4ah1ld6fK/2dzNcn5yp8dsfX9zx169brzIoP9UAAAQSkBKI4eYNUsHV4PskV9plE13oenme5q4HD0hIQum4R0iOAAAIIIFCDgL2Ns+PpR+V+8B+Zp7/VaPA3KijsX670FZmnT8tV+FIbIGZzc6IDJ9TASpYIIIDAWIF2u93qTiVR9KpfyfUik75nbAUKfDgsqHNZRkBYAJ1VEEAAAQQQaEJg7+b5VscLn555Os89feVMBoH9QWHP+8zXv7VXEO1tptmmTddvwowyEEAAAUkBY5KXuARXk9LaYLPdbh/pUudJZZT9nIDQZWuQFgEEEEAAAUeBfUct3Cz39e5c6S+utQBwbH2VvjRXCx/o+MHffzcIruXIRHIEEECgEQETJ98sG1CVXX8xTna4NKZseZPWJyB02RqkRQABBBBAoIKAHf2z4wf3z/3wfbnSV4wNrHquwK3V9Q4OcPPKTIW3qMBFEgQQQKARAXvlblLwJPK5Sd/q0iCROvTc6kpA6LI1SIsAAggggEAJAXsb5crVwPD7azW4c623vR02a+mHHJibO6IEHasigAACtQvE8a67SQdbI/Lb59KYEXlWnpyegNBla5AWAQQQQACBAgKZUkfnfvCSXIW/dg2o1k16FX7TTpdx9tytrlmAkFUQQACB2gWiKH2EdLA1PL/kmy6NGZ5n9dFGCQhdtgZpEUAAAQQQGCOwMim8flmu9CXrJpCTvoVV6fM7XhAxQumYjsRHCCDQiEBTAWFk0m+5NIiA0EWPtAgggAACCDQgYG8NzVS4J1P6YgLB8EARg0zpcztecBy3kjbQQSkCAQSGChiT3kM62BqWXxSnpw2tQMGFw/J0WcYVwoLwrIYAAggggMAkARvMdPzwhFzpnxYJglhnSLCo9Kn5tvBOk6z5HAEEEJAW2LFj19EugVXRtFGcvNOl7kXLKboeAaHL1iAtAggggAACBwWybfN37E7SLn1L5UbMT+mrcqXftnx0sIkOhgACCDQpEJn0e0UDqarrLcZJ7NKmquWOSkdA6LI1SIsAAgggsOEFzti8+bq5p1+eKf1HrvgNueLnEtB64YVZK/jfG76TAYAAAo0JRHH6ylGBk9Dy/e12++YuDRKqx6FRSQkIXbYGaRFAAAEENrRApoJj7bNvBILCgWB/EKmCT2Zbgq0burPReAQQaETAmF23jExylXTQ9af8kg+6NuRPeVUfWbQ3DwJC1y1CegQQQACBDSdwxtzcn2WqO3roVQSDNQeDq8GhCn+dtYK/23CdjQYjgEDjAiZO3t0bMAm+3r+4uPSXrg0SrE/3KiEBoesWIT0CCCCAwIYS2Ds/H2ZKn0Eg2FAguBoQHvyb+eFb7SiuG6rT0VgEEGhUwN7SaeL019KBlzHJv0o0RLpeBIQSW4U8EEAAAQQ2hPbPPlMAACAASURBVEDH04/KPf17gsHpBIOH3JU+2wbmG6LT0UgEEJiKgDFLDzJxul8q+IpMcur27duvKdEYqTqt5kNAKLFVyAMBBBBAYF0LHJibu3pHhf9yKCDpu2o1E8tVeEGuwi90r6D5+nnd6S+8hf+17Id33rctWNi7eb6VKXXj1f+nb9ly00wplanwFsuthbsvq+DhHaXbuQpfmiv9n90RU2c5+FX6oo4fPGxddzwahwACUxVYjJMdEkFhZJKvnnDCiTeVasxqICf1l4BQasuQDwIIIIDAuhQ4Y37+RllLf3omgr7VQFTpX+We/limgmctt8L7ZJvDI+vAt/Mq7m3p+dwLH5krfVKuwn2Zry+bLYvgBUxmX8fWJ08EELACxiw9PDJLv6kafEVx+qF2u30jSc2qdRmVjoBQcuuQFwIIIIDAuhLobF7Ylqvg61MPgJTen6uF5VyFz86Uvt00A6BMqWtnLX3fXIWvylX4zanb+OGBrKXffvbcrURuxVpXHZjGIICAiMDOnbu2RXFy8qiAatjyyKQXRHFy/Nzc3BEilejJZFh5LssICHtweYkAAggggMCqQMcLbp+r8CdTC3i6k7MH/y9TOtl31MLNVus1a387nr5lx9cvyjz9ralZ2aDQDz9vr+bOmg/1QQCB9SNgRwiNTPLGyKQ/GRGAXWbi9HNRlD5B6nnBYXojyj40r2DZzwkIhymzDAEEEEBgQwvkXnDXXOmLphHgZEr/2AZY+3zfW2sboeMt3M1ercuVvmQadrnSX10+Oti01tyoLwIIrD2BdrvdiuP0XlGUPmKxvev+xqS3rTMI7BUqG/BNWp+AsFeX1wgggAACG16g4y3ceyoBjQq/lPvBdjuAzVrfCHtbrT/Plf7HqVxh9fRZy55387VuSP0RQACBUQKTAryynxMQjpJmOQIIIIDAhhPoeOGDmg4GM0/n+bbwHusR2z7Xlyu9M1f6e01eMcyUPjfbEmxdj6a0CQEEECgb8E1an4CQPoUAAggggMDc3FzjVwaVPjVTwbEbAd8GhvZZyCavGNpnGrl9dCP0LtqIwMYTmBTglf2cgHDj9SFajAACCCDQJ7BX6b/OVfi7Rq5iefpHudKPm+ZIoX3Nb+ztmUcddb3M1y/Olb60EWsVfJ2BZhrbvBSEAAINCZQN+CatT0DY0IajGAQQQACB2RRYbgW3ynz929oDFE9faSd9P2Pz5uvOpkRztcqUUrkKPlm7uZ23UekvYt7ctqUkBBCoX2BSgFf2cwLC+rcZJSCAAAIIzKhAptTRmR/+sO7AJFP6DDt/4IwyTK1aHU8/PvfCC2v39/XJB+bmrja1hlIwAgggIChQNuCbtD4BoeDGISsEEEAAgbUjYK8a5V7w5VqDke6E8uE/ZXNz11g7Ms3W9DTfP2pZhZ+qdTv44YGOr1/RbMsoDQEEEKhHYFKAV/ZzAsJ6thO5IoAAAgjMsIB9fi9XCx+oNQhR+vzl1sLdZ5hhZqrW3R6+3p2r8PI6t0nHC6KZaTQVQQABBCoKlA34Jq1PQFhxQ5AMAQQQQGDtCnRU8Mw6A49lb+Fzp2/ZctO1KzSdmi/74Z1zO+iOffavjv824NwW3mk6raNUBBBAQEZgUoBX9nMCQpntQi4IIIAAAmtE4OD0EvtrCThWBjE5aT1MLj+tzbnvqIWb5b7u1Lh9zss2h0dOq32UiwACCLgKlA34Jq1PQOi6RUiPAAIIILBmBE7Zdszm2gYx8fSVmR+YNYMxwxXtTmjvhe+qLSj09Wc34rQfM7zJqRoCCJQQmBTglf2cgLAEPqsigAACCKxdgYPPqX22jiAjU/riZRU8YNo6diTNfduChUyFj8i98GmZH74+8/XJ9opb5oX/kyv9HTuqandkVaXPzpX+Su7rz+ZKvzf39MtzL9iVtfR97VW6GWjLER1fv6iO7dXN0wufNu02Uj4CCCBQRaBswDdpfQLCKluBNAgggAACa04gV8FTawkulL7ITmw/DRB7Jc3eAtsNnFT4BRuYirVRhRd0B97xwqct+/5tp9E+W2bu62eItan3uUQVXj7Ndk3Lk3IRQGDtC0wK8Mp+TkC49vsELUAAAQQQmCCQbVu4debry8QDCy+8cNkL7jCheNGPzzzqqOtlKnzsSrCmfy/ept6gqed1pvSP7RXHfFt4j6bn9MtVkNbSTk+f9d0guJboBiIzBBBAoGaBsgHfpPUJCGveYGSPAAIIIDBdARu85H5wunhAYa8Mthb+qqnW2RE4Mz98a+41FwSONFP6vFwFL8i2BFuban9up6XoCVDFXnv6n5tqA+UggAACEgKTAryynxMQSmwV8kAAAQQQmFmBjtJPFgseVgMSpS9pYo7BbjDrhY/MVbhPvA2rbXH52x1IR797rx/+ZRMdIFfhs8UdlL7ilFbwF03UnzIQQAABCYGyAd+k9QkIJbYKeSCAAAIIzKTA3s3zLdHn6mzwpPT+ZU8/uO4GdweGUfpr4gGQSwA4Lq3SH1xuBbeq26XjB68TN1H61KZvg63bifwRQGD9CkwK8Mp+TkC4fvsKLUMAAQQ2vEDu6fdLBw8dLzyxTthM6dvlamFZut6N5Kf0/o7Sb1o+OthUl5Gd4zH39Uel29PxgsW66ky+CCCAgKRA2YBv0voEhJJbh7wQQAABBGZGoOPre4oHDX7wuroamG3adP1M6VfbK5DS9W48PxX+OlN6R11z/dmBdXIVfF2yXZmvf3bKkcfcoK7tS74IIICAlMCkAK/s5wSEUluGfBBAAAEEZkag++yd0l+VDBjsc3xnzM39WR2NtCN35kr/QLS+427vbOqzlv7MKduO2VyHWbZ1IciV/o2kWUeF/1JHXddSnsYYP4rSJxiTvCSKk/eaOM1NnHzFxMnXTZycG8XJ/5g43WdM8n5j0pcbk+7cuXPpVnv27LnaLLRz587dm6Jo6YHGJE83Jn1TFKcfj+L0tJV6J+dGJjkrMsmXu+0yyYejOHm1McmToih9sE07C21osg7bt2+/ujG7bmnMrsdEcfo8Y9K3GpN8YtUsipLvRHFytjHpGdZsxTN5mzHJPy/GyXHGpLe1eTRZZ8qamysb8E1afy0FhPt83+s+UuHrZ9g7UnIVfsgen1fm2g2/mSl9rn2defq0XIWfsIOxdTz93GVPP9oeN+r6oZJ+iUCdApkKb5H7wfHdAf1a+u2ZH37+UL/39He7P5Ir/bXM0/nB+aX/b67Cf8r9MLYXSPjBu86tQ94zK9BR4RMkAwV79WjZ824u3WB7++PKHILr4KrgiCAzU/qXWUs/RNrO5pf7wUOFt/Nl9rnTOuo6y3nagC6Kk1cZk35/0onjqM8jk/4yipN3xnHykHa7XcsPJ8MMbTASRUv3ieLkdZFJvzWqfkWX2zyiOHmLDSqPPXbPNYaVucaXHRFFye1t8BeZ5PMmTv5Q1GbMer83Jvm0Dax37ty1bY37rInqj9kWB6p8NssBoQ0Au6NMK/3B3AsvdN3nrxyTwg/b6Yw6mxfor2uix2+8Sto7oTqefnzm65NzpX/u2u9zpa/KlT4nV/r/djz9KJv/xlOlxRtKIJubu4b9hdD5y9MT4GRq4YHSiKdv2XLTZW/hc5L1nOW8bOBrA2Bpx1zp10i2O2vpN0vXsUh+JyTJFnu1Suq/MbuiSeXaQNCY5MNVTiDHpVmMk58bk7yw3W4fOakOVT9vt9utKE5fakzys3F1cfksMukvjElf2263F6rWc1bS2auAUZy+LDLp+S4mk9JGJrnKmCRbjJO/LxtQR1F0E6n+v5JP+gIX/yjaFYjWp5080aU+vWknbYeyn89aQLjvqIWbZSp4Sq70VyT378PyyvzgFHsVpcoJcscLIvuoh9T/ztb52/Ru50mvMz98olTZNp+y5U+qX9XPc18/Q7Jdp24Nt5StS+6Fj5SsQ9HzSPujdHfwPBX+blh/FVum9KX26rr9wZ5B9cr2DtZfEwIdpZfEvjA2KFT6NdINP8X3j8lV+H3RevYEsDObr9IfOWPz5utKemZKXTtT+htibVb6ikwpJVnHInnF8a7blT2JG7u+ST48qtzdu3dfK4qTkyKT/HFsHnFa6WrDap5RnF5kr0Tt2LHj2qPqUnb5jiRRkUnfbuLkitVy6v5rgxxb5hq8+nWEMUsPtwFa3UbD8rfBZxynSdHA0G7bYflUXRaZ9Idl+1fv+sYkx1Yte0S6vDd/l9cj8q/8fZ2VgHDZ92+bq/AduQovF9unFzw2Zr7+bab0y8rcDZS1wg9L1tPeClumX6zcHhgekKpD2fLL1LXMut3bfwtutyJtt4P1lSnfrmuDwSJ5F10nU+GecXXINodHZn74+tzTVxbNU2694NsdPzyBwHDcFuKzNSVw9tytrpkrfb7kl8QGHJIIHW/hbrkKfy1XR7mDQSN18oIvS49Canf2mdJ/lKp/1tJvl9zmRfJqKiCM4zg0Jj1T+oRyXH6RSb8XRUv3LOIwap3t2596HWOSf4lMcvm4sur9LPmDfTZxVp6XHGVlly/GyaO7z/45BvUSnpFJzzFm6X7j6ms/IyCcJPSnzyW2S28e0w4I7fNR0sFV5eOB0pfa58nPmJ+/0Z/Eh7+SrnPZgIyAsNj5z6wHhHYQvlzpX1Xus0LBsw3El/3wzsN7O0sRWEMC0s8O2gdxJZvf8RbunSt9ybS/9FMv39NnVbmFY9y2sAdwsXYpfYV0/cbV3X7WREDYHWwlTn7beyLY1OuVq2zJi6sMQBLHu+5mB7Rpqq6Tyoni9AvHJ8nNJm3TaXxunw/sDvozA4HggKNJ35Gm6Z+PciEgHCUzuHzA1nF7TysgPO0mwQ1zT79W8gc9wePAz+0zXIP6f1pCQPgnC8lXG+UK4albt95Eug859//uSPfBS+zjV5LblLwQaEzAjhwmOhWB0v8uWXmCwcN/ybPPeUpeKTx466jcs6NKnyS5/SflVXdAaMzSCU3eZjnyhNUknzj++OOLPsx+hDHJs+q+tXVkXceeZCfn2efyJm3Xpj63t+XagYFm06rn1mOT/MiY9B7DXAgIh6kMX1atz/Zsh76+PY2A0D67lKvwJ84nsEJXR0bXQ3901LFK+mSeK4Qr/X0jBITZtoVb50p/b3S/O/ycqen17Cime1utkT/gDd8zsRSBGRDIfX0/sS+MCn9tf7mRatZepf+aK4NDdm7dK4VyzsuefrBUH+g+T7Jp0/Wl+sCkfOoMCLtTMPSdAEqfUJbJLzLJ6e12e+ztWNu3b7+mMel/lcm3+XWTC3e026UGgZjUD6p8bvtO97bMGdrG47ZFN2g16VP620pA2C8y+v043yqfNRkQ2h/vcqXfKLWvbiIfO9L4sDuGCAhH91GXT9Z7QNidAkXpi5vou05lePosO8CTy7YkLQKNC+Qq+KRTx+/9lVHpJ0k1YO/8fGiHuRarW28918NrtbBsn/2U8s5b+jNS1nYEN6l6TcqnroDQXmGrcoJYd5pxQWG73b6uMcn/q7sOEvmvjKhq/Enbt67PozhZjExyqURbms4jipO32cB/1YaAcFVi8l/pbdVUQGineci94MtS++gm8+ne1uoFu3q3DgFhr4bc6/UcEOZKP6nJfutclvAP93K9hJwQGCLQnafIzrEiECBlnv6W1L3T9nJ7rvR3JOpVOg97H7gdyVQFn+wo/W92Yt6O0k+2Dy9nfmDskN521KvcC9+S+7ojMs9NVX8vfNeQzVpp0cHbMPaX9hpWd0+fVakSFRLVERBG8dKTpU8cJfOL4vQz/XMW2mDQPqMnWU7dednBW0rcBluhdwwm6c6/GKevrLttDeT/ueOO231D20ICwsHtPGqJ9HZpIiBc9oI72CttIvvmYfvrhpbZkUhXJ7cnIBzVQ92Wr9eA8OBE8WKjwjb1XVpWOjtjbq6x+YXdeg+pN7RAN7AROhhkKnysBKYdvlf0qmWh9gXftsGffTajyAhp/e20v96ujHZlh/1ueMQrwauydpRQqR1lUyNuSQeEdqJ46ZPGWvIzyaFpXbpBjkk/VUs5Nd9Oaael6P8+1fXeXlWLTPqBteg0rM72avHOnbs3ERAW7zHDHF2W1R0Qdp+h9/TvpfbL086no/SbbFBIQFi8z5ZZcz0GhLkKL5h2v3Upv+PrV5TZhqyLQOMC3cDL0z9y6eiH0ip9jtQ8LPaK3KF8CwVzQ56xK5DOPuuW++Eb7HOKkvjfDYJrdTz9qFzpj+RCV1/Henj6ykwFd5FoQ7Z1IZAatS7zw7dK1GlSHtIBocvJYeNpza5HWZ/IJG9svGzJQNEsPXzSdnb9vBsMxukn17TTEPPIJGfF8a47SbaLeQhHDyLT71xnQLhuB1RT+jUEhK57tOHp12VAWOB8buw50gykz1Rw7PAtxlIEZkBguRXeR+pL1FHhYySaZK8qSQUko9rWfS5RBS/IlLqxRJ3H5dHx9C3tVbcG2nRuJjSQS+6H7xxlV2q50hfZ4Hicj8RnGzkgtFczozh9Zv9J6tp7n5xnb3mV6A/D8jh4ZfCja8+laGCS/FiybQSERd3TA3UFhOt+QDXhaaQYZXRlz0dAWO0CQalzm0oBZvBtyTEfhh3nWIZAZYGspd8s8SXI/PCHEs8OHhxBrbbnBm1QZm8LtfM3VUarmLA7ebAffl7Ce2QeQtN9dLbO32ZkGSV3hPZKaUWywsk2ckAoGQRMO68oTp9deKOXW/EIY9J3TLt9a6l8AsLpBoQH79RgQLUSxxsCwpWdIgHhrAaE4YFcBU8td+hibQQaELAPuUo962YHWZGosugE6f0HEqW/utcP/1Kini552Ocs6xw5ddjw3lXqm/v6sxJBYdYK/6tK+WXSEBAWP3md8aDk13UMMBPF6fNmvN0HZq1+BITFv1PSVwi7E86r8JsS+9+NlAcB4cpRk4BwlgNC/Qt74aPM+Q3rIlC7QKYWHihysFD6D6ccecwNXCtsb63MPX2lSJ36gsHMD1/fxK2LRQ2yLcHWzA9OqaOtudLnSFytzf3goRL1y5S++NStW69T1KbKegSExU9eZy3w6K9PHKdJlT4wKo0xSw+KTHJVfzm8H99nCAjH+/T2H+mAMPP1yRL73o2WBwHhyl6QgHCGA0I/PGBHqh91vGI5AlMRsEGSyAFD6f8j0YBlFX5KpD69waDSl0g92yjRxt48bNCWe/q14m227RcYdfTA3NzVM6V/LFG/jhc+qLft0q8JCIufvPaeyM7m6+Sbc3NzR0j0kZ07d22LzNJvZrOds73NCAiLbx/JgLDjhSdK7HM3Yh4EhCt7TQLC2Q4I7Y/2q1OvSBznyAMBZ4FM6XNFDhpecFfXymQtfV+RuhweDF7U8Rbu5lq3utN3vPDp0m23t6RKDDDT8fWLROrm6dfW6UhAWPzkdU0ERya9h2t/2bNnz9WMSbI10d4hI4dOu94EhMW/U1IBYWfrvM6FB1oR2X/3Hldn+DUB4cpek4BwxgNCe5VQaFR41+Mk6RGYsw+syxwogm9LcGaePk2mPgd3BEpfZCfylahbE3nkKkhF29/d4YR7XOu+b1uwIFEv++ODa13GpZ9mQGivQEVxcrIdEMWYXY8yJjl2Z7t9hyhK7r4Ypw+zyyOTfD4y6ZXTPskfXX7yB2OSTxiTvDCKk8faNiwuLt0xipI7L8bpfY3ZFUVx8rrIpN8anUfxE+hJeURx8upx27vIZ8akJ04qp67PI5Nc2t3mcfLqxTiJoyh9cBQt3dP20zhO72XfG5PujOLkpChOPxKZ5Fd11aVqvgSExfuzREBorxjkvu5I7G9L56H0FbkK99m7hjpKP9kGVnaI/Gzb/B3tiav9wbbjB3+fe+FzctWdZ/ec0mU0EEgSEK7sGQkIbcClL172Fj5nx6XoKN3u+MH9u31a6dvtbS38lX3d8YOHdc+9VPiq7ndPhZc32K9fWeQ4xjoI1C6Q+3q3RMe3V5BcK5v7+n4SdTmUh/2FVeCqpWu7yqbPff38Q20QOHjaORYlrhLmSn9Fol57W3q+rEnR9acUEO6L4+SRxx675xpF6nlCkmyxQZWJ0/1VT9Ll0yVfj6L0CTt27Cj8kPtie9ffRHH6Bfm6/OkEPDLp+S63jXatTfK7Ous4JO/LjEnfFUVLD9y+/amlnpm1VzO7PyLE6T+ZODlvSN6NDzpDQPin/jhpe0gEhB0/PEFiP1s0j8zXl+VKv3fZ0w+ucpw4ZdsxmztesJirheWiZda9HgHhypFoQweEKvxQ1tIPsYMmFjku965jvwfdQf+kL1AMO59T+nxuG+3V5/XUBHI/fJ/EztlOT+DaiLylPyNRl9U87C+ZrnWaVvpc6bettkPir/2117UtmQqeJVGXXOmdrnUZlb7ZgDD57WKcHFc1YFlcXLrrYpz8fNJJZs2fX2ZM8qSiweww96idPDEyyR/rqqcNkIaVW2RZZNL31FWvIfn+vntlNYpuUqRuk9ZZudV16UFRnJ42pKzGAkMCwuYCQnsimqvwApH97LCTz95lSl+UqXDPqVu3ivRX259P8f1jmphrd5IPAeHK3mUjBoR2kD575W/S/rXo51kr+Ltc6Z9P6nMun3e84PZF68N6CNQmkCv9U5eO3E2rwu+7VnC5FdzKuR49B7uOH7zOtU7TTG9H48w9fZaYiQq/f2Bu7moubeqO/tpjXL1uwX+41GNc2uYCwuTcdrt9i3F1KfJZFO0KjEl+Np0T/uTCne32Xxep56R1FuPk7+tqQxQvVfoxw97mWled+vON4uT/7Ny5e9Mkp4qfH7EYJ4+2V0v7y23iPQFhcwGh9N0ho/fRwX9km8MjK/bHicnssWJZ6Wx0+fU+20VAuLKJNlxA6OmXS4ys3t/B926eb9kBYOrqzxI/2PfXmfcIlBLoeMf4Ih1c6TeWKnjIynn33m2hg4TSX5mlqSWGNLfQou4E9kpfLLKN7LOELX3fQgWPWSnzwx8610eFdvTIWv41ExAmP11cTMVue7VBWZ1X2IYFDZG9jdKkYr+i2o0ZxelLh5XlvMwk76/SWYxJPu1c9qRBXkzyM/scYJX6lU1z3HG7b2gDz9rb1NdmAsJmAsJMqRvb2/ud96/jfrRT+hd1j/S82q/tbXB2pNTuLanj6lTDZwSEK1thYwWEevdq36vj76lbwy21Xb33dKVjXB3tJM8NKtDx9OMlDj72gVwXQnuPt9QE7ZnSf5yFSeddPHrT5r5+hsQ26uah9Ht7867yuqP0myTqI3mbUm87GggI99tn53rLlHhdWzDVd3J/KJgwS4+TqHdvHrt3775WHYPNRCa9oLecIq+NSe9yqK2jDJyX2+cuT/SK1EdyHTs/Y5MDExEQNhQQ+vp5EvvWkXkofY79EViyLxbJqzsYja9/NrJeBIRFGCuts4ECwjdUAiqZaLkV3qeOfpz5+mclq8LqCMgKdHz9CufOrfR+18noM7XwQOd6HDyodJT+N1ml6eZ2MFj+hoSPHW2ryqABvQLdEeYkDuDewt/25iv1uu6AMIqTV0nVtTefXbt2XT8y6S/rD2LsyW3ywd6yJV93RyZ1DrQGT8BPOOHEm5apZxSnH6rV0iTL9opdmTpJrrsy4mt6Sa1tPLgdCQgH++Mo96qDytg7WnKlfyGxnx+ah9JfO2N+/kaSfbBMXt1b7jz9o6F1kzie9OXBFcKVrbMRAsJM6W9kShUeDK1Mvx22rtS4G/3fhTpv4R7WDpYhcJhA1tKf7u+U5d/rMw/LtMIbqQFU7FXG024SNHKSZg/grs/kFaXqeAv3Lr9dht9+21HhY4qWO2w9O6KcRF3qume+zoDQTitR9YRvmGX/sihOnzfqRFNqub2yZJ9b7C9b6n273f6zWgbKKTEfob2dNzLJVVJm/flEJjm93W5P7eR6dVvZUUxNnFzRXz/p9wSE9QeEtY4sqvQ5y0cHdT3futodJ/61U1xlSv9Y4vgxKQ8CwpXNsRECQnvVbmLnE1zBDgAzqf9V+nxb6DznrmAzyWqjCcgMKOP2/KANqqR+Gc18/bw6tuEZmzdfN1f6cXb0tO6DxXauptVfJJW+KPeD0+0zkHY+m7qGD86V/uKhMlfLrvb3na5GudI/cK1L5odvda3HsPR1BoR2BMlhZUot27Fj19G1P0to0ndI1XdUPnbuQOmgxM5/OKq8/uX13n6bnFf2amV//STfR3FyvLh13xVeAsL6A0I7MqLrPnVoehX+zk5yL9nnXPKyoz/mSl86tK7VjmcHhuVFQLiyldZ7QGjnF3Tpj1XTis+Xbcd48ANTtT6kQ8BJwD7DNWxHWnZZR4VPcKmInfC2bJnD1u/OtafUjV3q0p/WXm3MfP3iUg/6K/0d+2uvdGBoBwIY1u7Sy5T+heuVzVyF/1263IGDfXB6v7fE+7oCQhuoLS4+cbNEHcflYeL0c3We4MfxrruNK1/isyhauo94G0z68iJ12759+9VrHLX1sjjedaci9WhyHWPS14p79wSFBIT1BoQ2YHPfnw6/I8QOmd9kXyxSVqb0jrrau5ovAeHKlljvAaGdZ7BIn5Nep+OFT1/ta2J/PV3oGCfdFvJDYG7ZD+8s0ZFd50/pqOCZEvXIPf1ayc3a8YP7O11B9cK99rkJqTrZADP39HclrFznjLRXYl3rYW/vlbLpzae+gDD9VG85db22UyzUdXIfmfS7ddW7N9+VwWWSS0XbYdJ39ZYx6nX32bqeYEa4Ds8YVe40lx8czOcc0bb2GBIQ1hsQ1jbVxAyPXJgr/RHXY8i49ASEK3ukdR0QKn2e64/bVffbp7SCvxjX/yp9pvR7qtaHdAg4CUgMDmJH9HR9mDf39UcrfXn6rzhtC8V+uc+98Gm50lc510uFv+54C2JXZDoqfKFzneytCUonLp3HjiorUo9Nm67vUo9haesKCI1J0mHlSS+LouTWtZ3Y1zQgzjAD8cnUTfLpYeX0LzMmfWsdfpFJvnrssXuu0V/erLy3V37rem6SgLDmgFByvtnV46KntQs5EQAAIABJREFUf2+HyZ+V/tlfj2xLsDVX4e8kjiPD8iAgXBFfzwFhpvSr+/tVU+8PPur0m2F9r/Kylv5MU/WnHAQOE8iV/sfKHXf1oKP0dw7LtMIbkecHBee1y3z9D84uqz72r9KX7FVaZPLvvS09L1I3pd9WYVMdSiJVj2zbwq0PZSr0oq6AsN1ui13tHdfUPXv2XM3E6e/rCGqMWbrfuLIlP4tM8kbhNnytQP2OsFNUCJd7wOa3uLh01wLlT3WVyKRvr6PtBIT1BYRS+9L+40LH1y+aamcsUHimwj399ZZ6T0C4sgHWc0DY9GAy/V06V+EXpPprNx+lixzj+qvBewTcBXKl3+jame0opS41yZQ62rUOB79IJ7nUYzVt7gcPFalPb0C4EhT+3LZ1tRyXv3aIZec6Ou547FQYudL7Xeux7GnxCb3rCQiTH7tss7JpjUmWazix37+4uHiDsnWpur4x6VMk21AkKNnZbt9BssxDeRW8OlnVSiqdHT22jkGJitiPa4MxybGHLHtuRXVYlo8rr8xnDnXo/lDQn77sKMS5ClLX/Wh/+u70QpvDI8s4TGNdOw2G1PzDgwbhI8q0KfN03p+Hy/uyAWmZupZZd70GhJmvLzt77lbXLGMhvW7mh6936SMDaZX+qXQdyQ+BQgKZr08e6JD9gcyE91lLv7lQYSNWylr6vq51sOntPIYjiii82A6yU9fBqVtHf+HjhSszZsVc6de4mtmd6YG5uauPKWbiR7nS57vXQ35UrToCwihO3zcRRHCFem57TL4uWMWJWUXR0kP7T5bd3ie/nVRoFC/9g1sZI64EmfQuk8qelc+jOHmntAEB4Yh+MSS4LR8Q6g+67kcH0gs/T19n37ZXMgfqP+G8o8j6ZQMyAsLhgxL1W2dK365sf7C3dvbn4/xe6S+WrYf0+pkKnuLcjp6+bgcvlK4j+SFQSEBiB5ip4FmFChuxkn2WzfUL1X2OUeBZtFp2Wj1fdtvOZRU8YARF4cX2QOdqZtO7DniTq3Cfaz3sgEKFG15wxZoCwhcULF5ktShK/rGGk/pGH1iPouT2sm0oEhCmH5ct0wYCyVdENmpDmdhnCaUNCAhrDQjFJ6Nf9oI7NNTdnIvZ5/ueyPP6fcdaAsKVTbNurxBO8fnB1U4vMQ5H7zmUvbK/mjd/EWhUQOTWQz+MXSqdK31S7xei0mulz3apg02bbQ6PbGJupFwtLLvWtXsA7Tv4VXGzcya61CVXCx+oUu5haZQWudW3tx11BITGLDU6dHsUpY8XP6mP00aD2na7fXPJNthbIXu387DXJk4ulCyzm5dJ28PKmuVlkUnOknQgIKwnINw7Px8etj8U2a/rb8xy3xxWt9zXn5V34JZRa71eA8KOFxSel3ZYn5NYttxauLt0v5WoF3kgUFogV+EFzp3ZCx9ZuuCeBLnS73Gugwo/1JNlpZcdLzzRuR4FD+Z2EIFKlTyY6ODoVs4T+3Y8/XiXeuRe+BZXszomp68jIFxcXPpLF6uyaWt45uqAMUuPK1sPl/XtiJySQYnNa1x97KA/0uWZON0fRdFNxpU7i58Zkzxf0oKAsJ6AsKPCx7juQwfTBy+ZxT45rk71PEdJQGjN12tAuKyCe43rU0181vH0LQe/f8VuvR2Vrol6UwYCAwKlJlsfEexkrfBvBjIuscAOSjPqi1F0eUeF/1KiyKGrLqvwU0XLc10v88MnDq1EiYW5r890rUfu690lihxY1bq71iFrhf81kLHjgjoCwna73egADcakt5U8obd5RdHSPR1pSyc3cXqZZDvGVSCOk4dIltU1M0lnXJmz+pn07boEhLUFhM770P59cMfXjX/PXb8H9vGF/na4vueW0ZWtsm4DQs+7uWu/c03fnTplxLlx1f7rWifSI1BJwA4sUrXTrqar8oBxb2VzL/jyal5V/9oHe3vzrPI6V1p2PpkxO4nM1++uUsfeNBK32Nghv3vzLPtaYsjwrBV+uGy5k9aXDggjk1w+qUzpz3ckiRIPbqJdgXQ9J+UXmfSXku0YV95inD5NsqxuXiZxekZ6XH1r/kx0+g0CwnoCQvHJ2ZW+xI4AXXPfqiX7zNPfqnoOMCwdAeHKZlqXAaHSV9TSCUtmmil142F9z2VZySqwOgIyAi6ddjWta0AosrNSeqeLyPLRwabV9jTyV4VfcqmvTTsLz+/lvn6Gq9daCAiNSX7kur3KprcjFUoHN8cdt/uGZevhur4NJCTbMa4+xqRvkizL5jWNq6rj2ljms8ikH5XyICCsLSA823Ufenj64PQyfWSW1hV5fKTnh1gCwpWtK3KOdZjrDIwyqsKfzELf7U6/1WNz+Hex2q2js9Au6rABBSQ6775twYILXe4H33avR7DdpQ7Z1oXAvQ7Fv/yZ0ue61NemzVr67a51tqOqutRDYshlO9KtSx2GpZW+QmjitPFBGuoICIdZ1b2s0YAwTj4mFQAdzGf/rl27rl+3UV35R3H6PCkPAsK6AsLwctf9eG9612mg6uqLRfLNvfBpvW1xfU1AuKK+TgNC5x/Vi/TJIuu49tP+9EXKZB0ExAX6O2KV964DpOSe/m6VcnvTZK3AaQTIOkZ6663fwGulv+e6MddLQLisdOZq0Z++hoBwX38Zdb/fvXv3taRO5lfymTxlQx1tajgg/IqkWRQl36nDpKk8jVl6uJQHAaF8QNgd2Vr46kKu9JOa6l/S5di5hAeOlQ4+BIQrW2g9BoR27Anp/lc1P8k+a/OqWg/SIeAkINGRZ+GW0UzpHS4QmVJHS1gUzsMLvuxSX5s28/XJhcsbdVB1nPKh4+nnutZhTdwyGqefc91eVdJLnczbfCKTnl+lDq5pGg4Iz5M0Myb5rGv7p5le8ocRAsIaAsJtC7d23X8OpHcc9Xua/VV6xEYCwpWtuS4DQl+fPM2+2lv2wHdw1PlWweW9efMagcYEcuV+u4pzQKj0Ga5fKJlBZcLfudajcHoV/rfrRpYYndV5UBk/fH3hNo/YGa6JgNAk4gPfFNn+ksGN6wl9kfoOW6fJgDAyye9EzeLkLcPatFaW2ekypDxc+08N06iI3WouZbSaj73du0gfsfPAuu4/+9Mv++Gdi5Q9i+ucedRR1+tvj8t7AsKVrbwuA8KWfvus9GGXPjos7ay0i3psMAGJaSfsxJwubHlLf2bYl6LMsszXL3apg02b+eHny5TptK4XPs21vrnSX3Oqgx8e6Cj9ZJd6iIyQp/TbXOowLK3klZHuSR4B4TDmQsuaDAhXT8il/kZx+k+FGjnDK0UmuUrCg4CwhiuEKnyE6z68P32mlJrh7jixarmnr+xvU9X3BIQr3OsyIHQc/2BiRyyxQtX+OSpdiaJZFQE5gczXPxvVKYsuX1bBw11qlCv9n0XLGrWevX3SpQ42rfQD7aPqapfbW2Nc65spffG4Mop85joxfeaHPyxSzth1PP1yV4v+9ASEgyevkUnP6Xdq4v0aDwif3YRRnWWYOPktAeF4YQmf3jyKXyHUO8buG0fcVTEujR0xe3xrZ/tTiR+pV30ICFe2NQFhvX1+tb9J/a23tuSOwAiBXOlzXDtxxwuiEdkXWpz5wb+61iFXwdcLFTZmpWXPu3mu9BXOdZl0EBeYcqKzeWGbRD3LHjB7+U7fsuWmEnWwU1f05ivxmoBwSEAYJ/8jYVs2j7UcEBqTOs9vWtZLev3IpBf0BitVX3OFcPA7NcpymgGhnRdNug81mV+uwp/IHFfCA2WPb3bEa6mybT5ly6/LeZ0GhC+ry6tsvpJ9xuZVtnzWR0BEIPfCva6duaOCZ7pUJvPDJ7rWwT4LmSl1bZd62LSZH77VuS4TAkKJg0TW0g8RqafDAAS5HxwvUQfXq5TDtjkB4eDJa0RAeGDUCfzI5esjIPzJyPbFg/1k1LoEhMWtSgSEicQ+tDePU7duvc6wfeJaWZYr/Yve9ri8LnusJSAsNnVWlXEj7BRXLtuyP63r+AeS34f+urm+l6wbeSFQWEBocvM3Fi5wyIrLKniA6xfIps9a+r5Dsi+1aOUqYX2Dy9gDzoG5uSNKVWrIyiJXVW3gqsLKt8TlSn9QYrvl28I7DWmi0yICwsGTVwLCQZNRwc/q8ihK/tGpI85AYm4ZnbwRVre31N/CAaEfGJF9aM+PkGv9CiG3jE7ur2XXWJ9XCMM9ZR3qWl/6O1xXPckXgbECudL/7tyZVfDJsYVM+DDbEmx1roMNCAUGlrFVzVrB/5aoT38e9kDX8Y7xJ3AU+jhX+qv9+Vd5X3UOwFO3hlukbq895chjblCo0SVWIiAcDH42SED4e6mT+m4+JpmZk44S3f+wVSOTXilhwhXCwe/UKNfCAaGSf4bQHk8P6wBr7E2u9FVVjmXD0nCFcGXjExDW+yUY1vdcltVbW3JHYISAvULk0nG7aVX4zRHZF16cK/0r13rYnV7hAiesmCt9kmt9DkvffTZR329CsYU+7gbQggfNjhfcvlDBPSuJ/JDQvUKpa5kbj4Bw8OR1QwSEJvnRqJP0SstN+vqebr/mXh5//PHXq9TuIbeSEhAOfqdG2RYNCO3t8ocdJ3qu9FVdforvH7PmOurBCp8xP3+jqu0elo6AcAWWgLDeb8SwvueyrN7akjsCIwQyFT7WpeN203r6yjPm5v5sRBGFFucq+KRzPezonVvnb1OowAkr2ds6M6VfJlGnXOlLcm/hf00osvDH9plNkXqtnnyo8EvfDYJrFa1Axw/uL/UrrsTosMPqTUA4ePK6EQLCyCRnjTpJr7Y8+diw/rVWlhmz65bV2j2k/5j0hy7tZh7CQb2OFz5IdF/uhweWW+F9BktaG0tOaQV/IelBQLiy3QkI6+3/kn3W5lVvbckdgRECmQruItGZl33/tiOKKLS44+nnStQjF57CoPsLrtIXVa6b0mdLBamrkLnSZ1euz2oQ2Pc38xc+nm3adP3VMkb9zb3grrmLR1+5uQqeOqosl+UEhENO6DfAoDJRnH5GKgDq5mPSM1364bTTRtHSA6U8uEI4+J0aZVv0CqGdw1d6X95R4ROm3e+qlp+phQdKehAQrmwJAsKqPbJYOsk+a/MqViprISAsYOcskujM9rk7l6p1vIW7idRD6V8WCWzK1PU03z8qa+k3l3pmToUXdLzw6a5XTvvrmangWAmnoXkofZ4dOXTYKHV2oIKOr19UyqA/+BvyPts2f8f+Nkq8JyAcPHndGFcI07ePOkmvsjwyyaXHHrvnGhJ9chp5GJM8qUq7h6UhIBz8Tg1zssuKBoT7tgULQ/fFQ/aVRdfrqPCF0+hrEmVKzwVMQLiyVQgIJXrn6DyKfjeLrje6JD5BoGaBXOmfF+2oI9dT+jUu1TwwN3f1XOnfjMy/zAHSC5/mUpdRafcdtXCzXOkn2dtbM6V/eVhd7TN9Sv8g8/W7cz/YXuYWzFHlDVue+eHnDyu3jEvRdZX+Q7ccFb4j98J3dacmqWN+RhVecGBu7mrD2um6jIBw8OR1IwSExiQvHHWSXnV5FCWln7F17b9S6U2cvLtqu/vTERAOfqf6jVbfFw0I7VRJ0vvzrBV+WKr/NJ1P93hT9DhVYD0CwpUtmKvw+5L9jGknDv9mSNravA7PnXcINCggEmR4wZddq5wr/V6RL5YKLxh2lcu1fv3p7ZXIvZvnW3aqCok5EPvz73/fvV2zwEFQxLCBcuxV1/42Sr0nIBw8ed0IAeFinBy3elIu9tekbal+2XQ+kUm/JeVAQDj4nRplWzQgtP0h8/XPRPfZSp/XdD+TKk/6cYiyAWGu9Eckt0XZ8qUc+/PJ/PCHku2qMnAR8xAWm+PRbqf+7cd7BBoT6Cj9b647i0zpP5551FHXc6n0sqcf7VqP1fRSU1C4tEcyrb2SlnvBl1fbtx7+2vknJY168yIgHDx53QgBoTHpX406Sa+6PIqTk3v71lp5fUKSbKna5mHpCAgHv1PDnOyyMgFh7uuO9P7cTgu0Vvrpaj0zpY6WdigbkNmrq5J1mJXnOXMvvFCyXZlSanW7Ff1LQEhAWLSvsN4UBTp+eILEzsL1BL97+4zUgCUqvLyzdV5PkVW06EzpRGIbzUoe9hfLum4XtfAEhIMnrxshINyxY8e1I5P8cdSJepXlkUl+1263nUZRFt0ZFMxsMU7iKu0dlYaAcPA7NcqqVEDohW+R3i93vGCxYDeZmdVs8CTtUDYgzFX435J1yHz9D7MAnCu9X7RdBISHbVZJW5vXYZnzBoEmBfbOz4cSHdr+AuRa71zpN0rUpZuHWli2zya61mna6ff5vmcntRdzaeB20Il19cLn1OlKQDh48roRAkLbp0ycfmPUiXrV5Xa0zjr7ax15R3H68artHZaOgHDwOzXMyS4rFRCqIJ24vyy/z35fHX2qzjxzT79f2qFsQJi19NtF66DCl9ZpViTvbHN4pGib/PCAHWSuSNm963CFkCuEvf2B1zMskCv9C/edRvBt1ybaSdLd6/GnL95av3XUjlKaK/1FSZNp55UpfbEd3da1r4xLT0A4ePK6UQLCKE7eMupEverytXbb6OLiEzfLXyllHsKi/adMQLhX6b8W3ycrfclpNwluOG4fOUuf7W21/jxX4eXSDqUDQqVfLVoHpf9z2s57Wwt/JdomGxDOzZUeeZmA8E/npZO2x7T7DOVvcIFchR+a1EmLfJ6p8BaulLlaWC5SVqF1lL7KTqTuWqdppZd4vrOQU/lfoA9UzTdT+mV1exIQbuCAMEqfUPTEvfh6yRXHJ8nN6u63UvlHcfq84m0b7CvD0nKFsJiTtSsTEJ49d6tr5kpfUnV/Oipd5gdGqj/VnU/HC08c1Q6X5WUDwtwLn+NS3kBaFX6pbrtJ+dtRzwfq5XC8tyOsTypz2OcEhASEw/oFy2ZQQG7+H/181+blfvBQyR2YnUh92fdv61qvptOvt+cG7Ta1t77aX4PrtiQgHDx53ShXCHfu3LVtWEDjuiyK09p/yJD4Xmzf/tTrRCa9wLW9/ekJCAe/U/1Gq+/LBIR2my8rnYke8+wJv9JfOzA3d4REn6ozD/sseab0ueLt797aGD6iTN1zP4wl62Hvhpn2Yyvd+YMdAsABDxV+s4zp6roEhASEq32BvzMucEor+IuBL36VnYinz3Jtqj2I2YOZSH0OtsEO7Z1tXQhc69ZU+o4XHCf9ILikZ9W8OkovNWFIQDh48rpRAkLbv2p5jtCkF7fb7SOb6L8uZRiTPmU1MJH8S0A4+J0a5Vs2IMxV+Oyq+9Rx6TK1MPPPvmYqfOy4Nrh8VvYKYccPHuZS3rC09tzK5fvsmjZr6U8Pq1flZWphuUqdCAgJCKv0G9JMSSBX+vzKO4me4LHKpKX9TbY7com6HJaH0j/tbJ2/TX9Zs/a+O9qa8Khghzn0bKsml2eezpv6xZqAcPDkdSMFhPZq3qiTdZflkUneOGv7i976nHDCiTeNTPoLlzaOSktAOPidGmVVNiC0x8xa9sUq/FKdozn39r0qr78bBNfKlf5OLW2vcIWwju1gb4etYiORZmUMgvB3wr7vrFI3AkICwir9hjRTEsiV/nehHccbJJog+izhahDUndZC30+iftJ5dK+M+vr5Qtug8jN+tZSv9G/2tvS8tNmo/AgIB09eN1JAWMd8hPbkPzLJVXG8626j+t20l0dx8rZRQYrrcgLCwe/UKNOyAeHBu2J+UMe+t6N0e9r9clT5ma+fV0ebV/Mse4Xw4NRXolM05Cr8xKj217284y3ce9VC6m+mgmdVqTcBIQFhlX5DmikJSD27Z58TO2Pz5uu6NmPZC+6QK32V1I7sUD5K77cHoln65fTUrVtvknv6Y4fquBrAroe/Su/veOGDXPtDmfQEhIMnrxspIJybmzsiMun3Rp2wuyyPTHrOrl27rl+mPzaxbhSlD3Zp16S0BISD36lRZmUDQts/7GBbtez/lf7NsufdvIk+WKaM7mMqSl9aS5sPHjfLBoS2/rmnvytaJxVebqd+KGMjtW5exxyXfvCwKvUjICQgrNJvSDMlgYO3b1wksTOU+lWy4wevk6jPsDyWvYXPdbxj/ClxHyo29/X9pG7XHdbOXIX7hi5vKNiU6guHwAq8ICAcPHndYAHhnDHJ80edsLsuj+LkvQW6YWOrLC6m85FZ+o1ru8alJyAc/E6N8qoSENqBz2rbT6uF5SpTBdTVgbNNm66fK31Obe11CQiV/oh0vTpe+PS6LEfle8qRx9wg9/TvxduydV6PKnPccgJCAsJx/YPPZlAg98J3SexAMk9/S+IKnJ1Lqd5gSV/S8fRz7dDfTW8O+6tt1gr/S8J7VB52ol17tTZX+uxR69S6XAVp0662PALCwZPXjRYQ2tFGpefiOywAMMlzp9G3+8vcuXP3pihOzj6sbvHg9nf9nICwuGmVgNBu10zpM2rbH3v6tf19Zxrv7aibma9Prq2dPT90VrpCWMdjGyr8yalbt16nSe+8nnb8uup5HQEhAWGT/Z+yBATsrX1SO+qspR8iUKW55VZ4n1puHe05cORKn2eneWgiMLSBYO6Hr7RDUktZD81HhT/JlLqx3Qb7fN/LlP7x0PV6HaReK33JsqcfLbH9q+RBQDh48rrRAkLbb+yE8q6B0Lj0i3G6u0r/lErTbrdvZOL0S+PqKPUZAeHgd2qUbdWAsOMFi7Xuoz39z1J9r0o+9llJ+yNlrW3sOYZVCQgzFRxbS/1U+OwqZlXSnLLtmM320R3pdmT+wser1MemISAkIKzad0g3JQE7KpWdokFkR7IywpnIPEgdX79CpE49B4uh+anwgkyFe/ZtCxYkN0F30IBt4T0yP3xrXvNzE9122VFKvYW/7W3D3vn5sK75ng6z9PRZ2baFW/eW3fRrAsLBk9eNGBDaAWBGnbSLLTeJnXtVZD9X5nsSRSd6xqRnirVjwlVFAsLB79Qo+6oB4cFBTX5x2P500jGr7OcqfKk9HpXpaxLr2kdSMl+/u9a29VlUCQjtj8J13GqZq/DyJkY5XxmgKPhkHc6ZHz6xal8gICQgrNp3SDdFgVzpk6R2JlV2yMOa3h0+2Qv3StWrUD722TsvfE6mgrtUef7CPidhr5JmfvCvudK1jCA3qh120Jxhjvbhdvsr36h0LsvtFU9bbhNXWYe1rXcZAeHgyetGDAhtnzBxmo86cZdbnry7yYFmjEnuXdf0EqNMCAgHv1OjrKoGhLa/2lEcXfbDhdKq8EP2cYzefWadr7uPR/jBKYXq1hfUuaSpev5R2y2tKvz+ab5/VJ3Wuadf7mI2Lm2mlKpadwJCAsKqfYd0UxSwE7iP2ymU+Szzwv+pes95P0Gm1NG5Cn9SpnyxdZWdyyc4PVfhO+wzh7kfxrnSj1tWwcPtQafjhyfkXrAr8/WLc7XwgdxeJVP6j2LllzhIZq3ww5PM7WTAUlcL7a0p9gruLI1kR0A4ePK6UQPCKFq656gTd8nlUZz8wJj0Hv37Lcn3NuiM4uQNkvUumhcB4eB3apSdU0Bof0hU+pe1HzuUPr/jB/eX7J/D8up4wXG50r+qvT1DjpFVA0L7uENt9VX6bPsIxzArl2UrVwblfswfaL/SX3SpHwEhAaFL/yHtFAXsJOIDO4QhO9wi69jnIqSa0vGC29dyO0fFthVpf6PrKP2VolN+2KueHRU+pjvdhQovL1VPFf46V/o/bVBctDypPlAkHwLCwZPXjRoQ2v5i4uRjo07exZeb5P1xHIdF+mnRdbZvf+p1jEmfEpn0AvH6TrhVdLU8AsLB79SqTf9fl4DQ9olcBU8ttT92OH7ZHxDtcbVoXyy6XtYK/0byPKKKR9WAsDviuhdeWKXMQmmU/nnVug3z37t5vrWswk8VKrt6X4mHlV10GQEhAWHRvsJ6MyZgr3xJ7VzsM4l2CGSpJmZq4YG50ldI1W+95GOv+NmrqFWcu6O5egt/m6ngKVlLvzlX+r25Cj658j/879wP/iP39D/bANLOH2VHiqtSTlNpCAgHT143ckC4uJgeE5nk8v4T97red0c3NcmHjVl60Pbt2yt/V3buXLpVFKevWIyTn9dV16L5EhAOfqdG2bkGhPa2e6k7OAof31r6Myt3jqhrV91P2x8HOyp8Qt704x0jghyXoCv3g5cUthtR/qT0WUt/elkF96r6TGe2JdhqH/Gpf4A6/ZszjzrqelX7hU1HQEhA6NJ/SDtFAXvLYa70dybt0Ep8/krJ5uRe+MjcDpxScUe83tLZEUQ7mxe2SRqv5bwICAdPXjdyQGj7cmSSF486ga9zeWSSX0Vx+r6onSxFUXL3NE3/fNh3y44Yuri4dEdjlk4wJv13Eyfn1lmvsnkTEA5+p0YZugaEtn8sq+AB0zhOdZ8Fb+lPd1TwTDtHrp2rd9gjCHaZfabM1tM+92jn9W1kwLQSx3yXgLA7GngTA8DZ9qjw+7kKX5W1gr+zj+wMew7fBo129NCVUdfDZ3eDbqWvaqKP2IH2hu2zyiwjICQgLNNfWHfGBHIVpGI7G6X3Z9vm7yjZxO59/lwpPJB7+kf2ICJpu9bzIiAcPHnd6AHhjh07rm3i5JujTuIbXn6ZiZMLbZAVmfSXkUkubbj8A2XLIyAc/E6NMpQICO0+OFf6PWLH4BKB1ECZSl/VncbA0z+y8wJ3XzcUjAzUpUQ7XAJC69/Y6Ob9bVr1ttNh+eEPu89gln2soz/Pqu+V/tXq9FUu5wUEhASELv2HtFMWsBOp5iq8wGWHfFhapb9WZbTOcQzLnn5wrvQlh5VTdce3BtNlSn/D3jYyzmgjfkZAOHjyutEDQvs9sFfgIpNeOepEnuWD/WbV5P+3dy9gsmR3QcAXUUF5GrLsunvv1Ok7fWp5yEseggJGIUoEeSiRhyCbvXM39y4EUTHiA1gEFAUhQKIRFBAEYzQICSAgUNVzdzcbspCQkAgkAYMhDzCBPMgmC9n4/XumNjXV1TM9M9Uz3TO/+32yROf7AAAgAElEQVT3q+ruU6fO+VVNV/27zkNAON+mMWqWQwWE91248KhTG0htDa+H3fuA4waEEQjVKS93GpCVd86DzLUqIBQQnsd70TNV5+hT1v2SPc7rGIVzaKB48jjY3Ikr/+Xc+lIpyuvXNzZ6m58Nbbxu+QkIZ29eBYQ7Z/HlK0/8yubG3XL2PJlnIiBc3GqogDDO2J0mgrpHHOW+47gBYfhPR0ldp/uCIctajJ8/1HgBAsLWvdsBx2jd7reU95wI7DwlzK8+ypdx7zYpv2N7Y/MvDM0Xo2zVxfj5vfs84I9vTbd5Wl8/g6Fd1zU/AeHszauA8JGz+d0ub1171rzAx/uz506YCAj7XfrOlyEDwjhrd6c6eueaXqtOrdxDBIThX6fyf5w7+5QfjAHkHvnWPOaKgFBAeMxTyOarIFClfHXIL8NoEx9NYYauW5XSe05S/ndDlnXV8ooO/zGK29B2Zy0/AeHszauA8F1n+Z133vknL29d/cW+m3nvzZ47AsJ+k3nnytABYQwoUm2Uz1i169Gql2eogPB5t976AdFXf9XrO2T54r7vXd+Yx18TEAoIj38WyeHUBaLfX53K/z3ol81G/sm+kcuGqOx0yoxlziF0Sk8cqyLfb/CYxc4QAeHsDayAcO+5c8cdX3bLqo3kOS/AWIX3PSGc/Zuad1yGDgjjzN1prbO5PeR1eOXyGnjk8KECwvCvL5YfW43y21bObAn3I9VG/r6935bHfyUgFBAe/yySw0oI1MXm44b+IpyM8tcvq3LbN49vnE6cvoQvy6EdDswv5d+vU37y0APyLMt+FfIVEM7evAoIZ8/MO++8c3PrytVXzbuxX+/3hx1RVUA4+zc17/xYRkAYZ+8Dly69X5XyAwdeM9bxuhcjqhb5OUPWbciAMPzr0fjxQ5ZvJfNKm9vL6I4iIBQQzl6BvbO2Atup/J9Df4FFh+1lgkw75Bf5xUOX+8TyS5vPiv6RyzQ6i3kLCGdvXgWE/Wf65ct3jS9vXXvFvJv7dXx/2kdy664PHrLsAsLZv6l5vssKCOMMjqCwHo2fd2LXoJMILovyB2Lwkmqj/JEh6zV0QBj+g07HdRK2h9rH+HlxfvV/Ux7vXQGhgPB4Z5CtV0rgntHotsGbTMQ8ghfLT1pmRadNXkfllZg/aciLzTLzqopc18X4E5bpcpbzFhDO3rwKCOef8TvNR6+9YN4N/jq9f/nK1e98/OMf/+63X72ahiy3gHD2b2qe7zIDwjiLp0HhRv6pZV6DTirvalQ+NfpIRr3WISCMck5SvrMeuHnrSXnP3U/K9y0rGJwe25SfMnffhwpadwKrKpV3R76r8G/IekVeq1AnZSBwoEA9yl899Mkfk9xOLlz6sAN3fswE0Qxi+kU+Gv/q0HUYLL80/olqI3/qMau60ObTXzpT+a1DDSu90E5PKJGAcPbmVUC4/8l31113vffWlas/PO8mfw3ef0dMqdHUUkDYSBy8HPrYLjsgjBo9cMMNf6xO+d8Pdu05wk35sfed8pPbR2ddAsIo83SsgujOcRpuQ+8zbT7rgVtu+ZPtYzH0uieEnhAOfU7J75QFphehZTTBLMrfuX7pUnkS1YvBbKqN/Blx8alS/sNT/0JP+fXxK+mQQzwf5DidWynlh6Pu1Wjzx+559G3vc9A26/S5gFBAeMTz9d0uX7n2j9Zw8vo3XL78xE9r11lA2NbYf30dA8KmRpNifEed8oOnfh07TJCSyjdFQNXUoVmuU0AYZY4fsquUX75W9u3jNL0HyF/dPKFtjsMylgJCAeEyzit5nrLA9ZT/3DICqSrlV530KJpVSjfXo/ykOm1un2gTkJTfGMOIVxvjz33ZePweJ3lI65S/YKauafyie0ej4iTLscx9CQgFhMc5v7a2rn301pVhB2UZOuh4JL+ta8+98847Z/oZCwgXPwMesbwy+3dzlM9O4glhu3aTIn9wnfIvrEVgkvIL5v34u24BYRyD+x81ft96VH7/Wti3g8Ei/98qjR/TPo+WuS4gFBAu8/yS9ykKTFL5tUv5Akz5dSfRfLSP7vrGxp+apPLzqo389CrlX653n6ANUs+U3xr9AqtR/oYY6CaetPaVYdnv1Sk/YSYY3L1IVKP82iqNP37ZZTiJ/AWEsze2mowe7sx70pOe9B5bW1e/+vLW1QePEhQse5vpU8ytq3c/5jF3/9G+mgkI+1T63xv6WJ10QBi1ir7y1Sh/ZZ3yWwe5ZrWDhwHW40fkSSr/5X4jWK5jQNicUfVo/NfXYpyClB+OFkkRyDZlP4mlgFBAeBLnmX2cgsDO3IT5vqVceIryd1YhMIlmlDGwSz0qr1Qpf1M9Kp9Zjcb31Cm/dBo8jfLvRf/H+F9HmUfl/6nT+EXVRv7JOuXviU7PMUx1NAU9rQCwfWrUKX/5gccr5QerVH5+e7t1XBcQCgiHOm+f8IS7Ll6+cvX7L29dfXjowOHI+W1de+7W1rUP36+OAsL9dPZ+duTjMOeJ4mkEhE2N7rtQ3lqn/L2D/qB53IAwlfdWKX9kU8Z5y3UOCKNO0Q8vxlmoUn7Lgdfa45oeYftqVP7M9VH5EfP8l/m+gFBAuMzzS96nLHB9I1+qU/mmpXzxpfzW7SL/zVOu4pnY/XQ470OO8BVPgE+iX8GygAWEAsKhz63bb39i3tq69j2Xt66+fegAYuH8tq79+h1XrsZUPdNRGfero4BwP529ny3sPycA7G5/mgFhU7NolrkbGD60lGv0IgFJ/Hi6Mf7cRa8l6x4QNvbVLeWj6yL/8zrl15+affv4pPFPTEb5k5vyncZSQCggPI3zzj5PUCDm+VnaF14M65zykxe9mJxgtddmV9WNN753PcrPPtIxSvmHqpTec20q2yro7bffdfPW1tW7h/p/+crVU3lqOlT5I58rV65dbRGd2OrW1rWvGLIeJ1bwOTt6whOedOPly1effPnK1Zd0A4FlvY7mvpcvX/uSec1D+4oaQcmQ7nEc+/az6HvTAHXAv8k7rly9fdF9H5RuWKerd99+++0r8715/2h003R08CK/7EjXgXZgseD6drH5v6IJ5WGv3UMHhJPR+DMPOvbL/Py+Cxf+xHTQn1GenJT9I/tJ+dWTUf7myYVLeZl1XDTvKm1+WrSaGu7/yfV/PKiOw9Vpx+eg/fmcwMoK7DanfOcjX0QLXjQOkf6ZEdisLMCKFmx3oIGXHsJ59him/Ny4oVjRKioWgVMVuP3OOz9st5/hfZe3rv7hkAFhzPt3+crVp1y+fPXjTrWSdn5mBGJAuHo0/saqKF84aJPSlN8R3SmqNP6q67dcmhngaFHAoQPCkxw05aA6Tm7ZvDgpyi+NUb3rIr/5WNflvnus6BtYlC+MILDaKD8xRlM/qEw+J0CAwKAC0SRx5xfBxR+JH/rLMOWXbI9G+/aZGbRSa57ZdHCcofoxpPzK0xroZ80Pg+KfI4Ev/uIvfq/Ll5/4KTEX4LTP4ZVr929tXX3tQUHizhQXV1++tXX1p7e2rj11a+uuy3fcce22c0SnqqcgcN+FC4/aGQhl/DV12nzWTpC4QBeQVL5pd9C1H572ky82HxcDsg1RhbMcELZ9YgyG7WL8Z3fHJ3hKnfKPTscfWOSaXeQ/qFP569EfsBqV/yFaUdWj/NihjkG7nNYJECBwaIEqpfevU/m/Dx3o9f3SNee9apTfNkn57x62GcqhK7PGGzxw6dL7LWUI7Jg3qsifvsY0ik7gVAQe//jHv/sXX736gTtNJq99ePRvveOOa5e2trYuRLPO+PxUCmanBHoEoptADEwTU0DFQDAxKFqVUoqAY9lTJEWQM+Q9xCo9Ieyh7n0rmpmGdZhvb4w/JH4Ij/V7b9r8wJMeGbS3gN4kQIDAQQKT4rZRnfLrhvxC78srnkbGvg4qz3n7PKazWOqw1ym/IwLy8+aqvgQIECCwfIGYmqnvmn/U9ybF5p9ffqntgQABAgRmBKZ9FE5iHqTYR1H+/Wh6MVOIc/ZG/HJYjfJ/PupF81DbFfnFMbT2OSNWXQIECCxdYFLkL6xSvn2Q/xv5U5de4IF3UKfy3kNdj+a0Jmry0M1k4AMkOwIECBxGoNrIn1qnfDJDXaf8kmg/f5jynZW0MbdhNSq/rE7lG5oL4DKXVcovN8DMWTl71IMAgVUTmM5le0CQs+h3fFXk+1etfgeVpy7yixet3yLpoqnlQfv0OQECBAgsUSCGe65S/sNFvrQHSVPk50yK8UctsUorlXXM0Vin/GuD2C1wA1Kl/KrjjB63UngKQ4AAgRUUGDIgjO4DK1jFfYtUp/I1Q17TDLSyL7cPCRAgcDICk2L8t+uYS3CBgGOQNDHs8kb5jOgEfzI1PNm9xGA603kfU37BIF4LHpcIBmOAgZOtrb0RIEDgfAkM+oQs5YfWTa+OETQXvC4tki5a0aybgfISIEDgTArURfk5J9Z8tH0hSeWPxyArZwE1Rh2rU35CnfLx5hRs+yy6nvJvCAbPwlmkDgQIrLpAnTa3Fwl0Fk0T/ctXvc5N+bZvHt+4aL0WSpfKtzd5WxIgQIDACghUG/kz6pMYaKYvyIk+CSl/ecy5tAIUhyrC5MKlXKf8r+qUX7/QBbCv/sd4L/oMVreOLxyq0BITIECAwJEEYj7AIb/r16kbxfbG5l8Ysu4xV9+RDoKNCBAgQGB5ApNR/uQ65d8d9Av/EMFOzGFYjfJ/j7538cRteTU9Xs4xaMukKL+0Ho2fd1pWsd8q5QeqlG4+Xm1svc4Ck9H4r0QT5ea/PqTrfDSVfR0E6lH5tCG/96PbxjrUO8oYI6sOWfdqNL5nXequnAQIEDhXAlUqP6hO+TeG/NI/Sl5Vym+pU/7hajTeOu0nYO+84YY/EpP/1kX5T+qUn1un/PBR6jToNin/qKklztWfZm9luwNcxA1bb8IlvGk02yWgynLlBao0/qpBv8tH429c+UrvFrAajb9lyLrHeALrUnflJECAwLkTiBu90376NXPRidE6U/7eelReuT4qP+IlN3zIH1/WgXng0qX3q9L4MZOi/AfVRvkjJzVlxEyd5zxdnYzG3/nOG25492XVX77rI3BaAWE8wZ8+oTbH6PqcLEo6iMB09Og5382Lfoe308U1ZpCCnUAmdcr3tcs+wPq/OYFi2wUBAgQIHFXgZePxe9Qp/8cBvvDfuZQ8YqSznfmQnhl9+KqUr9bF5uO2R+XH3XtxvFml9P5Vz83qL91003tVt5SPjieh1Ub5iZMi/406jf9eBFl1Kn98FZ6OzvOKJrWTYnzHUY/pKm5XpfFXVKm8++j/0/uvYr2GKlM8nb7vQnnrvJH4TisgjB9m4jydjMZ/a6i6ymc9Be5/1Ph94zt1PUt/+FLHROrzvqOP9H7Krzx8KU5+i7gniGvQkeo4J4COOXpPvib2SIAAAQKHFpikfGedyrcPeRE48bxOclqNORe+49Y5bvyvb2x+9KEP4Ipv0A1oDut0lic1njZTTuWvT02ib2/KX9A9nF2/k2gyOp1apci/EuXSB6h7RM7P650pdvJTHpm2aCP/VLSuOOsC0x9LB556IX7EXHW3Km1+2mG/nw9KH+MWrHq9lY8AAQIEdgWqi5c+5iQnWD/oInLuPi/yc9ZxBNZF/oC6Ac1hj+1ZDQh3+62+fI9Hyg9169v1O4mAcDoiceuHj7P4Q8Ui5+55TzMZlX9nz/k5PSfG330eXOqUf3G27uWRW8NE94RVd6s28tOHrHPkFS15Vr3eykeAAAECLYHqxhvfuxqV/2HoC4L89rmJSPn3oyls6zCcudVuQHPY86EbIJ0VoBgttM+i2hh/UbuOXb+TCAi3U646Zfv+dpmsnw+BOuXv6ZwHMfLxy89D7YcOjqqUf3mV3aLPfl2Uv9M93sd6vSZNZVf5uCgbAQIETk0gOtRXo/zaY10IWk8X5DMnIEzlz1+/dKk8tQN9QjvuBjRx01EV5QsX/X/PxdtuOaGinuhudgY2yn84+/eRH9suSNdv2QFhPA2cKVPKD63CiKOT0fgzo/7N/+2N8Ye0rawvLhB2jWMsw7a79XT+1e53eSrv7aY7i68nRf7Cmb+DrsUhX8cUMqtqFT9EDV3fmGJqVeurXAQIECCwgMDzbr31A6qN/H1DXyDkN51b8C0x0Mp5GUW0J6B5ygKn4LlIUhf5X7f/JqK/XjQlbVe+x2+p007UKf9gu0yPrKfy69rlOo31+BHhkfJMm6ONv+I0ynEW9hnfQXssi/KF3XrdOxoVe54aRV/tYvNx3XRn8XX8ENX2GWS9GD8/+mWumleUqS7Gzx+kju0gOeUvX7W6Kg8BAgQIHEGgHuXH1qPxrw5+oWhfNM7Ven72eZtYvCegERDu/i1Ob8RS/oJqVD41+hj1zTvZ47e0gHByy+bFet5gGim/bplTwSzy9SQgXERpsTSLBISRUwSFk1H++irlp9TF+BMWy/1spBq6H2FcR2Pe3VXTiZGEl3GNj5G+V62uykOAAAECRxSIm8C4Wa1TfuMyLhrnIs+UX7pd5E8/4iFY6816AhoB4SGOaI/f8gLCUf7m/f4eJ6n8kkMUffCkAsLhSBcNCIfb4/rlVKfx1+z393Ckz1J+46S4bbQqGjF2QN2MdDzkj7NFftmq1FE5CBAgQGBAgXtv2vzAOuV/W6f80JEuhENebNYlr5R/uy7Gd/XNlzjgoVnprHoCGgHhIY5Yj99SAsJ7Hn3b+8z86JPyw3v+1lP+hUMUffCkAsLhSAWEB1vGE6495/9A1504j+Pv7eASLD/F0gaSK/I/X37p7YEAAQIETk0gRn2M/oVV6hsQY84AKgNdSJdxcV5GnlXK/69K46+KX19P7UCtyI57AhoB4SGOTY/fUgLCuij//p6/hWl/sc578Xd8sfykQxR/0KQCwuE4BYSLWVYpP7Dn72Koa1kqf66vifhipRomVZ3yE5ZSt1H5zsmFS3mYUsqFAAECBFZaoLqwOa5H4++uRvlty7qorF2+Kb9OILj3tO0JaASEe4n2fdXjN3hAGE+w65Rf2f57ixECY+CjOuXfbL9fF/m/7VvgJX4oIBwOV0C4mOUk5Tv3nP9DBYTTfMbPO63Re7fT+LPq+NFn0Prs/CC8XWz+r8V0pSJAgACBMyMQF7RqlL+hTvn1y7i4rEWeKb8gfm2tUnrPM3NgB6pIN6CJuc2mT5njSfPB/2/uFmMacKfy7upd/z/o/keN37dO+dunwUvc5ERT3Y38U9VG/tT29vdeHG9OUv53MZfa9IeMlB+sivwrk1H+5mgS3U6733oM2V+PyqfVKb+0Svkt02bU0Q8n5X97fVR+RGxbpXRzq4y75d07SXOVxo/ZmybPBHtdv5giYL+yHeWzSSo/r/t3Vm2Unxh51an8x+3PomXAogMjRdDRqd9HzitflTY/bW/a8vObtFUqP3v6WWc6nGoj/2Rrm0fSN9s1y+2i+NOTIv/Tuiiv16l8zbR1Q5HfPB0wqyh/IPr3LjL6Y2tfzfFM1S3lo+uU/32d8qvrlB/embInP3tSbP75Zv+xvGdj/KHTef1S/o2d8yW/tU7jF8V352Em794uxn92+kNckX+lTvmt0/O4yC+rU/mtzSAeO39Xe/5G7m6+mx75bCP/5J7jOsqv3Vu/ne+yve9Fnim169W3Hn8D8fc4DeCbue2a6WZSfkrzN9K3bfPeI+V819/53fFZWEWZdu3etvt3/Gs7AzMN3zdvt4/dG9pWQ65XKb8qvgeaep/EMua+XWYLn/hbPol62AcBAgQIrKDAy8bj94i5m6oi10NeMFc2r5QfrFP+L6fZhG4FT4OZInUDmsMczziXuhlWo/x77TyqUflldcq/1n6vvR433JFHlcrP3/dpdirfUF8sP7a7v/breGJWpfxNcePf3see9WlQMP6Wvvn8ujfT0xvb1i/0/fUt/087/2UEhDNDzhfj5zf13r55fGOdyre3yxDz0zWf77fsHvv9yj4dxbJtsVH+SJP3IlPgVK30zXZxvCap/No6/lZbefeup/wLVcpzA9bIs7tdjBhZF/n/dt+fvo5zJI3/Xmw3fco0b/TWKFcqf2tS5A9uyt23nE4cHoHnPvWY3uTHQCjF5l/qpmuCzgg+up/1vW7Sdz/bL3iZBsej8pndbfpeVxvlM2J6o766xnt95Zy+Fz/2zDNI5dsnxfiOeXke9f3pD57z9jnE+yk/HD9U3XfhwqOOWsZFtov861T+p7l+Q9Sl9d2xSJmkIUCAAIEzLHDPaHRbDFVexy/XQ1xkViqPPKlH5ZWYWPwMH8LBqtYNCg5zPvQHSHsDwsUGORp/90LNo1J+xX0XLvyJvspPg8GN8hkLl7/IL+6mXcWAMH7Q6JYzfthpG8zcRKbyDYv0f+oe+5MMCKN80XStW7f9Xu88bSs/p1339vrMtosMsHVAENfkGU/T5g0+FcFgNSp/pkl74DKNX9RN0wR4fYFWN228btJ3P5sXEEafsekT+sN8V6f8yuh60DZu1nvLuZj3O4aeHmPnKXD5pq7F4K9T/t0Y2fT6xsafahyGWMZ3Wp3G1+qUXzd4mTvHe3uj/JQhyiwPAgQIEDhjAvGkZPepykuXfTFaSv5F/oOdG8v8pEWbyp2xQ3is6nSDgsMco4UCws4NyWHyn5P2Sl+F61R+3Zz071z0/ZUMCFP+0Xb5ownbAzfc8MfaBtuj8uPaaWI9mp210/Std4/9SQWEEbxvp/J/dsu80OuUH5p3U7vQ9sc5H4v+YHTaPPk4+bYCvN5AqyfvwwSE0SQ3zpsj+aT8m9G8unv+LFrOvn32fW908z/s6+mT5h6nvv0f+70UzYnL/zQZjT9z3g9Ui5R/cuHSh+1ce8vXHLtMC9U9P3uRcklDgAABAudcIAKqScpPrFP5P1a5z2H0K6s28tNjwl5PAo930naDgsPcmPTd2HWbjE7zK/KLqzT++AgErl+6VNap/Pne/USTspSfGP2C4glSNOmbSZfGP9GtcTTn6+tzMw06LpafFM2lo49W9LurR/nZM3nu3kytWkC4Y7W3+Wv00ezWP17PmKb8koP63XWP/ZEDwtF4a9psNJr1tm9MU/nz0xGPN/L31Sl/eVPuOuUn70kX26T8xqjb9Y18afq098Yb3zv6mPYGjtN+hnv7e04N2vtujmmR74+mpu+84YY/sj0afXid8ktm9h1pi/zmamP8RXHeRZ/XbnPh6TZF+QNNHZrl9ZT/XF9+MehPnPPx9DCChghi93si2gR40c9w13Lv30gq39BYxrJ5Atzdd98TwujL2U0Xzbijvk3f3FhOivHfnvbb7Dqm8seb+jbLuQHhRv6pSTH+qHia+ks33fRe1cb4c+umn2Ir36EHa4l9zW0e3NrvjMNxP5t2TRj/RJ3KfxF9faPucR2N61Kcc3FcI6COcy8CyOl3WnRl6A4GddxyHLR9ym9dpfkVm/PIkgABAgRWXCBuJuNGO5pf1in/xzrlF+zbx+ugC9JRP4+bzDT+2RhYZNrPrOfX6hWnXOnidYOCOuUfjBvohf73NCebCQhTfqj75DYGj+lrIlqN8j/rYkXfs/ZNXAwK0k0zPT+751fK3z4vIJr+Kt9Nv/OUZs+AHN2goD8AXl4fwui31K57nfLvz+vHNBmVf2dP2hhafjT+K12r9uvusT9qQNjkucgoo1H+6UA/bf9pgFd+UJNPd1mPxt/YrVvcgM+m60yrk8o3dfvBVRcvfcxMXlGWNL7Wza8aje9pp61S/uWZNJ3zcyd9/upuungd52NdlN/VzrNZbwLCZrtFRxlttm+W3YAwBhBpPmuWcR7Pm3Jn54eY8ueatM2y+1S2NyBM+aURADd1aJYReDb5NMvtNP6rzedDLbeL/Deb/C33/i3E+TSUs3wIECBA4JwLxK++MYJjPJmLX/N3bm7yT09/VY7+Fe2bvEXXYzCHFE1m8i/F05tJyt82HYik2HzcvaNRcc7Jl179nqDgWNNOzASEo/5mSlWR7++eL9G0rVvhad+azrkUv7w36WK97jyZ2q+/V2y3s02+r7v/VXpCuDs6Znewlac19e4u4ynodPTWllU12vyxbrr2655jP3eE1P0GlWnyXCQgrEf5SbPu+496OA2kUidISfm340lis+9YdvOtU/7e9ufNeoxiuydtyg81T9yaNLGMHyja6eLcbn++Ezzlh9pp6lT+3LwfImLbaO4bo9/u2abVZLTJf6iAsC7yc/bsK+XfbZ4KNvvqLnf75HWe9m4+q52uPyDcGaSnnS7Wd0YC3fuke1KML3fTDfE6pl3ZU9/W38N5fX875ar9nTmEszwIECBAgMBcgQgYd5oeTZvwfWQM7R43Du3/u30WPzKaww3dOX9uwXwwV6AnKBg0IOx76heFmQ7x375ZS/nVfYWcNrNqp+vcPE+bAXY+j6ZvfXm135sU+W90bxBXKiDsBCNR1niqEmWc9z+mO9hTpxgdcZ8JqHuO/dIDwpnmiyn/Qvu4zFvvfdKVxh/fTr+n7nFO9Dz1i/QzzYbT+EXtfJr1GBFzT54pP9x8Fsto0rrn8+m5uX9wO90uRj/tnLPLeEIY38cx9UV7X9HSol2HeeuRrr1dnco3tQPwvoAwmsjOyy9Gam3nt6wnVhHMHrm/ZOeYtMu7tuspv766dXxh3nHxPgECBAgQIEDghp6gYNCAcN4w890nTvWcwGCn31+3+dO7+o/1NROLqRgOOrTRx6d7k7cqAeHu075hRhws8nfMs+g59ksPCLtTkETz3Xnla78/HYmxMzVENEVsp5k9nuVntz9v1qd99Fo3/9FPsfmsvayL8nO6ebY/n5kUPeWHmvkE2+m669GXq5vvMgLCyS2bF7v7qUf5sd3y9L2O5sbdbe+5eNstTdr+gHB28Jkmffep6LICwtjf9Dujc65063IuXqf8jklR/rXmGFgSIECAAAECBHoFeoKCYQPC0fhv9e24GxD29c+L7aIvY/fmrX3z3BXPV3IAAB6eSURBVHNT/mDf/vrem2lq2pnU+7T6EE7nz2sFLN36H+p1kd8cg6T01b/n2C89IOw2KZ4U5Zf2la3vvZ2m5e0fB/I/bKfrukTQ0v68We8GhH1zJEbaKpWf3c2zySOWdSr/8Z7PU/lb7c/nrceTtj3bdZ56x3ZDNBntH312fl/Ndnmja0C3jDFgSpOmLyC859G3vU/zeXe5SHPi7jbHeR2j7HbLf95eT4ryHxzH0LYECBAgQIDAORHoCQoGDQjjprqPcrCAcLZZ30N9++t7bxUDwp3+cnNGwjxqkLg7AXvXoOfYLz0g7PZzbI8+2i1f93U3IKxG+Svbabo3/MsPCDujpabyNe3yzFs/qYCwurj5Z7om92yMP3Reudrv9wWE8eNMk6YvIGw+61uedEAYZahT/lfd+p+b1/u0DOg7Pt4jQIAAAQIEzrFAT1CwXgFhDOXeCZT6BqfpHuJVbTIaTby69Tn265Rf0TeoRM+xnx8QjsqntsvR91RtkZv+btPBelT+m+6x6Xvd12S021e0Xb5YX3ZAGAOjtPcZU5/0DU7TrU9MrdHebqes72oGHemHeEIY0x3M7ufgPo6x/+iv2t22/Xe1DgFh/LgyM1Jv57uiW8ez8DrqvN/ARt3z0WsCBAgQIEDgnAv0BAVrFRBO5+rr3OTFFAwHHdZVHVSmGpU/s+emNOU33jMa3TZvIJm+9ydF/qd78tgZkOazuibdOef269dVbZTPaOcZzS67+S0UEI7KZ7bzidGFu/n0ve4bVCaaRLbT7s13+QFhXYw/obvPRfpsTafy6Zyz7WbQUachAsLdp82vb5exGo2/pW02bz3S7d0u/177R4V1CAijbrsG396uy5leT+W3CgbnndXeJ0CAAAECBHoF1j0gjErNNCUsyhfGCIu9FX7XtBPP7d4YnvagMn39JRd9gtau6/TpZ8q/v6d+afyz7TS7bp3Jz/MPdtM0r7uDwfSNVrlIQDgzcucC8yXGDW4Mnb+3PgdPO7HsJ4Qx5153FM/dIf7frXHrLne3OblpJ1L+wb1u5RsOGnQpPp9pTr1RPqNdl3UJCJsyT9L4H+1x6ATka/9Zyu/Y7wedxsGSAAECBAgQIDAjcCYCwiJ/R/eGLvoozvulfF7fotMOCOui/IF2PaIJYrdMMwdwzhvVRn56O69Yn1y49GHt5DODq6T8lr4h6vueztUpf0E7r1hfJCDcnZNuz1OrOuVXx5Pebn7N65iEfqYuo/z1zefNsptm2QFh7LdO+Ye6+61HKzQx/Ub5id3yRdA6r2nrL91003vFAE+z24z/YuMcy3ULCKPM22n8WfVR58td4QCySvn/bW+Un9I+PtYJECBAgAABAgsLdAPCmG8s3lv4f2eOq+4oksseVCYqev2WSxvVKL+texMbc95NRvmT4yY3RtqcFJt/uU7lj3fTNa+7wddJjjJ634Xy1jp1Jjkv8n9b+EB2EvbNzxjzFLaT9U3ZsdPHLz82+uzdd+HCo6L5bZ3yGxujWEag2p6CoMlzkYAw0tbF+K52ftP1lN8Yc1ZG89iYdiP2vROI5p+eTVv+Vt/Iqd10JxEQhnN4zOx7lP97NCkNx5hvNerSF2g12y2jyWhzXOq0+axmP48si/yySSq/JI5jPLWM869K+fa6yC97JM1uENTbXzSNH9NN1+yvb7noudG37ZDv3XtxvFkV+f5u2df1dUyZ0ve3OKSZvAgQIECAAIEzLjATEB7yl/CZIGqUf699c3USAWEcohhivb3fo6zP1CWVd7fz6Zsao+sXN9VHOWV6n1oW4084Sl7NNnXa3G6Xv075wefdeusHNJ9PR7tM+Rf3pFnk+BfldzV5tJeL3vTHk9sqAqZF9tVNk8q3xzxz7f026938TiIgjH1PUvkvu/s+7OtlBoQxWXud8isOW6Zp+pRfEds3xs1yHZ8QNmXfPe+f3G3ueySf7vl5Qq/jqWAMajSvFURTV0sCBAgQIECAwIEC3YDmsDdFM0HUKQWE0yCjp5nk3Pr0PQk5pXkIoxll98lqnfJzDzx4BySoUvn5M/Uvyn/S3qy6sDmui/J3ZtLNvbEdPy/K286jWV80IIz0MYF7PHlafL/TJ5NviSdtzf66y25eJxUQ7gQYPU/h5hv+6mxZhx9ltO0zHdk05V/r7nf/1+Nf7f59N3muc0DY1OHe0aioU/lf9zdoz3u5Aus7rQieFk/Qm3pYEiBAgAABAgSOJXBWAsJAiKBwOnhEyg/Ou8mL5n2TlL+tf9LulNqYJ9VkdJLy3+2Wd5LKz2uX5Sjr0RSwGuXXtvOuUn5Vd8CduOmvU3lvO13veso/NOTk4zFqZRyvKuW39O6vFVBFv7doTrqfQzePkwoIo0wRFE5G+evrIv9BtxyPvE7l2+tUfl3093rkvd06LvMJYWM2bbq6kb+vTvnh7v7br6d9Vzfy0/c91mvaZLSxaC+ri5c+pi7yc9oGK7cegWDK3xuBfbvs1gkQIECAAAECxxaoNsafG80cj/y/87RoUuQvbOcV/fv6ChkBWTvdvCc/O33J9pYvAp2+PJv3YmCUaTBXlNenAW88AUvjF8WInZMif3Ck68u3++QrRv08qIwzfhc2x005Fl1O+5e1jkH07eoGbYvm1U1XXyw/aW8d8u19TQAjmN4u8qdPB5pJ+aXx1HAaTKb8gmpUPvX6xuZHd/Puvo55AWOkw+b/pBh/VDdN3+soT2wT/aHieE2flqb8yujrNRmNvzP64vVt131vpp4p3dxNE6+jyWk7bfQt7Us37ZvaOi6xTV+69nvRR206CE4E2Cn/Zp3yb9dhmPI3NTfzMT9ge/+x3j2nw65xjGV3zsVmn918Iu/ms3nLKpUfVI/G3zj9ESDl100HWomnh2n8s3Uaf01Tznnbx/t9ddgv/WQ0/sx2WWPi+/3Sn8Zn92yMP3Q6b2GR37wyAWEqX1ON8jfoJ3gaZ4R9EiBAgAABAgQIECBw7gSmTbg3xl9UjTZ/rG+wqqUHi6l8QzXK/znmtIwnz+fuAKgwAQIECBAgQIAAAQIEVkEgRijefbr5lLoYP3/fJsGtJs6HChpTfjAGrIongXWx+ZeGah2wCn7KQIAAAQIECBAgQIAAgTMjEFOi1BfLj502644ALuX/Mp1OZNrkNprflm+fCQanfUenTXNfujv1yPdHk/ZoBhzNVAWAZ+b0UBECBAgQIECAAAECBAgQIECAAAECBAgQIECAAAECBAgQIECAAAECBAgQIECAAAECBAgQIECAAAECBAgQIECAAAECBAgQIECAAAECBAgQIECAAAECBAgQIECAAAECBAgQIECAAAECBAgQIECAAAECBAgQIECAAAECBAgQIECAAAECBAgQIECAAAECBAgQIECAAAECBAgQIECAAAECBAgQIECAAAECBAgQIECAAAECBAgQIECAAAECBAgQIECAAAECBAgQIECAAAECBAgQIECAAAECBAgQIECAAAECBAgQIECAAAECBAgQIECAAAECBAgQIECAAAECBAgQIECAAAECBAgQIECAAAECBAgQIECAAAECBAgQIECAAAECBAgQIECAAAECBAgQIECAAAECBAgQIECAAAECBAgQIECAAAECBAgQIECAAAECBAgQIECAAAECBAgQIECAAAECBAgQIECAAAECBAgQIECAAAECBAgQIECAAAECBAgQIECAAAECBAgQIECAAAECBAgQIECAAAECBAgQIECAAAECBAgQIECAAAECBAgQIECAAAECBAgQIECAAAECBAgQIECAAAECBAgQIECAAAECBAgQIECAAAECBAgQIECAAAECBAgQIECAAAECBAgQIECAAAECBAgQIECAAAECBAgQIECAAAECBAgQIECAAAECBAgQIECAAAECBAgQIECAAAECBAgQIECAAAECBAgQIECAAAECBAgQIECAAAECBAgQIECAAAECBAgQIECAAAECBAgQIECAAAECBAgQIECAAAECBAgQIECAAAECBAgQIECAAAECBAgQIECAAAECBAgQIECAAAECBAgQIECAAAECBAgQIECAAAECBAgQIECAAAECBAgQIECAAAECBAgQIECAAAECBAgQIECAAAECBAgQIECAAAECBAgQIECAAAECBAgQIECAAAECBAgQIECAAAECBAgQIECAAAECBAgQIECAAAECBAgQIECAAAECBAgQIECAAAECBAgQIECAAAECBAgQIECAAAECBAgQIECAAAECBAgQIECAAAECBAgQIECAAAECBAgQIECAAAECBAgQIECAAAECBAgQIECAAAECBAgQIECAAAECBAgQIECAAAECBAgQIECAAAECBAgQIECAAAECBAgQIECAAAECBAgQIECAAAECBAgQIECAAAECBAgQIECAAAECBAgQIECAAAECBAgQIECAAAECBAgQIECAAAECBAgQIECAAAECBAgQIECAAAECBAgQIECAAAECBAgQIECAAAECBAgQIECAAAECBAgQIECAAAECBAgQIECAAAECBAgQIECAAAECBAgQIECAAAECBAgQIECAAAECBAgQIECAAAECBAgQIECAAAECBAgQIECAAAECBAgQIECAAAECBAgQIECAAAECBAgQIECAAAECBAgQIECAAAECBAgQIECAAAECBAgQIECAAAECBAgQIECAAAECBAgQIECAAAECBAgQIECAAAECBAgQIECAAAECBAgQIECAAAECBAgQIECAAAECBAgQIECAAAECBAgQIECAAAECBAgQIECAAAECBAgQIECAAAECBAgQIECAAAECBAgQIECAAAECBAgQIECAAAECBAgQIECAAAECBAgQIECAAAECBAgQIECAAAECBAgQIECAAAECBAgQIECAAAECBAgQIECAAAECBAgQIECAAAECBAgQIECAAAECBAgQIECAAAECBAgQIECAAAECBAgQIECAAAECBAgQIECAAAECBAgQIECAAAECBAgQIECAAAECBAgQIECAAAECBAgQIECAAAECBAgQIECAAAECBAgQIECAAAECBAgQIECAAAECBAgQIECAAAECBAgQIECAAAECBAgQIECAAAECBAgQIECAAAECBAgQIECAAAECBAgQIECAAAECBAgQIECAAAECBAgQIECAAAECBAgQIECAAAECBAgQIECAAAECBAgQIECAAAECBAgQIECAAAECBAgQIECAAAECBAgQIECAAAECBAgQIECAAAECBAgQIECAAAECBAgQIECAAAECBAgQIECAAAECBAgQIECAAAECBAgQIECAAAECBAgQIECAAAECBAgQIECAAAECBAgQIECAAAECBAgQIECAAAECBAgQIECAAAECBAgQIECAAAECBAgQIECAAAECBAgQIECAAAECBAgQIECAAAECBAgQIECAAAECBAgQIECAAAECBAgQIECAAAECBAgQIECAAAECBAgQIECAAAECBAgQIECAAAECBAgQIECAAAECBAgQIECAAAECBAgQIECAAAECBAgQIECAAAECBAgQIECAAAECBAgQIECAAAECBAgQIECAAAECBAgQIECAAAECBAgQIECAAAECBAgQIECAAAECBAgQIECAAAECBAgQIECAAAECBAgQIECAAAECBAgQIECAAAECBAgQIECAAAECBAgQIECAAAECBAgQIECAAAECBAgQIECAAAECBAgQIECAAAECBAgQIECAAAECBAgQIECAAAECBAgQIECAAAECBAgQIECAAAECBAgQIECAAAECBAgQIECAAAECBAgQIECAAAECBAgQIECAAAECBAgQIECAAAECBAgQIECAAAECBAgQIECAAAECBAgQIECAAAECBAgQIECAAAECBAgQIECAAAECBAgQIECAAAECBAgQIECAAAECBAgQIECAAAECBAgQIECAAAECBAgQIECAAAECBAgQIECAAAECBAgQIECAAAECBAgQIECAAAECBAgQIECAAAECBAgQIECAAAECBAgQIECAAAECBAgQIECAAAECBAgQIECAAAECBAgQIECAAAECBAgQIECAAAECBAgQIECAAAECBAgQIECAAAECBAgQIECAAAECBAgQIECAAAECBAgQIECAAAECBAgQIECAAAECBAgQIECAAAECBAgQIECAAAECBAgQIECAAAECBAgQIECAAAECBAgQIECAAAECBAgQIECAAAECBAgQIECAAAECBAgQIECAAAECBAgQIECAAAECBAgQIECAAAECBAgQIECAAAECBAgQIECAAAECBAgQIECAAAECBAgQIECAAAECBAgQIECAAAECBAgQIECAAAECBAgQIECAAAECBAgQIECAAAECBAgQIECAAAECBAgQIECAAAECBAgQIECAAAECBAgQIECAAAECBAgQIECAAAECBAgQIECAAAECBAgQIECAAAECBAgQIECAAAECBAgQIECAAAECBAgQIECAAAECBAgQIECAAAECBAgQIECAAAECBAgQIECAAAECBAgQIECAAAECBAgQIECAAAECBAgQIECAAAECBAgQIECAAAECBAgQIECAAAECBAgQIECAAAECBAgQIECAAAECBAgQIECAAAECBAgQIECAAAECBAgQIECAAAECBAgQIECAAAECBAgQIECAAAECBAgQIECAAAECBAgQIECAAAECBAgQIECAAAECBAgQIECAAAECBAgQIECAAAECBAgQIECAAAECBAgQIECAAAECBAgQIECAAAECBAgQIECAAAECBAgQIECAAAECBAgQIECAAAECBAgQIECAAAECBAgQIECAAAECBAgQIECAAAECBAgQIECAAAECBAgQIECAAAECBAgQIECAAAECBAgQIECAAAECBAgQIECAAAECBAgQIECAAAECBAgQIECAAAECBAgQIECAAAECBAgQIECAAAECBAgQIECAAAECBAgQIECAAAECBAgQIECAAAECBAgQIECAAAECBAgQIECAAAECBAgQIECAAAECBAgQIECAAAECBAgQIECAAAECBAgQIECAAAECBAgQIECAAAECBAgQIECAAAECBAgQIECAAAECBAgQIECAAAECBAgQIECAAAECBAgQIECAAAECBAgQIECAAAECBAgQIECAAAECBAgQIECAAAECBAgQIECAAAECBAgQIECAAAECBAgQIECAAAECBAgQIECAAAECBAgQIECAAAECBAgQIECAAAECBAgQIECAAAECBAgQIECAAAECBAgQIECAAAECBAgQIECAAAECBAgQIECAAAECBAgQIECAAAECBAgQIECAAAECBAgQIECAAAECBAgQIECAAAECBAgQIECAAAECBAgQIECAAAECBAgQIECAAAECBAgQIECAAAECBAgQIECAAAECBAgQIECAAAECBAgQIECAAAECBAgQIECAAAECBAgQIECAAAECBAgQIECAAAECBAgQIECAAAECBAgQIECAAAECBAgQIECAAAECBAgQIECAAAECBAgQIECAAAECBAgQIECAAAECBAgQIECAAAECBAgQIECAAAECBAgQIECAAAECBAgQIECAAAECBAgQIECAAAECBAgQIECAAAECBAgQIECAAAECBAgQIECAAAECBAgQIECAAAECBAgQIECAAAECBAgQIECAAAECBAgQIECAAAECBAgQIECAAAECBAgQIECAAAECBAgQIECAAAECBAgQIECAAAECBAgQIECAAAECBAgQIECAAAECBAgQIECAAAECBAgQIECAAAECBAgQIECAAAECBAgQIECAAAECBAgQIECAAAECBAgQIECAAAECBAgQIECAAAECBAgQIECAAAECBAgQIECAAAECBAgQIECAAAECBAgQIECAAAECBAgQIECAAAECBAgQIECAAAECBAgQIECAAAECBAgQIECAAAECBAgQIECAAAECBAgQIECAAAECBAgQIECAAAECBAgQIECAAAECBAgQIECAAAECBAgQIECAAAECBAgQIECAAAECBAgQIECAAAECBAgQIECAAAECBAgQIECAAAECBAgQIECAAAECBAgQIECAAAECBAgQIECAAAECBAgQIECAAAECBAgQIECAAAECBAgQIECAAAECBAgQIECAAAECBAgQIECAAAECBAgQIECAAAECBAgQIECAAAECBAgQIECAAAECBAgQIECAAAECBAgQIECAAAECBAgQIECAAAECBAgQIECAAAECBAgQIECAAAECBAgQIECAAAECBAgQIECAAAECBAgQIECAAAECBAgQIECAAAECBAgQIECAAAECBAgQIECAAAECBAgQIECAAAECBAgQIECAAAECBAgQIECAAAECBAgQIECAAAECBAgQIECAAAECBAgQIECAAAECBAgQIECAAAECBAgQIECAAAECBAgQIECAAAECBAgQIECAAAECBAgQIECAAAECBAgQIECAAAECBAgQIECAAAECBAgQIECAAAECBAgQIECAAAECBAgQIECAAAECBAgQIECAAAECBAgQIECAAAECBAgQIECAAAECBAgQIECAAAECBAgQIECAAAECBAgQIECAAAECBAgQIECAAAECBAgQIECAAAECBAgQIECAAAECBAgQIECAAAECBAgQIECAAAECBAgQIECAAAECBAgQIECAAAECBAgQIECAAAECBAgQIECAAAECBAgQIECAAAECBAgQIECAAAECBAgQIECAAAECBAgQIECAAAECBAgQIECAAAECBAgQIECAAAECBAgQIECAAAECBAgQIECAAAECBAgQIECAAAECBAgQIECAAAECBAgQIECAAAECBAgQIECAAAECBAgQIECAAAECBAgQIECAAAECBAgQIECAAAECBAgQIECAAAECBAgQIECAAAECBAgQIECAAAECBAgQIECAAAECBAgQIECAAAECBAgQIECAAAECBAgQIECAAAECBAgQIECAAAECBAgQIECAAAECBAgQIECAAAECBAgQIECAAAECBAgQIECAAAECBAgQIECAAAECBAgQIECAAAECBAgQIECAAAECBAgQIECAAAECBAgQIECAAAECBAgQIECAAAECBAgQIECAAAECBAgQIECAAAECBAgQIECAAAECBAgQIECAAAECBAgQIECAAAECBAgQIECAAAECBAgQIECAAAECBAgQIECAAAECBAgQIECAAAECBAgQIECAAAECBAgQIECAAAECBAgQIECAAAECBAgQIECAAAECBAgQIECAAAECBAgQIECAAAECBAgQIECAAAECBAgQIECAAAECBAgQIECAAAECBAgQIECAAAECBAgQIECAAAECBAgQIECAAAECBAgQIECAAAECBAgQIECAAAECBAgQIECAAAECBAgQIECAAAECBAgQIECAAAECBAgQIECAAAECBAgQIECAAAECBAgQIECAAAECBAgQIECAAAECBAgQIECAAAECBAgQIECAAAECBAgQIECAAAECBAgQIECAAAECBAgQIECAAAECBAgQIECAAAECBAgQIECAAAECBAgQIECAAAECBAgQIECAAAECBAgQIECAAAECBAgQIECAAAECBAgQIECAAAECBAgQIECAAAECBAgQIECAAAECBAgQIECAAAECBAgQIECAAAECBAgQIECAAAECBAgQIECAAAECBAgQIECAAAECBAgQIECAAAECBAgQIECAAAECBAgQIECAAAECBAgQIECAAAECBAgQIECAAAECBAgQIECAAAECBAgQIECAAAECBAgQIECAAAECBAgQIECAAAECBAgQIECAAAECBAgQIECAAAECBAgQIECAAAECBAgQIECAAAECBAgQIECAAAECBAgQIECAAAECBAgQIECAAAECBAgQIECAAAECBAgQIECAAAECBAgQIECAAAECBAgQIECAAAECBAgQIECAAAECBAgQIECAAAECBAgQIECAAAECBAgQIECAAAECBAgQIECAAAECBAgQIECAAAECBAgQIECAAAECBAgQIECAAAECBAgQIECAAAECBAgQIECAAAECBAgQIECAAAECBAgQIECAAAECBAgQIECAAAECBAgQIECAAAECBAgQIECAAAECBAgQIECAAAECBAgQIECAAAECBAgQIECAAAECBAgQIECAAAECBAgQIECAAAECBAgQIECAAAECBAgQIECAAAECBAgQIECAAAECBAgQIECAAAECBAgQIECAAAECBAgQIECAAAECBAgQIECAAAECBAgQIECAAAECBAgQIECAAAECBAgQIECAAAECBAgQIECAAAECBAgQIECAAAECBAgQIECAAAECBAgQIECAAAECBAgQIECAAAECBAgQIECAAAECBAgQIECAAAECBAgQIECAAAECBAgQIECAAAECBAgQIECAAAECBAgQIECAAAECBAgQIECAAAECBAgQIECAAAECBAgQIECAAAECBAgQIECAAAECBAgQIECAAAECBAgQIECAAAECBAgQIECAAAECBAgQIECAAAECBAgQOLsC/x+mT3y6chhUcAAAAABJRU5ErkJggg==;" parent="d-yFGQFBO1lt44kxvrD7-70" vertex="1">
          <mxGeometry width="170" height="170" as="geometry" />
        </mxCell>
        <mxCell id="d-yFGQFBO1lt44kxvrD7-9" value="" style="shape=image;verticalLabelPosition=bottom;labelBackgroundColor=#ffffff;verticalAlign=top;aspect=fixed;imageAspect=0;image=data:image/png,iVBORw0KGgoAAAANSUhEUgAAAoAAAAC0CAYAAAAEuZ2xAAAgAElEQVR4Aey9DaikR7UuPAzDx+EgIsG4+6fq3RsdvLkiXhHxiIjk+nk1++0xiHj8RCQEEREJ4pUQvCIyIkHEGyQnNyfEOPvt3ByRnCAhBBGREIJICBJCkBBCCCGEIGEIIYQwhGHIx1Ornlqrqt/u3b3/90xt2NT71u9aT1X3enrV34kT9a8iUBGoCFQErhQETp0+ffrdGxsbA+fcJ5xzXx+P/Y+8b+5ybv1B5/wTzvmXnPPnvW/ewb9z8s93Df0/xmP/ovf+L841D3jvf+Vc8z3n3HUbGxsbaOfEiROnrhRgq54VgYpARaAiUBGoCFQEjgICJ9fWPvA+59xHxuPmq+Oxv8259T865593rnnbex8IHgmdED2Nc06fmacsM/supNF7fwnk0LnmD865n3jvPwNZTpw4cfIoAFNlqAhUBCoCFYGKQEWgInDZIACS1TTNp51ztzjnHnbOP+ecf1sJXCJoGfnT9D7SxzLbhfPLOucvgXh67+/13l/vnLvqsgG9KlIRqAhUBCoCFYGKQEXggBE4OR6PPxqnXh8WrxsIn3+HHjxO4SIE0UO8evs0n6RJOj17WlbIHesUwog4+0+CqESQbVIeadtfBBlsmuYXTdO8/4Dxqs1VBCoCFYGKQEWgIlAROJYInBqN4OVrfuG9f8Y5/2ZOzLhuj6SNxKw/JEnL61ASR2IopI8k0q4LVBLJumwZW68QSq3buQZrDX81Ho/dseyJKnRFoCJQEagIVAQqAhWB/UJgNBr982i0/inZaOFfjlOq0csnBIzkK3rZgnfOxtFbJyRMPX2Sn8SOdSlJo/eOpE5JHIkfiSZCjVM5ULemsT2EzC+bTvzNV1999bv2C8Nab0WgIlARqAhUBCoCFYEjj8DGxsY/YQNH0zQ/dc4/LaRPvXskYiRaSuyE3Gk8CVp/WSFn6h3UciSJJIcsb+sXcoe2hSCS1EleSxr5bEhfLCN1xPjHmqb50JHvnCpgRaAiUBGoCFQEKgIVgb1EIB7R8g3v/Z8xvSvEiORLCJaSNiF3llzhOf+3efSZecQTRxLGspKPxI55JWQdCOnx6y+fl2PdeajtS7xz/hVsFKk7hvdyVNW6KgIVgYpARaAiUBE4igicHI83PipHtfgX4O0DeeojYKvElXnx3h9HUkcSNi9fSd4W5yO5E69iWRbkMY8j2fXev+69v7GSwKM4VKtMFYGKQEWgIlARqAjsFoGTo1HzOef8H51r3pjvMSsJmnjfbH6Srb44EjDJk9el+SWe9ZShzcc09URa4mi9gojva8+Sv7xd084bTdPcUEngbodYLV8RqAhUBCoCFYGKwJFAALdkONd8w7nmKfH2CWkSjxgIUR9pmkem8nitQ0iZIVRmnR7L9LXFtiUs68O7xkl5JZYsy/ptSHmkzKyOeVlpx78xHq9/9kh0WhWiIlARqAhUBCoCFYGKwE4QkJs51m9yrnleiZkQIyVWIFgkQxLqO0kUyzCfLaN5IolKawKFuGk6ZVACNz/NlrXPUofKwToRzsptPX+zbdmyfMbVdKPRqNkJ3rVMRaAiUBGoCFQEKgIVgUNDABs7cOduvJljhhgJobLkCISK/yBK/QSLJGmWbM3PT1LGNlkH4+XdlhfvpLbB93nySVlLKucTRluHEkLKxnLO+d/XqeBDG7614YpARaAiUBGoCFQEVkEAV57FWzqetQSLzyA4fFYiZokQyRTj5F3IGONmQxKnZYijrYvEq18WyNrXliWuSLcy9hM8qV/z6buQy7Id53B7yHq7CvY1b0WgIlARqAhUBCoCFYEDReBDH/rQ/+Pc+rdkqhc7eucRoZwEWa8ZSZiSIyFfSo7ysmW+vHxJ3LTs/Po0z/y6ZvNofWWblF/LQN/t8lMv55ongOuBdmRtrCJQEagIVAQqAhWBisASCJxyzrXe+yeday6B3JDgMAShYTzjLBHSOFsWpEm9YywvdQmhYhzrknclWPH2kLfl6jj3rHPuYef8Hd77m51z32ia5nPe+w+Px+MPbmxsvEduH8ENJO9vEDcejz/pnLvOOfctTGd739zlXPMH58J1dG845y+Ip07lJHFU2ZQEzspHXDKZg4c06oQ7jnE+YP2rCFQEKgIVgYpARaAicCQQOOmc+0QkROEMP5IfTomC8DBOn+kNs6F91jJC9vDOdCVTZVwki7gj+CXn3CPOuZ9j1/FwuP6x/bhuDZ650WjjGhA079dvds7/1rnm77jiLRLPKLeV3T7nelIfED9iFnV6sK4FPBLjvQpREagIVAQqAhWBKxuB8XjsnHO323P8SPAYKnnLiY5NJ9HZeZwH4fu79/5eTD977z+ONYiH2Dvwhp52zn053mH8N7nZZOcYgFDCG3mIOtWmKwIVgYpARaAiUBG4khHAXb3e+28655+nx4okTt/hwbJeLHrtchKUE0TNrx4wjZO8Um/08D0wHjffHo/HH8X5gke1TzClDA+kc80PnfOPY7pY8SIuuZ796f6bR1XHKldFoCJQEagIVAQqApcxAs65jzi3/kfnPNalxQOWc1In5C0nNOrdy+Mt0VmUR9bC+edwZRxuEMG5gsdxShTT0Ovr65/tnzIHjrKO0OLC5/HY/+446nwZfxyqahWBikBFoCJQEbi8ERCv3/qP7VSmEDYlLELShMQIkdHNHEIWS/Kn76jLEsBI+C5675/x3t+KTRqQ4TJC+RRu+nDOP616EwPgwg0hDJHmn8YmlcsIg6pKRaAiUBGoCFQEKgJHFIG4ySNMXZqNCbnXj14qDYXcWXKjaX1lmd9jt+5zzvlfYi3f5e7xAqHD2kXvcWSO4CIeVGJkSbJ/fWNjY+OIjpMqVkWgIlARqAhUBCoClwMCkZzA6/c6yEn0ymXTvjlZEQ+W5NP8lgQyv8YFD+Il5/zLTdPch6NksGbucsBvWR2gr/f+fmJMbykwErzEyyrv7hPL1lvzVQQqAhWBikBFoCJQEVgJAWyskGNUrGeKXqm+0HqqhAgKoUFeTaOXS6Y4ccuFf2w89t+Jd96eXEnIyyiz937kXPOaEmPBuHwfj5uvXkZqV1UqAhWBikBFoCJQETgiCJyMO3xxjp3xQNG7p+SvJCckd6WXTzxXJDShzted8+dGo/VPXWnevkV9jE0exE7Js+It+PrvLqqjplUEKgIVgYpARaAiUBFYCYHRaPTe8dh32OFriYiQEXjx7L9OT2q8ev60TCJ+l8bj5kXcvrGxsTG43Nf2rQR8zOy9/5mQvBJbYCjYO9f8dCd11zIVgYpARaAiUBGoCFQESgR4m8dTQtzodYK3jgRuZ3HxmrQncOVavc+2hD17P4mjYUgAZYpcMZd4/8547H+WlaovFYGKQEWgIlARqAhUBHaAwMnxuLkBN00o+SDxsGG+jo/E0JaROMnnXIPbOf40HjdnTpw4cWoHcl1RRXCVnJytaDHPPaqRBFYCeEWNjKpsRaAiUBGoCFQE9hgBHEosd+VyypckTz1/MvUIUsI0ISiWAObEz19wbv1B7/1nqsdvqQ7DmssvOdf8g2TaYsu4SP7eaZrmh0vVWjNVBCoCFYGKQEWgIlARKBHATRrO+d87p7t8ZdrRkj9L/EAASQLLMOS7OB77hyrxK5Ge/w6CjDWRzvk3iG1O/oizrgmsu4Dn41lTKgIVgYpARaAiUBFYgIBz7rT3/ontyd+st48eKW4SQR3Oub/ierbq8VsAepEUyd9d3s/eCwyMcyKYCOCF8Xj8waKq+loRqAhUBCoCFYGKQEVgMQI4esU5/4IhcNntHoiXfyF/QkbEE8UykaBccq551jn35bqjdzHmfanOuVtA8nJMBXuSbAltnP9LPTanD80aVxGoCFQEKgIVgYrAXAS89593zr0q040gdRm5SEeN6HSkEj+SlUgQXwaBueqq0++e21hNWITAKecas+nG4qzPth+cay46t/6tRZXWtIpARWBJBNbarW8d9v/oi92XRpvTz4++OP384My9nxi33UfXJlvvH33x7veeuPZs3Tm3ZF/WbBWBisBiBGSjgVzppsQi90DR88Tpxx5P4AUc4FynIRdjvV0qzlsEoSvxxjuJNtOEpDc4/uUvuJpvu7qXTMexPx/x3uOavwe9b/6M8x+99zdCtiXrqNkqAscXgUHbvTPE/2SqIZ7Dewz73lmGaZPpO6EuEw5blJe6B3juKRPaiXUMJt2lYdu9NWi7N4Zt9+qg7V4cTrpnRm33yGDSnRucmd4y2Nz6yrA99/GrNv+j/uo+vsOuSl4ROHAEnFv/Mq4ZU1Kh07sap54nEkBJk/imaZ4aj9c/W4902ZPuO+mcT7t+2Qf5dLD2EfIOh+sf24uWNzY2/mk89rc552fGg3MNpvWfiUf37EVztY6KwNFEQEgbSVokgobEkdSBqPGZYUbeDLljOsN5+VJ8IIoLyCZJppDIS4NAEqfnh23310Hb3Tlop18dnbm3OZoIV6kqAhWBw0Ygev5mjD1Jx3ahc80FHBWzh96nw4bkSLTvnPvJdtgj3Tn/0ng8/uReCB3JH66bu7S4bf9G0zRf2Ys2ax0VgSOJQEbsorcuETOQvkmXiF8WT8IXQ5C9RPiYFojbHO8iSd2ccDAn3spA2VPbbffcYDK9Y3Bd17ov/OaqE2fPXrGXqh/JwVaFqggcAgKR/L1JY5979nSHb388dvf6v+0V+TgE9Y96k6ecczc5557FMTDxEOi3nWtwDd9b47F/Ebd+OOeu2itFxmP/I0v+bL/rc9oE9Hqd6t8r5Gs9Rw6BQJ4y4qdeQE7ZJmLXQ8rKNBC3Mq4kbau+h+njrO3osQwEFVPLhfcwyDB9eTDpurV260xYS3jkkK8CVQQqAvuNQNM0n5YNHzqVSCIoIQy9puXTjzjM2d1evX773UuhfhDB0865a7FJB//j8fije73bd2NjY8M5/3I+BvRHQB6fSOB9B4JAbaQicNAI0Is2Q8p6SZUSr1DOkLJAJOkNnCGUSip7PXthaldJHLyOM/KYtvrSAvGck2fQds8MJ92t7rp7P1K9ggc9wmp7FYHDQQCeG0wdwqgXxM4c+SJr+3LDzynH5qv1aJfD6bv9ahUbPHRTj+17rv3UHwMcN7jOb6+J6H7pV+utCKyEQPDWkbhZ0mefSaxMHL18GgqBo7dO6mUcpoeV4GUELsaXxJDlQ7kWXkVMR/d7+2x9gQjG6WjWkdLb7rXBZve70XXnPl2J4ErDpGauCBwrBGSHaTjk2ZA9Ne7i9SMBEC8g43CgM3aHHiuFq7BLIeBcc4/9MVASfyF9dpwEL+ClugRgKXhrpuOGgJ3mDev9AslSDxxIlJCqJad201rA6C1M5NLUmaaJY1wgdzF/5v1juuxUFvkQl+cNMhYEMxHHkDfWE4ls2ESyufUQjps5bv1V5a0IVAQWI4DbJXCch07tcipPQnp2GIpHiGn+flwPt7iFmnpcEfC+eYj9LkfL6NjgsUBIZx56C8fjuhnkuPZ5lXsBAsFLRg8fN3yAtIV/eu0i4erxrEl5swEkEkghZZF4sT7Wb9qjdy7Uk8gjySbK53WX+YTAqnyBHJp6mB6mlSMZFd1CvW8P2+k9dQfxggFSkyoCxwsBnO12k3P+Io23GHQSPHvGHDyAjMeOUH9bvcbteHX2qtI6t/4gfhjIv/UAYxwwPiwBSHkwjuqRMKsiXfMfCwRAhhKJM2SL6/Ds1Kzks9O6LCtTtCRz2JSBvDY/25mJV69cWPfXl94Xl9oKhLP/jMFF5ehNDHkm3SvDyfTbG9d2/3QsOq0KWRGoCPQigI0Dzvl0u4R696xXh1N8ad3X2977W+t6v15IL6tIHOVDD18ZYqxonPw4iD8QLo1Go2suKyCqMhUBIBCIFD1j9Mwljx09gDG0+eIzCBTqYGjrk3V7TLd5JE5378Z3kjnKEd4LIskp4iQLyvK/p41QFzyaRhc+sw55v7TWdg8Orus26sioCFQEjh8CWKjvnP8TjXhu0En6SAQZwlPY/KIe7Hz8+nsnEjvnrsNRM7o8gOOC5I8h44M38Pn642AnaNcyRx6B5CUjGSL5Kt9LkhfzZcRv1Ti2ZUJ6HBkGcsl6t8kXyCfkNPlSXCR9QV+uIZyJC+sdnx+23XV1k8iRH7pVwIpAhkDTNDfo+W6zhrxnjRemfe/CwcBZRfXlskUA9zY71zzBHwnLhf4Hly0gVbErGwEhRJzWVS+ZEEP1qAVvXpzWJeljXCBpfYQxEDHj3ZtDIqU8Zcjz2zSSuTIsCR/eE9GDXIHoxXrtsyWWkQxKe90bw0n3/XoP8ZX92ajaHx8EZONH86IY9Jz8iSeQa/1knVfM9+e9PGD4+KB1ZUs6GjWfwyHTGANc98cfB+oZlDHknH/89OnT9drRK3vIXL7aC5kypMt6xSypMwTJErCw27YgdiSINh+fF6Uhz3bprCcLeURMj+fP5guksNSjfKcM7fTi2mb3q7ou8PId+1WzyweB8dh/R705NN46jVcaeOf8K/WGh8un/1fVxDn3DZJAjg0dP2HaF/cBP4XDqVetu+avCBwbBCxBWuaZ3rW+vNw4ktICgTTk0nrcLFkzJKz05qW6QMyK8nxHHvucymT1zsohaweN1zPUn+cbtN1dlQQem+FcBb0yETjlvX/SGvB5z+LxwfVuzfeuTKiq1kQAZ/s55x91zr+OpQNxbGD3+Mve+1/hLEnmrWFF4LJEQDxuQnrozQuEynr/gldMDmGW41TiFKslWMVzIGRFXCBmJi4RNUMGt5tWLsv0egxNG73pJJIxn82TEcmQHtYF3lFJ4GU5/KtSlwEC3vuP05ujU3jBi2N2dao30Dn/wtVXX/2uy0D1qsLuEcAVdB/BfdG4JSReQzfafbW1horAMUCAO2hBfMSDBzJYeMECAZR4zRPX7OHomETg8BzPEIz1kWAiXspKO4wPZLNoT9uXMlqWdcT46GG06aG+sFZRPXuoT2Skbka/7LgaxjNMRPfiYHP6y7om8BgM6CriFYcAvHnc8csQHkA88z16dyIh9D+74kCqClcEKgIVgRIBEDHrAUsetpkNH8wn5Ch4C1NZpulGDutNDAQMeelJTFOtLIc6lXRRBiGlShj13ZI702YkqtJOXh/JpxBOnhvIA69JWvMylCng03ZvD9vuO3V3cDmC6ntF4HARcM7dvc2Ub7rZQfL5zxyuxLX1ikBFoCJwBBCgxyyQLjPt20cKQayEQJEw6aYNzU9Sp2m2biGGQrRQJnjvetrV+rSe+XGoL9ZpDrMO7VJmQ2hFDykTZDCeRN4SEsKi7FrbvT5sp9V4HIFxW0WoCBAB55o/5AQw9/zRGyhh807d/EHkalgRqAhc0Qjk5ExIVIoLN3qot80SMOTpex+03Z24VWMn/4PJ9CeDtrtt0G7dP2i7JwZt99Kg7V4btNOLlszZtnNPo8qa8mMdnyGYPBImyJ7WABpiW3oiUTbmQzhou2fXPv9/612hV/Snpip/lBDw3v+2bycnCR+ngUkSm6b59FGSv8pSEagIVAQOBQElcT2eO0ucojfMki+SLFvHWrt1Zq8UGX3x7n8ebG59CHWutdOfDTe7Rwdt949h210Kbc+Rj3LloSG3JckLujGdYUEcqX/wJG7du1c61noqAhWB3SHgXPNTkj2SPIbcFMIw5rtndy3W0hWBikBF4DJAgBsoSOIYgjzZ5/xdyKKstTNet7Z7Zy8J4Ay81549tTbZev9wsvWNYdv9PkzJkphtGyqx41S2JYh9cUwPehrSOJhML65Ntj43I1+NqAhUBA4cgfX19c96798m6aM3sPT8kQRix/B43HzlwAWtDVYEKgIVgaOEQEnySHrCtGeYPlUiODevIV/7SgAtcNeePeW+8JvTa5vdjwZt92KS28jCuFlyRzLIkDugNUTZ2XIgu1Jm0HZPw0NpRarPFYGKwMEjgKvcnPNPy65fHPeCg6Dz20BIDkkK5ew3dxNuEDl4iWuLFYGKQEXgCCBgSY7s7KVHLxKdHkJFYhVIUpyGBTnE/4ERQIPde77UvWetnX5vsNm9QoJmZSyf7Y7gMs2+W2xsPJ4Hk+4S2jRi1MeKQEXgkBDw3l/vXHNJiF4/+YvTv+H6L3nG4b/+UVwNVongIXVcbbYiUBE4PARIbED++jx8JHYpX5galrwsY4nSYRBAoofNGcMz03sGk+4CdSnDQN56ro6zOlDXsOkj6suNIKwv1DOZPj/64t31tHh2QA0rAoeIgHPNPfTw0QPIad9I+NK5gEIUeTg0dg03f/Xef3dD/v7pENWoTVcEKgIVgYNBQAgNvX0IecQL4zgVKu+JHAXPIOOY93A8gBlSZ8+eHE2m1w8m0+dFVshm5ZR36A3Sl3sDdSOM6mnLqnc0rp28NJx038/ary8VgYrAoSCwsbHxHuf8gzIVnN8HDCLIeCWJMl3MeJBG5/ybzrlHxmP/I+/9Z8bjsTtx4sSpQ1GoNloRqAhUBPYTgZzokOxYYsQ4hroOLpQtjlk5TA+gxWn0xe6a4aR7FDImksfjXMy0tnr+RD96NYmLppP85eFa2z2FKWjbdn2uCFQEDgcB3N/qvb/X++aikr7M01ccCs01gyCIzCfPznncC/uSc81juBt2PG5ucM59YmNjY3DixImTh6NhbbUiUBGoCOwRAoEgpeNUekgeCR7ypGe5FxieteAJS+Wnh7IGcB4U7gu/uWrQdr/Ppm2TrFZXc+SLJYkhLz2icYq8SJcdwdPr58lwmPHYpDLevMeN2+6jwzNbH7P/iLtq8x5XN7JoD2E6P+wyL7ACbldf/5vTGE+auz4dVQSwKWQ8br7vnH8jevV6pn7lsGh6Axnq1HCYFs7KiaewedM5/wo2nXjv78cRNM6tf300Wv9U9BZWYnhUB0aVqyJQEcgREE8XydDsFGhJ8OLUpxC/MF0sHjFOJR8VDyC1DGcJttOHk0cvEcAod8/NIX1ev6CfIX8klcFjOJk+cKj3BF979tTgum5jbdJ9bYiDtCfdHwdt98Kw7d4YTKZvDtruwnDSXRgylDWSF2LaG2EXdTv9M+47xhE74/beD37oX//z8twdiSUCX7z7n0eTrU+N2un31ibT+wZt9/ignb4a8Jh0b2ENacDLhAPEA892+vIA51FOujtHm9034Wne074/e/ZkuG5wL0J+CPY63AvZWMdey6b1nXTOfQSbPJzzcXOIevtIDJXw2TT7rDuK6VGU9YUa732DzSRvy/Rx86pz7q/ONfc1TfNTeA1x8LT3fhQ3mmA6uZJE7af6VBGoCBwWAiRGwROY1srpNKesk6PHj5s/uH7Okj9ZK3jUCCBwDZ7ASbhZxGx04ZTvLOnFzSEkeMQH7ykuksgU13av++vPjQ6sD8+ePQmdRpvTzw8nW3cPQfbCZhXxyNoNK0FGQ9SpW+hXowf7nzriFpZhO70H/RluPoHBPqZ/ILPhyCAQvrb7kxA59D/7VELRnXE61jWfxtkfRiDQg7a7C2dD7sZLODjTXRs91r8fTILnWkI88x8ebT4znBe3ufWhve4yeJQH7da9eyLfpPv96IvTz++1jEV9J3Hmn3P+CZA0ED5d82enfDNCZ6aJZS0hiaJ4Cncc94Zz/u/jsX/IOXc7vJTYvTwabVyztvaB950+ffrddb1h0Xv1tSJQEdg/BMJOVxAB493SuOgZRBr/g9EkIaTnkETwaE0BW9TWJr/58GCCY2JgxJXgkjghzNIKT2FImykrRDjidaNtbz+eQWSG7bmPj9ruzuDho8xmTSP1yK6/60kXYi8kyBIcwaDs1+6l0aS7832TrU9tXNsdmx2SmNKFR3PQBo/oW8RGSLGQOcYFvQNRjlP+cYzkY0VwAfnLypmxMph0z+FKQxDO4MlbYSAMNqc3kIDb+oNsRp6Qx7yXedP7PtxbHdfW4nrGhEEms8EiyM2xF+NFdl1WMTzTfWcFiHacNU4Lf1U8gs1bdr2fkEIhgySHQvRKgmg9g5om5FBIoXoJWZ8NlWTa9mObr8lZhrjX2N/VNM33cDwNyWElhjvu+lqwIlARmIdA+CKnMQlf1ubLORo6TokypIHJvvjjF/1R9ABSd9xPjDV7lJ+kFxhYgxbSjYFL+ZMxU+Mn5C+Qid+vavAp17ah3IDyucHm1kPDMKVr2jcyWR3sc5AR+YxOIZ39buKhaypbprdhGvSP8Dwe5SliEL/BZOvm4aR7ZjCZXrK6Jv3Y59S90JUYMCzHAOKZNhOKN/bVYbt1u7v+N6e37d+YYXBmegPbYZ3ybgmneY4y4HNYfjZDX+8jAUxyQtfoSRVMKEvxo5LjNIbpu6M9GALIPsA0LHb3xiNjXsqJnnr2LEFTr6Elc/OfLYnU+rXu3Jso9TDOTk3HeuA1fN45/5hz7m4cVYMp5brekD1aw4pARWDHCARvBgxJ+mLuIQqBPJRTY/SY5QbpKBNAeK+GYX2c6Ji8EdQ9GjMaNxrfYIxJFGLePA88n93r++EdG35h62MgfoO2eysadfW8JLljHxhCQPnorWLIeIRJf+hmSATzBmLRozfWFMKrhnV0Ox54+1Aw9O+Z7juDtnsuEYzUX3H8Wn3orUIY4oFjPp6386QGPFk+1Ben4UO74fkVkNFlCDM8gKm+4I2c/YxRLwlF1tnn+ANhHwkg5UjjKOFsZc7lo5z8rom6HogHsGe4ncS6PO/915xzD+BmECF6SsiUvMm0MYkgyRrTGebpSvhsOsva0KbzmSEJofUsOucvYCOK982TkRR+E+sd62HWPb1coyoCFYH5CIQvYRIJGkS8R0Npv+iZFwRhJj7mP8oEEChgGhOL/aPxCcSHuib9ApEyRIB4kDwYbKynZnDm3k/MR3q1lLB5ZTL9CYifeFZin6DtHqIn+kTDn/qTJM/EG7JPfcuyMNAkvZl+sV3kD/0fSOnW7Vdt/gfWLh3qH3Y1DybTvwwn04siG4mI4pX0Lfs3Yiq4RjJIXZlWYGpxYX+EcZT6h6QyeHY6fLUAACAASURBVMhwXuSj2GG8CKRAAKNsqX7UF9veLqTeCOPzZxa1t5M0TgHPk0XaBubF54f4hR9ZRqcD9gDO0flUPD7ma+Ox/51z/rxsHJEpW3oDQcr4TAInxExJI+MZLpPOvAjL+hknhJA7k633MexmxiaUt3BkDeT33n+zegjn9HSNrghUBBSB4PGIX9bJcCSDw+kcfGHrF3owLiEP4jQez0edAELzYds9GHQNxiiXX70TJAJMF6OapRsiLF6zPTgU+uzZkyCSg83uSRrRWHcgAuwjkZ+yCSHri4OhRjzJTXhO/RvLZX0o3mDmk7LaTmn4kQ6P2+jMuU/v2xS4DteZJ3j9BpvTW4Ygyqk/9AdKpkeaqiy8dGH8x/4tnql/qDvhxrEAXG05kk7FS/ou9c+rw7a7bh5OQgBRVsrbstKPhjglWTQu9AXLSp/vCwEctN1rxIP4clzw3eJWpokuEaMDWgM4M3AWRMCT5py71nt/q/f+Sbk3OFwbZzaHKOkjadMwkLJsswk9egxJ+oQg5t5CzSPx9l2fLVmU9linkMYg7+Pe+x977z+MNZALVK5Jlz8CpzCu+X/5q1s1XAoBfjnT6NgwGSBDEIJ3CIY0EkAxOmqEjgkBvG7YylpAeFqU1M0acOIz1+CRYIVw6/6lQJ+XCce5tN2NwwkMrGIa+iFM0UZiEGTOiQfzMwxGtqjDpole0o9lH4aygQgF75UepB0Is5UretfQDo5I2dy6aZmpznnqrxp/ddsNsGu21FV0034t9ea4tvlKDFAmkBiD4aJ2bJ1sz8bxcxWP3rmxjwRiDSDLIr99pqwSWgJLOSOhivIG2fdpCngw6V6jHHmIsRHliOPHppd4Bv2OIAEsxuHJpmnePx432EByRySE8BAGMihHwlgyyHiNE2KmZE7KzstXlsM785ZhmZfpjE9E9KL3/i/jsf9O9QwWvXsZvmI3OTYPOee+jB8ATdPcMx43D3nf/Jn/4ulufoEd8shblw9chgNhGZXEy5QbD/nSli9zMUJIZx6G8cveeEyQ5zgQQJAUOebE6qLEJulKohWMKj2CauRKgzZsu2eXwbw3z9mzJ9fa6c/CmX1h2o+yMaSh15DGFX2ksiA/y5Sh1ZHPQiRZV9b3hgT2xWuctD9ou7cHbXfb1dfe+a5eHfcwEru6h/FoH+qrGGgfQUaJJxaapvmJmQ01H+vXULATgscybEemP7VuyUtvLuoYtNOH+w7gljWAtj9iO5ZMZZ+3SNDZTwjjD4XQ/j4RQPmBIniiHeoa8IjycWwgjumUjWkBz6NPALNRC0MJgwlCOB77O+XMvzBlnBFCkDwliSRkEtJTqB47EDclb6VXME/TfFpe67ftWqLJeOf8y1Huj9TzCLOuPdYvIPbxuKNzzjVP4UzK6AnOvNZ9YxIHpmN3vPf+O1gKcayBqMKvhkD4EjbrjNTrEA1X+gLPvQ76Ja6eFsQdBwIIhLBDkzoEnaMRRZzFgEZeQmASDPjMuqxoCN/YyXo4EFI52kV3KGt7JBZicCmflZF6SJrJF8iA6mPrlDLRAxh1FhzY7xqyHNelpZDepkQ4g6yXcE5cH8FZbWTOzx2O9Gm7ZyyxKHUn4VJZFRfihTToBr3lvydP0i2mxc9KajuUZZpOtYs8FkPpx0HbPX01jojp+eMmEJEJdc7Kw34L4zDKLp9hyS99FT+r+0QA6QFM48LKCXzMD5h8nAoZlLiE2WFtAunpgdWjMLW6sbGx4Zy7DlPGzjV/8t6fL8mZkD6QQkvW9Jn5aaBtPiWASv6Yj+VyY2/rlTJlfuea17ATGt7N1bWuJY4CAldfffW7vPdfkhtp/Mt64Hk+znT8cFxgTNixJPEo71zzLNaQVo/gUejhA5CBxlANixqtYMQKYhSMU/zVz2fNdzw8gIB1cF3X5rrnei9MS5gYAy2elwvYjLBSt2HNH27gaDtsFFBiOacNkWt+vpzIaD4a66yNNL2p+WxfEoNQZ5BH8tGoCwnSssw3aKeX1trpfSvhsGTm97b3fhBrDkWP6JUFCUvyGXkShtq3lrgl/Yp8dlwzj+KidWmctpniyjrlM/MsblmZpyoIYJCvp6yVI7WR+k9kmtFtvwhgyyngOe2m/lCs5mE6PBqbQOZ1ycrxMJzOuatwZ7Bz7hbv/YPYVKJETQ3vorhZwqYeRUsOmY9xeC/j+sgh8znnX8OB1MfN4IN4e+8/D68VSNCV5LnC7vXx2P/MOf8C7qvWcWTXhZLsMS4fdzJe+uPkDmz3wMbGRr3jfuVvgGNWgJsD0q/29AseX97iHQnGx8QHz0lmpHSa57h4AMPtIOFqNHos1FgFvYMXw8blz4EEZRiEei6OJivcC4xp383uRwOuR7QEsDDuJQGY957IWVkXZDU6MR89ZfPqS2Vmdc3q0/KRDAXCs/WLvbwmDTeSDNvp3+nVQ5v2OciQrekUWWS8Ri9f1EP6T/qUxElCljGkLuLGfNJO9GYFPXVsIE+WL/YDrpAbnbm3WfT1oAQwyoUxQHmTDLEt0x+pvSwujMd92QQSpoDNWGLfpzEVx24pV3oPekU9jtkU8KL+W5B2cjwef3A8br4dd+ni/MG3vJcr6oSM0QvDUIxzSeZI9PpInfXqSDrqKuvJjT7rcc494pzr9Uwv0Ougk7Ae80M4+qY8tkemPP0vQb4PWqgDau8UjvoZj5sOxwCx37SfSfQ4fvCufc1x0xeHOlgf8jGv9/7RSgIPqHcPq5lgQI3h4Je5DbMv7pKYFIbguBBATLuuTbqnrJ7znmnYEAKLGdIRDVrM9+1l+3L0xe5LONgZ7bKNRLhKnM172X4oy35gyPzxnWWyvDFPX1zAoqyLhMvEs96Z/CBisiZwT25Ikd2+4SBs9ZJS/oz0KRkr+7OUNWFOrOaFsf55+ct6U7sJ++6l4Zmtj203LsImEIMt6pE249Qy5EufVSX06t0tdN8nDyAIYNIxYEbSjPb5+bBxRg9iTD0uMw/gdn2MdHjbhsP1j2FTRpy+w0HPwajToIsRVgNOA22NteZVr1+ZT/KXU4JCDtTQC1GERwmHZC+jw0HnATmVw7ubNy2JIQYMsf7tMpvWPrm+vv4x79d/51zzlvRn6q9A8PN+FDIneOTjh2UVv/505kOIHyz1FpqDHu0H2F4wHpbUiOEWomO9SCY+GCYYKn6JR2KE9+NCALELE/eZWh2SUaMRDoY/GlrqS51THuPxCXm2frxM92EdGDaiCKGMdcS6A+G2z9HwS7waeRKPPL+mJ31I3NhP0QiHcqFu6UvUxzqlj6MXjDpjPIRnhkKIbV6OJ8YNznSv4vq6ZTCZm+fs2ZPDze5HwwmmyUW/JHt4J9lgGMcmZE39FHFJuhicmK/03rHPLW6sz2AaMCF2Jh1tw/O37PmQwQMY+gN6ROxN27nOkN+OPequ5Yb7SAA5TiBTKRfTOFZCesLdyCe6Hus1gHPH7AoJ8LLgdo94ZMuj9G5ZQ2yfxYDTeDNUw8+8auiFMCA+j7PvUo9z/h84AmcF8fc1a5xOv8U592pJdEpdqB/uWx4MNjb2VbD9r/ykevyasKGD+rF/5d32IccA+jIfF4qdxmucLcdnCTEdjA1P+69ubeFQEEhf1nG6l14Ohmpwo7GngQvkyBjRaJiPDQEsN4LQgEfDDlxo2BQj1TfDx5Rdm3S/2rYjw7o/480ipiQVpj62zZD9IQQrEIzMIyZyi5z2mflt+USOgiGWutgO9OMzy4T6Yj9n9VF+EzJvrOPPV//rzncG4/Bu3LQSCVWQq5QtyBjbD2n2Gbpk/drTj8hP3HvKzsWgwIPjIspwHtfmbTseYgZeBWd1m3mOMgrxYp8pqWL+IMd+EsBMb5BAjjl9tngyXcaNyntQdwEv2weHnS+uITyNhfjOuYdlhyaNsRp7GO+cACUCl8VbI8/8DHNCIV5EpGGn8BHwosHz9Vnn/BPc3GB1IQmiLjYUHdzD2CRx2P25k/axo9c5d3s8kDxNz1rCZ/UtsbDvgtnyY0Pa0LEQ35+o50jupCePQRl6wIJB4Zq/9GsdBibukgyGx3xxGwNA44jwmBHAH0N/8VoZj2ahqzVeQddAFiIWCSt5H026brtuX2u7rw/Cpg8lIlKvwTcSEsaTWIT3HnJGj5Hk03qExMY+DB4802Y02lInymg5xHFMsM2QbsqoTFo2tGfwAbaDSXdp1E6/tx0ufekgjoNJ9xhlCH1VyBnSglyxL/vSMV5TX5GsiI6sW0LBQHATUmjjpa0cp7x8bKftXgvk7+zZk3169cWlNYChn4o2DO5oT+UTD5wQPu0HkXO659N5uAkkHARNLEsPIOP5/cDPl5WZaaLnFe8B7BsLiAMZjMd7fBvn+HHNILw7JADi6bFenRnjnQgEy5Shrc+k/fGwjom56qrT7/YeZy7mU55KbIT8UlZ6u+Q96Y+zD787D9sjGn/KueZ7IODUrdAprc/L063XTscC8SKp4zvL8l1DYGfrwnPA863RaP1IXfu5n/2H8Qd9cU1k0zTfR5/geTgcYhnPqf1s+8DrFqMfjV4wnDQ8GorRhdEUA6tGmFNszHvcCGD3HRhO1U+MtxhX1QnvyKN6RwNcGr9J986oXUwA4+aTl5Q8RZJRGs4ewhI8dsagkngkMhB0MQRP6rgk18l1bwwm2T+umLvIOkLfzugj2FB/5g3vIMnJkBsPm43LSEv3j+02QfQNfuwSBYFE2+wnhnlcobfBIsMn60sSQe3bsG5xMn1zgIOt8S+YXYAMgoPqLTigLGWLZKzt3trJDyFZA2jGXcIScYyX0I5FfoZLPfdrCtgeAyNtJr3Td0Tom4C1fG/YsSPPUZ8rYxNI39BeNQ53F384boB4DUac5EAJnHp6hBQpGbCeoD7ClMcFgnXRufWvryrkLvNj2vPauLuV5CMQWJVPSInVz+IgZIcEcf25tbUPvG+XMh1EcWzwgN5Pz5Iz9KH2o5C1RHITuUceHRPQn0SO40TfmdcSP8Zp+9Iu63Su+eFeAYElDzik2rnmPufcs9Lf7mFsktrY2Bgc9A+P0Wj0z977jzvnfh7PUHw7vwoyYYsrF1/BcU9Rzr2C5PDqUcMiX9ThCz2QEZIeGz9j6IJXhQYZ4U4M32Fpnxnc5EGiwRKjpvjQACNd/kkANE8gkPjlPPdvre1+iCNfWFa9i6b+nDiF9sTQknzYvlFZgtEVL+6bw83uyXC8zKT7MjYgjDfvcbg5A//vvf7cCHGjze5La2fC4dNPRMKjJCuOAejG/qXemb5IT+Q1EoH0Q8KW7d5Z21xietwgN/ri3e8dtN0z2p5ipDJJnOJpZWBfss9YHmH8B0nZ7F5Za7sHh5Pu+2uTrc/By5Vh1Z77OG5oCXna6XnioARY68VNH2uT7mtGjaUfwxSw/eyxD1Jc/vlTj6a0H/oh9oU8748HUHYBW5xlTagdB4qRGR+QLf7IkLzdO3UKeOnhkTKORqPGOex4xXo9GCchPNaI05DbcJYUJMNmyJYSBky/HtTxMHGt38/jncaRwFCWPhJEksdQdSFpETzctxJwR/BBzpBs7nGueVv6UfXJySyxQLr8k8Dlfaz5tLzUqe8loRRyqONDSLbUK/Vh9/Eu4Qs36jjX/BR3VlvZrT4y7e1uOYDdxyeBvff+ByDelIchx5DFQPELeB7ZDVMr9ZN8UYsxFKNKYybGM/NuJC8EDWoZHj8CCP1hjJSIkWTlugEbyWfxyfMEUtFO/zyvA3CMyaDtXiDmwQhmZE/qE+OIZ20rtJ08QpDZth2JVtu9MWyn94yuO/fpla5kwxV0uH+47e6Cd4fkijqTaKBNla2UwcpDomLixBv05nv/x7nRPHzKeHj/SCSImX1XWSwZEY8q8Qoys48NnrG+Z0Zntm5a2jMpazc/JDhN30xkJtYbbnGZbH2j1GPZd0wBl3VSX+0TYmrGRiTpob/CcxzD+7QGkGMkyBT6VWQRGVUuyq7jOBLAMI7jZ656AJcdHjP5cLSM7IztPxZEjJkYeyUJJA8w7DT88wgBbpPwu9vANSP1TASOyPnkeOz/ojL2yZMTG6sbjTYNtH0fj/1DR3HaDsTae3/jeOxfpNzUn/Kzf5iu8X1Y0MM3P2T9EubjQupGXI49y2AX8kzPLRkRSe4vnGv+QR3KEO3k+vpH9+tYIjlKqLndyqN6zsevR+ZXsJt/SRiOZjYxovmXdjCe0ZOAL3G+M2QcQ6lDjP5x8gAO2+4HYqRy/VeJo2GWMoF8zCWAdjozYBeNdSobDePsOwgeDT9CIXxZXNv9dW2z++Suzt3Dblvxdj2Cw5xFRtuuPGft0pgb+SQ9l5lxw3a5XdJyXd/07ypDXp9glMelNowszCchdeneGk66W0HId/SpvPbsKazvGyYyHzy/FzCedoM/N4GUMvPzhXg+M1wYt18EMB4ETRkYLpTFyG7zXW4HQe9oPO2u0CkchIx1Y2q81YirYdtZHNY/7U68haVP4RBqHEatsqu3ai/inPPPH4A3aaGSZaIcaeMf9F4OcdY+UvIhcdpnIB/z82m5/co3HvuVPYBxavVm6/GjfJbsadyMvs9jJ3SJ307fhYj6O5xrXkWb2u4sfiXWeJ8j8/HeICPryuj1miVC1tMkz5JHPCt5fpChY0UAw9Ei4jEKOJTEIXrZMgyyPOJ5gkFL/233274BiqvRhm3315CP3juzji6QF5Jutmvrjc+pD5gXhnXSndvJFXR9ciIOdQ0m0zvC7SSQJU7bqSfH6Dsjo5BTa+QVv0DYnseZfvPaZvza5tZnQx2pfjPWEn4mjvmCvJRP00FSghzt9PwaDuu+9uyuF/PGW0lewLrB3ZI/6K2bQOKYND++0vhK40DHHgmYhpEo7iMBFDyFgLPdTMY4PpmP44F5GVYCyBG/uxD3EzdN85QaNRpTCWnQxIghjv80fnl+MZDB6N2zO8n6S49G78c0Nm5JCTdZUL5Z+Uv5+I5QjDJ0kvKqE421nK/ol5516Jd2z2JB1r8Z15ElAiJYi15G7l7CZ/POPrMPAx4XnPN/c87/Pv5fKvOzrTI+f2ed/uZVUMCxRrH90K7tX1u/jS/lQRqO9MFGqFXaLvOePh02Ff0YHr+8PdHNxqlss4RPxlteRmRsdjzrU8p64O/ZlzY8S4ZYhC/t4pe75o/GNRljMTrHigCa+4B7CSBJhQ2pr40zz/N2Accp1rcUv+2J50xe007oG6wlnEzvWIZQrTywMN3ZdrfJFXUkVHPCMDU8m6bET9MiWbpuO3lwldzSfWJxWdA/OEpm2TP5tpOP6YPNrQ8NNqe34FxJxu00DFPAVhf7TL34+UTIOObDO39USPq+7AKeOQiaMkGO9BwJdxYXxwHlDvJ2dRfwTgdMUQ5rA733T84zaDRuMLSzxlYIlfW6Ib9zfuGa5kKEZV5PObf+5dmdrpbY8Znkg+8io+iHtL505k1pl3ZLIJZRars8OFYnHusTidh28lOPRWEgSIEoChHxr+Ng8fG4+Uq8EQU/crF56Mb+McG6VZa+fCDRIHTb6Yh0eFvHY38byvTVxTEYx1bc4AM5Un+ZZ5Iwf/9O1qKiTBxrzy2WhfozJC5laGW0af4vy2BzJPMEI8IvZBqS8KUtX9YZIYzGJYsLHqiY9zh5AMNB0Fv3ZyQrkF0lK0zrJzLqpQn5aHjPbN3e19GDza2fLqovqyP2B9pl2yEM78artbn10NXX7vx8vT45bRymYUft1v0zRMOOk5lnlY/6KimIBKXt7rTtlM/wluKoEZYnBnyfF/bmI5aT7m1seinbOkrv4gEsxlXfD7BiHGR42M/yPnkAwyaQPrnMd0Em08wYMZ+xK/AmkP0cc3IHsb17mGRvnvGyhmz22Tn/6F7Ji/t6vfd3ee/fJhFYbJhFHktW7fOiOlgviOZh3hMsJMR9Xbx+1Ge2LygvdRKCNNsfOVEKfXvRueYZ3DvdtzMV07DONX+39ebPs7KUbXjvX4AXbbtxgPVw2DiU19+nw7y4flmcay7g3uft2rfpmGaPt+wYz2df/eyTXKb+/ugvj2sIj8C5mVb95Z8x9Yip2/BPwpGMpvmijqRQ1llFwod81uAco3MAQW6GbfcEDJUlDiC3eA9xhW7JqDHdlE119Kxxk2vMukdTeRpE4mzaSW3Huu27xRo3TIzbez+4fE/vLCc2SGDjSpIj6p70pS4xDPEGH4sv68DOXpC8eRJh+pdH1LAdliUG2bvBz2IcxnZMW5ts3b0XXrp5Mu9FvOwCLj5z8XNn9QqYFnhbXPi8X8fAJA+gwZ39ZPubcpQ/GLM8dRPIXgydrA7sEBYjDoMlXiIhFDRgDIOHL3lhhFyVaf7+rPIdvozHG5+UIzaEkIqBpXy58SWBgDw8BFrkZz6rEw045ZaQRBEE9rAOMfbej+KxPWGam3oxtCTDyJv6Q3SmPurti1hcEjzXv7VojSOOb2F7ZYj2I8bBi8j02Th/bptux/E93/Den58tW/YP+1/jiQMxsGNWZPK8km7bWRb0NabZvcea2Hx8U78yZLuCB/FW+Wx+lZXjTcYo9N8Go6OZLOu64lqesJsRHpzciyOGVOJl04OmC3mk0To+awBlTd70vK5vgw7Ui6FMaxMjMVw6TU7ijHj+47iQsqc9jl1pu9eEXAqO2pZpI621s7LEum0aDpHuIZplu3v1PpxMvz2cYFOIyC4/Giij/HjI9OnD0cThyJlx2310nnzqLRWsyzFHrCVUPCUf5RJcI+avDq7rjvzVUDIFTIyJa+z/iB/JFENgkJ7D9Kspt08ewOSdjdO90r62y35gyP5KciaZw67gOgU874Oww/iNjY1rvMfO4MxIpalCMYxi4MS4IR8NH8uQZPnbdihGKBY9UD/kRg9rQOVZSQgNLQ0xyBt2B4u8SoBIMphfw149bt2N/Dssy1tMes71U2Kh+ovcxCbXB/lVL8Gied65xcQPcuPgYrlWkH2qbdv+Jt5SN/ud4wNrNP3183AA4YpHu8S7rLU/VR/bvjxrmuhHGSScJW7YzLOdJ1d2xfvfw8PM+hTLpE9ce8l3aYv5EUoZhnl6WZ8p98t5GB3p+PAr3fySD1/WXDBviA0MvPX+MR9/5fNL/risAVyb/ObDkDl5iei1ItEiJjGE8aKXg6FgQKKBcHpx2HYz69tkx2j0lrLeDFsa+flhYTxfxRl5BzWw0NZw0j1Lr1vAIqwXjVO6EUeMBSWHURerr8Fw0Vl5a233J46n3tDW2Ydj6rPYN5vTXx517x/6cu4aQI7NUteFOIQ1gvuyBjAdBA0CCBnif/hcxLgwXpN89Kozv5DF8H1SPYD78TE+yeNFSoNVGjdNV4OnccE4z/ygXVbguNv1T9zooaRDjK8YW7TL/xQP79Y9WMfmvf8d5LGGmc8MmY53enNEB39x2bVry+q0Xb7ogfoxrvCzOFpZbbx9tnnsM/OgzvHY/6xvqreUC2QpbsJIHkXWyRD12me2Y0PcwTzvSj3oOh77O7V/lVTZOnbzzP50rjmPjUOlnnzHfcXe6/mCaJM/FKyOfc9sw8pp8zG+Px/HrHuYshyrkMZ81tBGTwS/5I3xCWXCr396w6Knpj0+HsC1dutbpc7BaAU96VWaT8jKsvLevYVDhMsBMJhs3Vzm17b627Dp2bOQrTvKNvb7fdBu/cJ6S1UmYEUd+Jzjp3mRT/LgkOo+mcN0edu9hDJCzoOXKLVhvUpSr/4wydsRmXAw8yJvY58MhxXHY2BER2IpmKneEb/w+YvLN+JzHIMBq4DFPnkAZQ0gP/sggFGmuImM/cJx0dsv8fuj7gLen9Hmvf+zGEAaQgnFMArZy9N743Z6DiB2u96Y32ULQ6lePGtUrbGNHqtv8jYInD8n6fRMWZInz0hnHfIsxAa7opdZu7ZXPRAPFgbuILCGeGkfWL1LQmzT8vL+InZMw8NFXBbJDMI2HvuAm63H9r08q4z974GY907/xiNesJ4z7vLdri5Nn5VJ06wcNh+IaN9mHkx/L5pmR33859gg7owvQ7Q7O55sPfqMslHOZxb1yZFN45d08PBlhoQGNDdENr8+B+9XMDzHxQM4mEwfsPLjWY2s6G7Ty7TgvUCZ5OUInpDzMztyw27arXttXUKCLK7adlYfyVIysLFPznTXHvSAwuHSuFIu1yPKk8bNHJ3S9K/qOWqnvb+Yrr7+N6fpYSJZtH1D3CmHkouy7STb44vWGx40jovaowfQjrVEghPJtmNTPGkkYOEzbD31+0QA2T8iZ5Qh9TG9fBH/EI++Yf8UYfUALhoSO05zzv3VetbEoAnJU4MXDLyZ8lIiFcna8/O8P/MEi7tdH1Ajyza1LRpXKx+IBGQej8fZ0hDnmj+IvFLekoK8PI0y84XwoKZ/QXivtxs9FGPIBVlsaJ9FXs2v70JY/Au4Nm0Z4oc+kSlZnHUnxMy2q9hpG9ouZaKseG/eWV9f/2zZ19KGu1vLzqtP6rAyaBmbxrZtnMjBsYLbOoq1juEAcayDnB0HlCfXZX7btt1Fz6x3Vt7xuHmxkK+E7Wi+qwGV6TIxtjQy/LKG4RayQ+NkDbHGHQ8PIM65w5o8mb42OvYQGYvPItKBfIO2e2yml3HLRts9ogYwYhvakrZDG2EaDe8mrvBGSr7uwn7u/J2RP0aEswHb6cuBZBCnQH5F5oRTXxz1EIzEQzWZ/q2PmJFopvp6ymq/WS8UcC2wC5j278qep+dhxtMDKITO6BbJH34c5LhEksX+KPPtFwEsDoLm5yJ8dxSy9MVletRdwPsx5E4qGcmNoJCAPK7PQEfCeO+ywsWpz69h6rmvjVhf8sagTcZhFyU2rvQZUO+beENILjPLWqNu4+BJLMnksrqsku+qq06/G3fIeu/fskREZJlPJpiupCzPiyvxsGN6meleIy/uFP7JMlOybN/iZ5+Rjr5Ev5r68YgNHz/XvHm/SPz8uLzd+fm0fuISNiOFTSDxFpXvYl1paIVfVQAAIABJREFUXp/kXS3Ov4XPCsbgbJts24Z9Moex/NJ2axQLHI/GayQVybDIezQ0+DKn0SnXIeGd68BoeI/JLuC1tvv6INzHS6KroRLb6MmIRjUYuUBuotFFvFnTFg3dzIJpudGiezqUt3XRWJtQjLuQmCx/bBfpg3b6t704xHgno2+wKTuZRc6SfFDuWeKSdMnxe77vJg4c0sxbSFiOYzK99+AY0vL6xSO92WE66Vj8qQdQxyN1RpgTp4IMhs8q+4Cf3/25CxibQKws+pkpZCo85FkZEsXqAdzzsRkXw8dF+TBeMFpiuEA4xECqIVPCZuP8RayrWkY4HrkhG0+k/twIs94yRF737GjUfK7vujaZZmziuYac7lUj398G05s/9NW5jD7L5gHOMtUObxt0o37EmNjbd5FvlmyI9xU6OeefiRsvVjmsHsTsJ7xdhPWXGOXvKh/zSyh6gOiVWIzHzQ2zBDPXm21oqDozTtuzZXOcmBfeTO6ylbWNzX1WBuRjXtSrz9TDthHy4tacezG+8SMBU/fxCJtz6jlFPpVb6s3fVQe06V49lkfB4EtZPCq50dEvdU7x5Gt9rGEKxika5SM/BXz27MlR2+Gqs0AQrB6MswQnpIN4zSMdJHDt9J1ww0TxiYGXa7DZvWLbSc+BRIthT3GsrwhFjuCJfeCwNjQM2q6DHIpT/lzqUObN0nGMzeY9Mye8r026b9KjnOUn/pE4sI8oC9tCPOJCfNu9PTiE6fJiCCz9mjyAwJhTuWaciq5cE9nzA4VjhmX2yQPIY2DwmQhYM2S7lCPFKzEN/RT0w+cv6FJ3AS89QpbL6Jy7SYwmDJ8YR2vMlARag8a8YkBh0Po8coUEJ7EbNXpQMgJEMmTbogwxDufX3b3IwxU3MoRDfKWMyEsDr+FMPHau7uuZn865Vq7fY9vAjc9KOJQkSBxkjvonb6iNc86f61vrVuCevUaP2K1yvqL0d06ERC7GCW7a3ypjlu9i6UH13n/YOR/v8+1rR/Vm30ibWq9tS/RmGYazeZ3zL2Cc4F5qTAVTj7wuS/zyOtgOzkMcj5tvxzE3c6RM9Ob+lbIztO3Mf/bn4xrNrG+O/IsYykiGCo8Wv6wTQTRf8KlcFnf0p4BBCIYTs5bNyN9LOEg8EM7JG8hhO73ovvCbq8oOl+Nmun/01h0JoE1LRBNt8Z8GVfIf+AYQ6jRsu5+XGChZi0beykwvD+XPsOxe7zvHcDjpvh/wiFincRbxT/iwrpjPlkl4tt1b4X5kKnDEQ3oAk/zRs57eCzwRL4RXsI/jUKbYkXe/CGD0ACa52Bc7CasHcE9HpRw8rIfxWuJEwykGUQmLxtOIwri7uxcIBm/TR5xzj6jHRMpao1kSHWkn5MMxJu12HjpZT0jCYeVVskDSZQ0zDkbumbpcoM7ySfFYm5/GK+aSt0n0hlwiW59cVkZ5Zt5Aps5HL9cMMVkkHTdj2H4o24lH8Dw5G58TJZtenp8o6/4a7OgOxLVPvzIO7zaOZbUdJZGMK/PEOn7RNM33MK2v6SIHy80PQxsvg/gBq0VYIk02L1FubaPUBe1RNwkPjACuND620/cEv8RhPOQ/93bNGFzmM8aI3hjUdZQ9gOFmizPTh4PhtMYqeIzUSxG8GoHIiDcpYGSITSAltrwY4sf6PHNX/+t/vgukiWUYEncbMo1erCBnWfbMtPemkW07eg8ygABCRsqZZI9xYRwQJ8SlsRLLZGRtGwIY8U3tsd1Yf5AhtcsfMBIybTiZnu8jmXsAxb5UYT2AHDOJ4GXYRWzDD7bi80r8gd9+EcCJ3NISZDP9NPPjgH0mn49sPKSxUwngno4luQasCTdtwFjK/6yh1zRr5NLzRUyJ9Qkmhxv7XzrXvFUaXRpEiUfb0q5pK6xrW3atVPT4xDPdZnWgEWb9lMe59Zv6ZN9tHKYKsSnFki3bNp4pA8NZDGYwuSTnHYYdviuJuLb2gfd57x8UHPK2KZdz/vE4VX2vzcd0lVPLIw2EyQoTp37TrRqlXqyHIdP53hdSBoRMt8+Icy6c6YfzFE3bHNcSsmzMb0n5G+Px+m3xWjyrztxneD3tET6UUeoO8iRZ2V4MQeBPz614DxLi0o4Hx+P1O5um+dAeVHniRDDaaQ0fSJCZYqIBD1/ySpDSl3fyUNADcbQ9gDh7bth2b3MjAwmv1UfwiIQi09vqz2lxs96t7X7Q1yHYsME22Y54zUzZgDNx36btwySAZ7qfEzvqkr8TI4ZKVMK4sni28wmgHZPSjtan7ZLsMS32SfhhIs9hrdrm1t58UPo6d4/j1AO4aCzketsfaBa38LwPBBBH6uAgb+v5TeM5HgMTxkSYwpa+CZ+zSGCtvKEv6yaQPRtFMHT27DcaUxpjeZ81mqXXCp69ctcpjlMZj/13eL5gbhi1TrSl7dp4//fo9VvagwEymxvZGfKUjLHoGNp7bYmp65UxxzpFHEZM3SiXvguJ0XclrIxDWOCDDQi9m1+2E3A02rgG5A5yaP9BBpKpcBfvHcBCvJb+cbYtckheK5ORE9fnpTP3UAenXlG/yZfw13aDZ+z8eOwfGo+b7zdN89XoKU55tX3tT9FDx05en+CmmOfY2vriM0j14977lc9BlR84zStsK5dD25V0fXeueRmEfLt+22l6/DH0gsHplfF4/Mmd1pfKqUHFlzWNKQw3n8sQBohxnKbU96PqAYxXmj2n+kZDGj0Y1Ek8TqrPjMFK+aU86sPxKPM8TVwDGLxSRVnFWOvSIz00jgY2Gsy7Uucd8APO7gv6xv632FC/LC7pa/AkEWi719wXfjPziwlTwKiD9bG/yneRQwgm89gQBAj9cqymgM9Mb0j4RQ8qdQqYJDwxNgTTlD+8K84hfR8IILyKw7a7QLkkDNPNcU0tn0v5dDyjTBr71QO4V5/isAnAekrEWJAQ0FjJO404DQoNHRbXO+fSYfY4Bsa5cJctCETywmg5qXe2PjHm2F05HvvbdmIcZVNDLjfaXdAWdq7ObMTbDcAypR6mH8PBzpFgJDJDjIWALsbCYibn2oVNNqts9AiqjMfrnyURL/GI8r0Sp5ND3VjzZqdPLX6U28Z57zv7AwDH0JTjivltiDWROKg6eqcC0cdYsjtsmd9iwbHHuL48fXHMTwwkD3aUu5+v4vWz4yOS3ZdQV9lm+S7t8/O0/hzGiq1rr55B9Gx/U28cgbPMtPZCOcKXcZrOLQwIDE6YUooeifQc4+OvfPE8yBf8USSAmPpda7sH5+sKfaLukaAEwxa9SUyLXhXdPMIyk+6PaKMPaDnYePqyxSjUHQ12MoTJuNOAEuNoOGNbg82th/qmmvva3uu4wWb3u1k9csMuujEukoCEE+MD3i+99/pzo1LGUdt93dYhxK9nXArxVtJh8eNz213CLSxlG0f1XTyA8bNGHZKedqo39x5zfOqYDT9K9mUKmAQQ4yD8RyLKPpPxofLZ8SJlZFyn+EoA92Q4Rg9VOMoiN1RqyGjUaPRheCWvkkR4a7DeS7xGgfg9gWk4NTp5GduW1i954I2MXpiVSU48buQBtluSBGt8qQfW5eEavD0B9MSJEyCt47HvrP5ol3pamRgneCT9A1GUOBJZlA9n1314B3LimBds8HlNcbH1hnYfx/pMW7dz7tpShr7yEccLIJimPM44/L3Vu6wLR9Y45+8oN6/Ai8jjiGa9jyq3yKJjkLKxHYT2n+llKB7a8ONlJ+ONKp/0fv051N3Xpnx2VB7K4JyfPQKONe4itOSvlAfv3vuv7aL6E3ENIA2sfnGnL/Q0rSPGG4TF/nPdD7/4jxwBPHv25Npm9yseLZIMTzSwQZeCoKhXRQlLKGfIYaon3H7SfX1eJ4RjYCbdk6UHqyR+TGcI/NkGwxj3zGEdAzNsu6c4LoIs9EIZ/KiXlZl5bdxg0j3bd50dxg+O6NF2+kmk7Tf2F+MoQ2h3c2tf1gPN6+/dxMsawDiVbQigePtiPLGOYdA5fUaBlRDFgEHPtYS7kQ9lR5Pp9UMcoYS+N7Kgb6Uf9Ltktt9FvtC3LFsJ4G675ETcLIGzzAzhCMYhTQlGYxHX5eX5mIZjXODtG4/9j5zDfbO4B1Y9bjTiJFxi/NhOZjDfdK65ZdVDpC0QmHIWogSiMNuGts300P7vt9tYYttY9Iy1YN77Jy1Ztm0qZkJkZvNZgpPwvoQbOpZdA2nlQ5lIRrHDORL3TPdwfV7fzSfe+1tFdsqE8nyWEPqITs3frCcL9XnPa+3YD4kA4XiWR+Ju4WxqP047PyZ9p23YvrQyxbZnPKsW8/w5yQu5getDmL61mO302bnm2Vm5iRcx0M9F1GnPZ+YGg+ZDzvngjbRY8RmYYT3gTvUM5dTQmmkZY3zwpR6+2CP5CV/08cs+Gd5kjI7WJhCQr+Gku3U4EUJB2UVnJRaWmNA4lXFZWeobvCDTv/cRmdQpOAh6svVQqo/YhbLRWGb1bRt3qe/8vNTePj3AWzdou1cDDhgfxXiQKUfFNI2rHt1CHWe6x2duTcGv7s3uk8PJ9E2UJ2Yhf6yH9do45gMhkWcbbi19mO0+Qbd0tVwDqLpBD8WBugP7pDN/yCTd9UfLcLL1jaUbXzIjjulJcsQ+WkYW1UnlC+XqGsAlke/PdvXVYXrvGWsUrPFCvBhXISHb5Hu7/xy5pcqiHWzY+ONeLFCXDRc4DJmGF6EaX40nGcH0tN8Lbz+8bF/3Xr1swK8kKPMxVXnzPP4Cpkctuerv0dlY59wnnMMayln9ERenk2+w07amllO6LnRxP4JIwcNoymJX7Gdm2w14vOS9xxmrM942mTb3OFNvlbGXfqywb6VdxRPxpSzw+jrX/LRPDqvHss9xt/MLq32GwqHZe3qcVVzjGY5A2kaW3RHPZEyMd0vjSEaiwQ95xCgJAYjpyQgdHQK48aXuPcN26/ZhO72YDFYiLWqEkGYNWPLAFYQj5At5Tdngqeq+v93gGkymd1ivVJIH9RnsokHUKWYjW5ILcWe2vrJdm3udHj0/b1vZc+zi1HUguPm4YJkc5637+2TEWs3hme7VVCbiI+Mt7yvmsXLYNiIhfKbveJ6+tg87btBOv5p7P3Wssf8TIZwzljNMJls377VO8oMK/WBlM/1dfG44vuktTGOc+aoHcMddhCm38diHmzJoLEvPDo3pdqGWz0mCloMxz40x01AW028gBDshOH0AYO0Y67ch5WScyuSf3O3mj+h1/IWsg1RdtQ0QEPln+8uE5f3Gffr2xYkXTdcfkggYecL1efN2bKPO0ej9mIbFXcKZd030yPvUuQZnPw6sLM65b1HHqPsFHKIMgm7zmeeTzkHm5m3KybZYjw375GL6bJoS4FgnSCjOe8y8j0aWlR/j2ZMvQQbKT3kYQi4rm/zwcXt2PSt2Ezvnn+vDrYzDxqyVlbQFwhc5jUkwtmZqh1N8JCk0xnznl7iJPwpTwKMvdtcM2u6PnPYNRhE6GqOV4iKpswbNplmDmp6JV9s9t4w3Dhfep7IGKzHmYkjZPsMZWbNyHaY6Du5PDs/uKFuf3NSPBj/kTTjN6jjY3MKvttk/uTovbdaxbbKNEJZ9mcakJSaBYF9c29yya1pm2zwiMcO2u052jOcES6aAqZclW5IPpIq4J4zES7i7X4c9uGANamoj/oAJ09DBAykEXWSJPwjMuM3K8bujegB7UN4+CkdCkPypYVLSIgZMDdU8Y6Zlc4Jg4wtjVxIJeOnusrtGt5d++xzwllEHCUW30vgyzbnmh9vXOj9HPGLjT+VGF+LGkDKJHCXe+bvkda/aTTXzJchTogfoQXpkbftRBnhrf7XdZgeQMeTv+y+x7Dv7kRtxZAz4JyPhmvH6Ufq4FvX1vvbKuLz9/vFXlsF7LPdEeVA1ZdhNaAlgX9t9cTg2ZifT+n1yxn4PHv2IeW/fiRz+7V3fPiJreXJPlCUfNMA6vRa/5JNxzw3SoRLAs2dPDifTbw/CnbXQKa6byoyQejCTN4LkIRg0o0+I1/yZAQvTytt7/9DJMq3Jek04h8TYdug5CXHIL4b9DZDcvgG0H3Frk633DyZ6m4l6MxVfet5kPImONp8lMSDmi8bJYDJ9IGEQdNYfJWxH0mM7JBPoLz4zDGdTTu87rHWTq/RHIoBBdiVQVmc+S2j1t88ki9M/76XeWOowaLvnwjpDgy9lSn0WflRBHisTPkcSl5HVSgBXGSIhb7y26mkhBWo4xTDC2Gscnst8GifGNBqT5PEQwyOkgc8MkZdkxDn/RNwwMJcQrKycFMA07COmnWQErRzUMx50vJNNFWjt5HjcnOk74oW4SGixUkJl5bHPgpN/aQdHdWDTxTe998ELZfGOdaJ/z8dr+rbFHT8SbB1WRj4rzvnmEYAjByP7R+Fp2o5sxnMSn1c5OYbyEOnb/VM2mw9xkNU598Berfcrxye86nrbSZ+cfZ+n5smynp28R/IXp/pnx5vorp9t5/yDu/Z+zn5pR+PRR/ASUeKXeTI0ybu2yLDvBJSlypw9ezLe8PHXMOVLYgWDw+dADqJnhXEhvciTPIJivBI+KJPKBRL8NI54WUY+eAkDKe2RJ9Uf2+U7iTdC/of2gxzdO2ubW4tO6l9GrOXywPs3ice/RFkgI4w5DTllpXzB0Fu8LKZSx8IDmgebWzclIkdcTH2hbb4XoWClfRrfLwzbcx9fTuHDy/W+ydanBm13IekXxyzHxHYhcZfy4TP60tVtl03p7Ea70XXnPj0I52iaz338TqBsSfZA9mbzYcxw3IQylQCu1CVyrEYTruMSw60GwRrL8tkaVBpSEkExLDR2ffXR6An5i4Tr5r4NByspMydz3EAQdzRTLgmtHtAxGkXswNyWDPU0dwqeRuxizfEi0dC2BbNZbGiUpS+YH/n8M6uuhYy7Zh/k5hvqR9kgAwgdvJU9usxExU0E2KGbfhRY/EQn4toAw76p1FPLTOvL2jlL2lPfBLJX4iPvOZ55HmKZ5IPnD+f7/XIZeWbAWDIieoLPUxaE+bPKzPjx2O9uI8aJEydiu8+wfxhyDLAtMxZwqPrubVr4lR6/rGk4+GUefumnL3glRMHQhHj5RW/zHxgBBDH54t3vHU26r43OdI8PJ9NLqouSE8hm5Q06Bs+E5FEvFYyVLRdJRDJkQnqjAVttWhHTmtnUWfSEhGkztIN2TUiZ2S9RXuoiOkzfPIgjTuC9xMG/2se5UQ+yBDllfAjWdlzY+Egc2+6JRZ6peNhwWm/IPkt1oz3TL3wGhswjofb9YNI92rfpZMnvhQPJ9r7r7v0Izi4M4zgQpRK7HPuyT4gTx0lI36udwPiRNZnewTYD1hyn6TvC4B37yH6+2CeZfHUN4FJjKxrYW/rJAQiLGiYxEvKu8ZoHcWJQ8jzWyDCPhCkfFtzft2D911K6bJfJuY2eY0us/EoORD+/8lpX8Va5R2hQGUp9JB1J7wxfzSPpKMu4KM/Tq0zNyVmL6zjeJZs6jXUF8hbPU/wZxsF2+DE9kltDYFQf6is/ArCLttnNunKcQflzlXc+fsSJ3lvKwbKaPoPp6/F2kj6SSpV3HeIYIdkABKy0f20f22fIG89c3HHb0aMfPKexP5KHVOqfkQU7vrGEavdY8AudRseG/PJmGL64o2GSX/FKiljPvhLAa8+eGm/e4wbXde2g7e4ctN1LoV14lYwRopyUyYYz+frKJnKhBtcavLXJ6t63waT7biIq8FpFeYPRtu+RxFg5A/4kicHoxuntdvr3wXXdvMW4Ox6QLAjP5XCze7Ls/yQ7dCB+VocYpzoIkUn6T6Y/YRu9IchG2z0r7UQSFMad4MZ6EdL7yDjKhpBxDLGBYRHx7JVlu8izZ0/itpftsi2THsZ2ItvFj5FsfMcfDGYM6ec2YhTGMG7mmd63F+dGXv2F35zGLnC0Y/Ccfw5j9hnKiSz7KNRTCeC2QyOSlQf0MN7cMNGIlgaLxsSSPea1hpYGzRJAW5d4XpqnnHO4v3ff/7j+j7JKKDpDRisnvHerTLPCe4SDjXGwrhjXkmjM1N/rweqTLeIIz9/7lwQJU90gu49J39p+1WfZEKCHcy9TdzzQOJxnl48D1Vfkxbt7djfeXO/99XI3co5djhFJe6ZXIjo2rx2b0t84CuVgxt76+vqnvG/eiu0m+ey4K+XD1O0yfdKXJ+7wNh594kQSXb6HH0KP7nbDU5JFjHI00JmRgSHhlz3SmYehpLO8/Lrfw6vgcH7f5//v+9Ymv/nw2mR6PTYNrLXdnzCVKps7KIfIJiRFnkVWTadsNDwSWi+SGE1Nj2UDkTEY4L3tnt7JtFrYmDKZng+ySD2JBFJeIYOQK2Ib+oN6FN4VGv/N7tG+A5VTB+/wIa73egSYWAIYxkRm3AU7wZhy235QbKN+bw3PbPXeM2pFjcf3JIIh9Uu9/c+KT+pfYhTJEDZYjNrp9/aSBGKDD7y7C48CsooteMaSguGke02xLLHlGkd6OvlDQMZIKBd/KKQ62u4teBYXNLt9UjjKqDtnPx8cE2iHbYU4Yk3sk1dWZGe51EeVAC7C/yQW3cNA00Ba48M4GwqpIVlCqM9ati9OiYHkS3le8d7fvN36r0VKrJomm1tUHtFPPYCqL+Ka88suwJcF/u52mfJN+iUjj3oVIzW8BR6REIo8JArIg5swykOY5+ked3riqJQw1a060fCH+rB797c7We+GNYJ29y/1Ymjbw5mN8+TcLj7qYa7Iy3EFPmwrbzv0XcJSsM/zRkyf3pOpzu0UiekkgKXMoofoZtPgtd3plHTcMPMy62NoMWMcQ+f8C6suLVioeiAf1nsTv7izL/v4pZ5/eRvDbsvg0GVcaVX+b/bExTyjze6ba233Qxh9eNcGk+4Pa2331KDtXlxru9fpOUpGI7QHw0MZlCSp3IV3KJKWPh2CJyKmo7x6OEh+xOOCu2VxE8JCQOclxmlgGkshfZB/juwmXspoPsiXydhO/zbYwztvg7dns3uUuBMz4p1CY+Qt7oKhyhveA1EIJO3xZTxSIC2Y1le82Neqe0rr61vGxTFCHeQas+7WZddvzutO6BC9uhdkU8v0vr3wBMLzCVlF3hxDxRjxcUzGz0L6IRaXC4Ty+kPiL7uZ/sbGKh6nFDAntnGMJmwhC9rUdrNxGmQOBNWM+7oGsHeIgXBhbZElKyRzMAa5MVXSIGlqSFmmP7/Nh2cYuGTAscv03rjebPdTTb1azkZGz5W50STJk5EFxcC/MlvLbEw8zw63msR6rO6id5+Rp+GVUMrmcVKP7ARtPjfbch4T+xUHbYf7ZufVKxsR/DdXmfJlS7JcwP9J5SzlFn2RjnZW8FiyiRDGdn5PTLU9iy3xmY1blD/K9the7y7PFOh5KQngMjLuYCoWG4++gmN38vqVFOfxxM6/XtzS0qPBilFqVMyXcjTsNNzMI8QjTvsWngaSlGC8aCBCqMaK9QjpUc8B32kgJJ+UWyVO6qEeWl7bVRKxatygnV7E5oRlyMu8Lhhtdl9Ki+gjRkGO9AyZo4yrxrXT8yAkuzH08IyttVvfGmx2ryRyFckm+xfykXzaOMaXcSHejoO2u3EePlm8HAfziNYnnlEdX7F/SfBMG8RQyuZ9jjictTdou0fc9TvzjIUzJje37oZHMcmHMyHb6X27wv/EiRM4vojEezs9mM5wnr6hvnZ638qkN+yq776PjSnbtsFxG8NSFu23vD/gQc36vb6cEM+Ae9YaVjzz3XoIyrjd5GNZ3MCBqckdbqzYVQ/CwOk6x5K4wBDmcfHsurnr4oRQNjjbD4vmM29USfhE/7yNeXFioKW+OH37g0VEQNb5hTP9XtCpfBp2DaU994i9T3dVQJum+bT3urGl1BOyMy4e/bIjgu+9/25+TI3ia9uYJTN9RCePc655YM+mOVcAkATQfsYof18cjkBaoXpkhVcfuPV6ftlWGcoyjNWWASwlV1jDBePJX+3pFzy+qDn9aX/Zi2ct/4K3ZC7/gg9f/PAUJAMtBCKQCGO8kS8QuJCvp20alhCyviKfMUKBrKa6okyxPRqzFM7EQx+jBw6TbrvbdkP+0BkwwIO2eyK1a+RFnGBg2i3S55Wz8eGYjrb7AQ5UXoaMIM97/8e50eDM1k2DtnvG1hWeiUMflkzL5DQklvExH6bvl5GJAxfHoqSDkVGH1pOIctZPaC+uPxQ9RBbkCf/AOOoRSewl3BGNzTQgdQunhuOmo0CQ2+4FjGfUJf+mz9rpPfPuhaZei8JBu/WLpGfQR3WATklf0x/UyRJHzSeyRX3/tjbZ+tx2RBCeTOyqH8ALHPuQ9ZUh04Ns7O9UJo4FYm5kpo7DOgWchkM8RuM+GFUQARgBDYUkWCNUplmCI2WVzGje3EhrvtDWS/Fg2Z3sqE167ObB+/UfU0eVeZHu4fq6mbWJ8QqzG8fj5kXqyPrwzn/EoT1ts68t7QfWJWHqo8fmXXsHj58cjOyTx69si3XGA6OxoWVHhCzifsr75n7RSfta27Rx/vVFh0gv6kfv/YexG9xiKm1abPuxpL4WQ8bF22T2dafvIr2WIYAcM5AZyyMW1WfTsLtdzm70l6Qs8eE4knFITImnbABqcNPL3v+FL3T7xVx8iYvR6THqzNdDAlBnNDhqsJifxqF4t4akfKbRKeODbEvUk2Qp8jK+r17GwbhiIf1ujLrttbVJ9zV4E0P9Brski4mjDGVY4hHKslwMsZt0MJn+JdyDPOm+G9ZRnunawZmuxUYdGN6Qttk9OsDVayxvMeqJk/GihCeTxea3z7FOeCgtFts9R8Ic1iECg6wtIyfiE34mfiFuRZmwthQ7tdvpzwZtdyNwClhNptevtdPvDdvut/YsRFt3Jhfq3Zz+cqfjBde3ZXUHfej9BMHlZ5E/2ub/cBC55Eccn4cT/JiZ/m3Qdrettd3Xk54YE1jPKJurng750hRv3kamL+VL/cMfTwVxNfmCftSjegC3Rt4TAAAgAElEQVRPgDzAK4A1ZGoIg3FJREXiM+MdCaKQExqNMh/eQQxJAOSdZZIBet05d/tO1ppt9xleNd0597AYWBIz1dnKzmeE2NARz877MNbgjcfN951bf9rmKYx2wpW42fTY/svsD9TDfLZOPuO2DKsnpkZxSHHTBM8j6kntsUweBsL/6Hi88VFbz06eUQfXFc5rl/HOreMcuZXJftxI8zB1QH1SZ65nOeaY34aUReLgFfPwpK4s006w6isDAije4nl9Tl352XFf76unjJPzBV3CbNGPNWAh5A94+vPYZLPLHwWlOPoevE7BkxGNOgwYPRvRAMgXtsbjPRgBfomHd/HKZV4skADkKfKl+mM7wWuTnmk4jHclltdyloBEg2jLRx3y6WPqRwMaPUpGtmR4SV5CPVv378XaLiIOD9ig7R4Tb6diCt2I08wzjGfSz+ouz3l+TU/6sL/YT8EYS9vsW6k/9utMOjGjjAy1jiAD6k/eXk0Tvbqnrtr8j3cTh2VDeOeGILNFP+XvOmaysRkwZb8zpC4GJ+YjxlH/QIpju6k9jg2DadAvjBUZU8Fr2XY/X+hRnAPAuL33gxEv4+XM9dN+lc+I9GF/niR30fdSh5ZHvozYhc+uwSiWD/WZvFIuxzTVE7CLbUQcw7gnvgivYAIIQ4rpXh7WG43gNmSBhonGlqEYpAXGNRLGLD+u63p4p16gOUN4N9G4tzYeJNynTx6Xk4eQhruIL+bEg0RSyyphESyL9zdl7aU73TTNfTTGEip2bANlx+OmkzWG7jocz+Gcf5QkrCwn/WPr8Thz7ofzPIgrgnnS++ZeIRfahtWBxMO5Ble67ejuZOfWv2x3LZf9YPGkvrNx+TjGZp54FM1uvJ8rwjWbvd8DmI8h0VeIYDyQe7YijTnZNM3neJczy7JP5F3HpsRL3zl3ALuf05d1nO6lJ4UhjQ3yyZc/DWm/1yXU12c8+KVvDCXq1vbV2Ni40K7NF8tDPpsvl1PrYnzp4SrLhnaicY/Plwab3e/eg6nBPf6TA3+n6Zw7K1uQixgZHUt5iV0ZH2UP5ME+M3/CIxhfgxNxJQambZYJ9bEfbXosk/RgXTHPYNJdgAdyJzDCkwYPbNCT9Rp8KFsIKTtC+ww5KEtRNo3zWIbtoL7wHMuynRkMCjy0vu7CaHN6y8okUNY+/sO2lz0nDISwBXkSueqXWcsryaNuTAthxMw+S/1Sry2T9Aw42Xr1GX0QyjCMWIXvEeJ2hU4Bxym03zrXwOsx42ESgymGQckGjSZCfaaRpfGwRoVlmaZhuNbr+p1sMtjJ53iZMvBAOufSwnjqoWFuKFUXxUJwo8EmrjkZsuXwHN9xyPBjWD9HbwsOHS7xY/2mHMuDfM7tR6knGXb23x/X19dxIsKekJ54pMgFK9tsu5TB/XUnnrZ4P/EzFpe8PcHApltc8Mz8CGPayxH3ZYbJvuaJn8vXKSf1oA4an3Ccu4M6LkO4FRuEWI46a8h6FJfY1t8P5IeZeBvwRW12FWYGRaeQsi9ufoGXYfKi5B4JW1aMMdKj5wAGIk03WW8C08XjhDyST+JTGeORoEFLhifUa+tUIymGLtYZCADbm14atlu376XnLxu1WE+2KbdrUF7Kkt4jIWG8NbiIs8ZYyhATkDrVV3CPfYj4HiOv5bWctEG8SRTz8ioTysX2MXYMlqGPzkzvWZkIGcDCVXTxzEfb/yJ3lC3oRXlzPVI+M65FPxn3KT2MZaMH3hNeps6inrx88GqJNxe3eky2bl517ehg0v2On8tUd5JD9E2fp/h5C30R5DJy4vPC9IgP9Wa9IT3ms3HhOekp9UhZrZN5kiwBL9u+YGE/p2xDwvC5vqI2gaytfeB9mG7lob80LNYo0jjQaMAIyT+NhCUaiGN8MqiJiGgdyTC/6tz6Tbs59818NPf0ERsfvJfDkGdxsTqqnoKbpImu1NPmV7wsHiTezoVptu+WXjjn3Ndl8b3WZfvGypj3j8hH2dimlg33A39rr8m3c80f7FiQ9hPBTcQr4vSlnXTeeNzcwPuSrf62LdWTuDHUfmNZbDjCjSU7kWU/ysTbWMK5fNSJspbYIh7e+x4Cj+v8vua9/7v3Tbber8QGdeTtoL/8nzc2NvbsBqeFOInhjkYvI0v8IqdRFWKBL3M1wiQEzJsbY37Z0wDgXY0F62Ec6tA4nQaTeC2b5wv1RUOVtUMSRMOHPIZosr5ARplXyOybw0n3/VWN9kKQexIxHTpoww0mGWEiZiFMBtjgCoOey2swneeVLfrHEB1trzDsgkVoiySBecN7wDLKFb1kIKVKCoXU4zifnZybWEI2wlmQcTeq1Z/Ptt0kJ3UwOFIXlkPeFNeTj3VpPtVRcEB/iK5h/JJw8bMkO4VvXGU8DSfdl0N7UX77GZVnbU/ki5+JQn4rj9Qn4wByp3pSGTtG+KzEj/lZJ+tjXcQipMfxGeKKsSb55bskyH5leABPgviNx/5HIH780lfSACNQkhQlMppPDSgNiRgllhVjIvVLnca4vDEe+9sOY2dl+Vme947jSCIZi0aRegWjGOKABXWmQS71VbxseS2n+HscdXM/1mf1ySSbcnwkAzmeOf6oG31D4mf7QfsMa8uc8+f2Y61lPIzZbB4Smey4krEQMHm6T98l4k465x8HfgbDNHbLOMVIsTcy4DaLP+BzsUS7B5YlXkOYbuUo8RMddSzgfTz2v8N0uuzeb36Iczv7psi1LMcJwzRecNPOL/b6h8FC8PSLXb6Uwxd0NBAwkmJYoyFIBMqQBUNIxKiKcZGyNDRiUNToxnhjfJg/NxDajsRLPdbDpAYnptHwJjLJeCUrNJrBcFMG0e2Fg7hejR3yvuvD1V8vUh4JrddJDSVxSf2R+kb00nSrL59tyGfFI2CfEZc5pDwjJCyfkwTIIf0c4l/FVXLUd7ehPRw6H0uRxFGHJIPil2MMDOy/5uM4TH2RCEyZX4mgfoYitoUcg3aK+32XJoHhEO50FE/wksUfR0r8Qn9z7BrCRc+hjAfKLH0lfWOwwhiKn/VQLtbHOAk1PzCxaXhmX6M88yseIm+KR/0Gm5DvMieAQvywKaGJGzzSl30ynDQyNBBKcmjENWQeKSOG1RIPpPM/kpI3cZjwnh4eu9sP8pzy0fi+JPJTNxpbwU0IhODBfNS3DIER8wumGY4vObeOBfwLp1+da+5BvcRb26QMDBV3zS/txwOZH8MVd9u1NweahdFxqvFJq7/VW8cHyaj7xsIK5yTG+2pfIxZsA6HobPHFMzBBGtOJo38bXnD095ymDjXaOdxprP0perAvS33y/kdewUPylRix3jxfIJEv4oaa/RgfC8FUw2i+zI2hz7wb0dDkxpFEgEY0GkF6VuCBC4YiGgNjUGkYkhFJ7WqdwSBnhk7rpxxa3uqQGz/mRch2aaiwKxfHgezntWrzOgE7csMB00b3Uj7KLOSPxlwxgh4BJ2PQM3Jr6rY48Jn1clpZ8DTGOxEDix2erQzFc/DWdRjQe/aHDTRYD5jkNuMCmFHu4OnlmIteySw9wyMfT4p9xDmNedQv5Fw8nYbMpDwFBqmdQI7ewjmQS4GB8/fardupJ0Lqxr7i2GVa6v/4w4D5Qjz7D3IanGz/Sf3ymdG2FJssLv4QDHG2voCDllH5Gcf2gRMwmb5zuR4DI7dO4Ny39XAdFwkIQxqJ0njSkKrRFENqDcm856Is1rT9KZKOQ9tVudR4N5kw/UU9cj3FIJdx+fus0UU6MY+YYq0eCPFS17WBOOO4E9uO1ifGnm1I/WiPJMCjD57x3t+4n2QHnuW+qUYrs8gYCNlT5VS3gX/ho2x0weYRJXqrPosX1N2009szFgq4R4n9VxH264y+Zn8vg0WZN57v93A8cH2PNFihGjF4/IKORg9f6sm4itEPBtTEM53xyRBFg8B0+aKX+mwcSYs1EjAoNFwSH8slQ0rDkecL5UK71gALIaDhsu3wGW3h0GPsRNzubLQVIF0562Bz6ys4toU6Uz59z/UldjlWEZsMq/64EhOpJ2+DdTO0Ms3GFWXb6dvh0OyVkdi+ALxjIOvExsoiz/lYZj4r/37ElZiijZm4dnoeU9nba3niRLgJJd4LrJ8bJeCHGQePZtCPxLL4rrBp9rlP5sttF7Ce+9Y8S6IghoFkgaEldnse9yR2Jx7oVNIyg3qJPDhXjd4RDZVU7SxOjLdz/hXn3DdWxSUe3Ju8iSpD3m+2v+X8QX/zBz6wv1OcOPbGbpzBWCtJBuNANrCGb4lu6M0yGuVHpFh9tY2cKAlBSvi/PB43Z3orP0KRmM71HssDVBerB+Pn4azjI+ltxo7GxXMff7CfPw62hVWmU2GshCzgC9v+Z14CrqcLXrRZAweDp/nVEJeGMOQr2kmkJhkTErhcHuZDmMlZvAfDE+SRfCqX1Ce3QWzdiw0G24K03xlwrVg7/SrXuIU+CQSi1J1eN/GkUP9EgoK3lWUiPtFLZ40vy0mIfKiP5UzI+hLxzzHP65Fy0AHn5u1m08d2cMsUKc7s65GHMhfjGfqHMRDTw3sxBiW9p07kC+UkTcaz5iuxTePdyIc+Cv/t9DwOY95OR6wZHLTdXSK3tkXMbTzb1zASxdRvqW/i7nD9nGoZq5sZAxGjkK+dvoOrGQeT7hzew3/4LpiVj33DfJC7fA66XCbHwETi9xMY/kWL5MWQkDgwFC+VppVeBeYLHpw4xSRxNEKxLKY1sblgz08u2Ha87lGGuA4Qa+UKo1m+w5AKHuJ5Qzr/BU+SEsmH8wXd6R2KiUX9v1KZclkkXvrMOf8cCON+Ez/oEafM/0hCkhMPypjkAjF8YjdjI977e17bywlSf3wiPE+MRhvX7BD/Ay2GHwhyBIvqJ7oJlnjWsUD98jDvC6ZJn8SNRX/ai3Mfdw2MGrY4PZOMFg2Ceh30S10NDL/YU2gNJeoK/7MGSL78TXxmuE08jS8NDfIZsgejDcNi61NZ1DCRJOEqNtxwgKNYVlmYv2ugl6gAN18M2+4fJKsMRZ+IiSEtNr3UP7xb423K2bT0HHAt1h8yzpbtiwt9g36Ynoc3cwlVd50FO7SH7fSedKi2lXHes5XdPKfxY8rNYMvxhzzblJ3B1NSLNGz+WeZMRNzmMsCtI7bNONZnZC4+A0xnmGQKdZnPBctZ/SivSZPPfndpbdL9CNO2/DxFfdKPsbK9DEdbH3U63gTwZDzg9efYvEAi0G8ghKxYkjKbj0abhqfvPRmRtLYKHiDn3C1XXXV65XM2d/1B3IcKxuP134nBBQ4WAzzn77kXKk+TOtAv7qadHHlSqAYS+E3xIvKswUAIsJHkNefcA/Bu7XBq81RcK/pVnCPovb/V+/VbZSoyXBv2Je/9x7GsIHqLsG4RV4rdPF9/i12Sc7klKIXi5hUYZAdsR4wNWc/7ADd7eO/v2g3xNO0f2KNzzS39Y3DeZ5PxFvecKOL7AcQSXtgdjpO91z98gUdCFb68S+OGd3xxm3i8I6/9srfPmbGhMekJWYd4R9QoSXviAUx1xfbpXUllIYchhGKookfTGJzBpHtrre3+FDZ5XHv2yK6JGbfdR8N1ceG+WiW3MKSisxBBMbzSN9thb9P5zFDxjWTd9lPRx6lfIq6oI9QTbkvpntrLDR9LjfSwVq77wRA3mRgCk+QycUnPOXE23T7bukI8x5QNIw4Bi0Bs+MPHfEaQX/rwmWF77uNL6Ye7gc/I8gCRg2Mg1RW8mhwbSW77WY39mWSz/WueSdRCPupmyg7a6aXB5tZDgXif6b4jWOhYTG2zTvPDjHWXeUJ8DwG84447Rv/n//z6gwf+/+tff/A///M/37VE35zC1BsMG49zmWcsLClkHhsXjULmUZB0Gg8xqH1x11zzXy994hP/8ocbbrjhg0vIPJPl3/7t39594BjHfu26bu4xF9HT9Abwot72WeIsLsGwJhKC9KZZf+e//bePvvCVr/x/X94rHe++994Gnl7Zcdt8D4QQdxdvR27Onj17sk+G//W/zn7wAx/4AA6PfgAHR0Nu+Ve9bZxcEYgdpsjvfpLf90sMgIuSMJQX7Jo/rEo6/v3f//39pdz/8i+fvFPHsZIeaQcySBzCa675rxf/+3//f3/yv//3HdeU9Sx6//Wvf/3BRx99dEc2+t/+7R63qO5l0/7n/7zlE//lv1wTr7pTPKl7+UNOx6fNa/uzeR1e5LW1tZldz3fdddf7lpVrr/OdiF/C0ZAr4ZAveCFlyMN8JFjRmCUSGNKDcVWjkOJgFAKRjGmlgQppJBPMg7YjKYz5aQStIQmeCFs3DRBkCeW713CgM+423en1XDPfnPscEaY4J9M7wnVuxpBSb3pfGGbknEY7Eh3pO9OPgkny2LBO6W/tuzxe+ob4Z2QCHtVJd24vjnrZKaxrm1ufHbbdU5lcZhxYXTI8/v/2rj/ErurOhyF/LWX/KNW8eff7vTPV1HbbrNt2JaZtVtPSVedNjK611ZVSStt1XXGtiptW6cZoGkNqt6mZjJPUJm+ijTGrqYTiFgkiQaQEkSAhiIiUIEFERIKEEMLwls/5nu89595338x7816SeTPfgeHce+75+Tnfd7+f+z3nfE8krxmWLfKhDO1/XF58jTKczGPMVHZ1PGp1nDv8UscbjTAVPLLr4cFafUrbkAuzdukY+TYgvtAXxUfDXDme9GkeTaN9rtTqL+sYY91eaV79XTuyG37PWiby6G9ayy/bBDI2vv2FsfHtja3bJhrNocTF8cXr7H7bRGPr+HZXxth4yIfnZf/jE7+beuaZfS2tJDI1NLxKFHB6SpSBvvA1zCtFVeiiIFQ5NqcNCgTKH+kkTVDgQZl8/vN/1/jOd77b2PjoZofRH/6wr6Uz2ul+U2NPbP9+OcaCff7ZRIvxCFgiveId55VrHUspuz75h/o0bRvAcW4gPDHGwEX+gU0eQ8UJ8V/60rLGj39ye2PL49sy+UG7pH3SD21fJisFmdD0KidIv7O++/A0bW75aHx8/FNa3tbxicbWsScaP3/gF42rr/5mY3j4sxlxRdt17LU/cSjXQS70mWAh8iF4CYGUspwsfeQdTrdsY9mDrdu2H8fvxrXZ4/fr3zzeuHLF1zKiF9enMvzZz17SuG6k1vjlo5uz31nAO8iRYq/Ptm4TWdr+u51n9u7dO1zWppnixsa3v6TlNZXv+iJ1yHhsd32Lx9jlQbptE40HHvzvxmWXfT4anzwxj2UQY6H/gkMmq24X/nROnbeOTzyO+oBz1hbXBt9W/x7UZxpKHn1PFvL6soLcRb/T6N26SF7IsojfE6bsJS0vbFEk8sJWa5snZk7JSF59ubsyMmXilYDb3KF5RTlqeU6RFJSlKgmEKE//9V5DLSN+LuVNnoUVDU54q9fXvzDXpnpnEmL3fNX6xZgShh89h61a2zIlGuOp5ETxDvcyLjGxC/kUZzdmnkgU65JnSsYldERH0h+DhWouEGuQk0pt1+bB0frHWb9iy5yTySC3iov2TzFQ2cJzyJf+u/uMPCuGWl641/JybRitnxpcPblh1o7FRRY2DY5OTonMS9uyPvjfm3ycaVuayVY+r7Rd4iK58b9FxQMhlkwsueap7MsVpM3Vrb9zj22cJ+AVZE/rd890PMosgOPbX3Avt+zFF15u+vJzoXseP5tojMV58FL193F5Li5Ltz3L04oAYtckNlXAPQSsLvkXff7FLwoxKGlR6uE+KO2iMgnEURWp1qOkZ+nSzzVuuunmxsMbNvp+SX+7IYDAMeAR4xdwCZgGJaL5FNdcGVomlFCEs6ZF3hkIoFvfliRcF39qSmgU64Cd4C3YgUxde+1I45FfbsrG3REYbYOGvn2uzVlbo765dCJXmgb96IYAOnkd3954dNOvGmvW3Ni49NKl3rqpxE3DWA6U5CLU64xYZHEqH4qFyo3eJwkfmI1jYSGAikv4na1/ZGNj+fIrc4QH7YPVdeXKqxr33nd/47dbx6MxgCxpOeWh4oywFwQQ5SihFOxD+3UsXBi1S/KEdLi/5977G8uW/X2hr2GMilgr5t6iuwcbZ2ZafgACGLcpbgeuFTt3rR8q2m6Vab2PZFvTx+VJn9FH6eeiTAEUrAWiwLySiJVhpiD81DCeZXEy9YUyc3FQIqok9MXviZ0qMQmL+UR5aFmxUnWKOlePP+R+dHLd4OpdX521sm2LnZ2/RHTt7z8Nx9SVWj07HkwxU1yChSUQEk2ThQ73oIxDfD4up6QzmdBy/XjU6vDv9yAslecPiTZqWr9+wE2h4ySN0cmz0kdtu8qW3vsPES+7cVrFNcMowyGPVZynOS3qgdWu/oqbGl+/flp/YzP1DiQbHzS6WzweJ627Oc5PRZe0X2WmmMf13RNftL9S27V7uHAcIiyASOc+BLK0Hhv9nUd1ZnVkv/2IwLYggPpClJdYeClrPMIZn+nLUV+arfL4dEUCiDVXsETBlYdfy+Sn05SIBMWsSlgIXlDWUAjTKInM4qOKQxW9lCOK5pJLLm2svv6GxkPrN2RKNev7tolGtwQwYBpwjq0R4Xkz5qJc8iQyi/OWFGmrKH55NjEjAcTvAWsaiWgHM0+V4RJjBqvUffevdcQjbm+Qk3zb4zZJ+vCxEOeXdIJLNwTw8bEnGnf/9N7G5Zf/Q2ZRUrmIx7qVvGja0GeRjWDlC6SkOQ3WLPIJcXrd/jrFMWcBVMIWyca2icavfr2lcfu//0fjn6+5tnH1qm821tzwL43/WvtA4ze/HcusWHkctZwQ5glaiO+GAG4dy1sAlTxpW8K4h/7os3woz5H+4Q2PNkZGRhtDQ8PZ2BUx1nsifg9HCPoNL21NY29zBDC0R2UutFWwwX0xDm0ui2+OC/2J+7koUx7uha1ELSg6fclrOoR4obv/nPJEHlWykj978UfKwOWP8mWKyNevxFMUTKys1RLpppNh4TtVGa0fGxzZtWNJrX5bMvIkncudpzMp6HP93BHBWv0+bArINj7olBuw8wTPYV4ge/E46HUxncM7ypdP58Z2qlKbfG9wLhK/IvieCA6OTj5XGZ38xJEa96Hi5TruZ4ksqowXZV7vtTyV1Sw+K7d+ZnC0/lpldb3WU+sopoNX11dVavU3KyBn7sPK98n/xnTcpA/6DL9XvQ7kS397bjmH//1lclGrH18yWr+17DeVWQDL6ozxdFPhinlcf7huPQUcXnaqKGQqqvgiC1Mnbrojm/rQF6qG8XSPlK3lyUt1ogECWH9qz03wyYVTM7z/t+wop1jZ6rUSv0gB+GlKVciBDMaKPr5GXlHwqtQlzyWXLHXEDwrIvdBd3/yUXKQMuiOAoTy1Ciguqlxc6KbPApbhWX48ysZAyGQ+3UwWwOgnjeng72F3LUi44gZrE6Yar7r6m45YYbpXxlGJHpRm6Ju0QWQgu84+EIKsTYfBbAnglVeuIlj90GZtv8gLPiTEoqcyUJQjEN98HpEVSR+uJZ2UFWRS5CiWLVlH6HYq3zrTmsCxbRPHnSw4nPR35kMvf8Ac5NbJp8fT5YlkNS8/MdY6Vlq2jE83BNBNAUcfetoWJxsl/RCZ0fp925w1LYpzHzJPNDZu+lXjRz/+N0cGV678p8by5SsaX/nKPzZWrfpW45Zbb5u65ZZ/vWc2PhaVAOaxjmUVvx3FTcNIvqPfpvY3/D6L6TyZ9HkyAugURvTyzu6dlU1e2I4MIk3uxR4sAUEheiIJheiVYqY03b0QuyzO1essJn43b/2MrH9z6/dODI7W33XTUKO7dlRrk3djI4euR4peFAviEoQCDoWd4+pa/QO4sxECovgFEp4jA17BO5Lux0Dwl/EL8Z7gu3GuTw2ijpFdB0AG+tGqijV3S2r1nwtpks0iTk6LclkgM8AuwyeWWZ8v+314XB0hww7ukfperEk8l8sO4BC7Mlq/s1KrHxuUo+b0d+OXS/jfa+FDTfukcqEfd+hn9gx+MUfrG+Mp3+IPSwlglifDypNLV6++M/ysQPZu8b99xbHkJBCsAZQXc/i6LbsvxulLD/HumSqkbapoZCoKhFLzIg+m97Y8PubW/KxY8bWjRHB2q8StzNqnShlpwnVQ1CGu7Lmkk7xST1xO2vjc5y5rjK5e03hkw6NhDZvrU/TyjhRwNwRQcVDMwn3APuAacFMMQ3rBvPnetzlrr5TRAQFU8VucpunKFSu+vgHr+/7zp/c6haztkDaGNsf9KbbJjbm3Cms67WM+DOUhfhYEEDt1rxLXMELWVEY0DPIRk/8gG0FWNL+GSCPXIYxlNf4AaU4rU+t8cDoHxLAAFvFVfBTTcC/jHO7zhH96nGNSs70HU8B+3NxvO8ifa1tu3PUZ0kseaX/ZPQhhnCbfZnw8Pvvsc9eosHYSujWAGcHTd1QoX7EWDH2bC5Y/9yxunz53ofZTf6PhfhF8ts2FfxyVVb2+fiP+oUDhpqUysuuLjujN4V27nQx0r9PC6gn/gXCHMjhaPwIfbUIG1cIipFAVfp4oahqEQSlXavWTIEty4sau73e8aaHXnexReW4KdfXu5ZWRybXYjDFYq/8187uYkeNgHQtYxXFKsj1JdlhNHsU0KazQn1mzs9qj5rZVDAi5PyO5Plirv639iTe6xPKQlwNvUReL/keV0clX8R5wlvQZal8y+vtlvXpn4DjEYnXxJhB9+eHFnCkXb+WbMc4TwFy6Qhymsu686+7GN76xsjDFI0pTLTISzhwnlsF8uliJT1ceFpxff/0NjXUPPZIRVHnpizJt1Y9uCGBcpl4jLKtX42edLhq3WRBAJyZjY9uv0HaUykZhfDVt3OaWcVH7NE1cRycEENa1JElvb94lHhM9EDglauVhIIrlz/PyFAhhMb54H8rld5MkKT2uE2sAs/6DIBXwwfRq9tz/Pl1cWTofl6VvVd54b9YAtjXekaxk7dJ+tAib0vm1d10TQG1LtJYv60MUl9UfxbWbLs6r18V3r2eft8EAABQdSURBVN33KQIXfXf8UyDM2DiCtWKYGq/UJv80WKu/VqlNHh2s1d8aHK2/paGbPh+tvzY4Wn/R+dMbmVxbua5eg3JHWX0KQ3vNXr9+gNfsrGKtaGVk8geDtfqmwVp9z2Bt8mBltH7Y4QSson/nmmd08iCIcWV0cp2zwo7+fllxfVx7Deh9KrdzfPXu5Utqu34yOFLfMoijDWv1Q36c830ZxQap+ouVkcnHQFyxUQpWxd63anYl7tn3fO3ZZ5+/61z979277+6HHnpkx83fveXdL3/5q25qLijIPHkTC11e+QbliXikj/Pk75FW0msavdcycZ+evPzyy/f87GcP3Pf0nv/tuN8HDhxoItHtIP/MM89/4VxhPFO5L7zwAs7F7fjvqaf+ePFMZZ+r58/98UBbR1tiGtA7js4syXmZ0bGPwyAXgRSKzMjUt3MjkluDVkwXZDiUm6831BHSOnl9t+xovL179//wXGE5Xbn7nv/jHW26Y2qSn71796+Zruxz92z/nfv3/x81NaiNiH379l917to1/Xu0jeZZkr5FYP36ARxxB5KCNYTxP+Lc8Xddbk7oW2xKGg4rIaxqMU56jfierucrqb+nUevXD4DUlY29I/gLc9x1Sm4/ERQqFKUQNihTVZYxYWu+1jyiZDUPymp1HeppSoM2TPgF411tEuqp7Fhhs0YAPgGx61Y2ruSJWCxL8UdDLDdeVrBp43WidDN8DsrpKPD7F8uP+3DICGEgg3n5lPJCPq1Lw1AmT8y605bREDAEDAFDwBCYiwgsXbr0b5n5h0Tp67qRAAow/IuCVBIo8bHSxHX8r3nL4oqKOaRVZUvE7+O0B5wighMd5iJm1qbOEWDmKlF6JMhP+EiIZS2Sg0gGecqfVbwJTsbjDRqQX9kEUyxP5C8uz1+jrDM4khD16nOEci1hfI3TZEwWOx9zy2EIGAKGgCEw9xAYGB4eHsZxWt41Q6ZsiwpRFaNaZZQIanxQokHh6jMtSy0wReWv6YjSs0RDOCf2/plOjph7UFqLZkIApI0ofVfHu93Qf5Acxqki/pi3pqqShB8sK0/lUuVW0rgPjkNwPMzMt2Iqmpnf8EcVesfakGMhhsgjsstTRgCboLcIQ8AQMAQMgX5BAJYTIloO/3FE6UeBmInSE4IWlB+UZ4jTeLWaqKUkTqNxIQz5EadlZPWdJuJDOP9zvpzV2y+ycL7a6Xf6viNkKoy/kjYlWyInmVycTRJ+NUnSm3HCTKu2ylnTslxB82s9Wq7KnDznMyizUN6An0a+Ce6NUC/OpCXik9gNjDWoROmThTx2awgYAoaAIWAI9AUCOKj+Gqy/ghf+WPkGxSlEThSoWj5EIWt6DVW5xtbAEIdyhABqnJQJ5Z+RR7RhX7WafruVZacvULVGTosAEa1ids5//YeEEjz9QBBZERlU2eA38UHQhlwMEPEe/UgJMpaXPZVFeZ4eacMXHX4rVVgt4VqHmZfFU87TdtgeGgKGgCFgCBgCcwSBxURDNSJ+hYhPBwKXV8Aa75WkXzwfCJvEi4LW61ixRsQuW3gflynXrrwTfvH+spmOgJoj+FkzZomAJ0/vBzlQeQpyFJ45YvghEa0lok+3UyUz3wiZjj8y4vKKMglrHohlO2VbGkPAEDAEDAFDoF8RGMA5mziflyg9o1aSoCxVGRctfKqcJZT0+Tgo2VblhPRavrPwYNfmX7DRxK/vs40d/SpVbbYbywyY+SMlZHm50I+PzFJ3lpn3EtHSdtfZiYXOnX6SWZWlLpG7Zvl01u1jZslrcwAtmSFgCBgChkD/IbBkyaUXE/FOIs4WtcfKUZUyQijKoCwzhVwapxYVzR+UelDoGidrp9z5qhPMfEX/oWgtni0CWPPHzB+Wy0teVoj4HVjyOqlL1rHyzvLy9WMlyLL/+IH1b3Un9VhaQ8AQMAQMAUOgbxBI0/SLRHxMp2c1FLIXlG8gcc1xZWm1HCWMZaRR8vFJZj6IXZsgon0DnDW0Jwhgdy02UKh8tQpl6jZ9cnh4uNJpxZjGZU6zc49DHUL+VFZDPGScD9qSg06RtvSGgCFgCBgCfYNAkvB40TJSUISla/SE2DlFWfI8b1VBeUoE5dop49eZ+RdJknzZFG3fiEtPGyofH/TW9LLkZOc4Ed02m+lYOAWHP8C8TKs8ivzKx0mQWSI+NTQ09PWedtYKMwQMAUPAEDAE5hICmPpVglamJOO4mMTFpLHMgoK4ON7nhaVxM5RrGzsr5xJM1pYeIwB3LMz8epCvQMAkTq1z9HKSJJfNpno/9YvNTLlNSkGOtQ4hhCLTWOJAO+yjZDaIWx5DwBAwBAyBvkGAKF1bJGuqlIXAQUmqAtXpX10HKGEgepJW82FNIREfFefRtNxIX9+IxTltKNy1wJdjIGb6saDy4+TqLD4W2nDt0rKtyC9kT8tX+ZX7vNzKM0xHw+F5y0LtgSFgCBgChoAhMB8QqFSwBtA5ro2mcpXYIVTrSJguixU3yKLcuzyn5Pgt3s/Md1Sr1XQ+YGR96B0CsMox875YhsK1fGj4o/1ubXeHb1nrkiT9Hk4F0Y+ZWE7jDxqtG6FsguIflZVncQsDAXxwYMe4rE11DvCXV6uXpDg+sBt5XBjoWS8NAUOg7xBIEr6DqOiCo2gtCVZAUZapkr03idKnkyS9PUmSFWbl67vhP58NhsPkjThTNyZmeu1J2FG4hOmmUX5jyXtaroRBfjU+WADlI4aI/jSbdYbdtNXyzgkEBuBSiIjW4Xxz5jTzfxpkBS6EaAd8VZqMzIkxs0YYAoZArxDAKQZJkt5DlO6AIiTil5j5JYREvF/WCvIWON4V6wotx1SZvQx7NQLzvxzs9Pa7ebP1ocEC5yzMhyqV7qZfvb+/w1DcUrZMKzdb/fKEEGf7YlPK/B8F62GMAPyMYjMaUfp+kEXGxy3OoX6DyG1S+ljlSZzj8z4cBRiXY9eGgCFgCBgChoAhUIKAP9/X+fqTZQVqdRMiRpT+qd0TPUqKd1E4AxhHvakiD0o7WLPVolN8RkR3tSrX4ucnAvhY8C6onEWaKMUmtbtxlB/cDeGs8Wq1+hlYB9MUSwrSF9WdkJz9TKvmJzLWK0PAEDAEDAFDoAcIYMcvEb+dJ12xBY53+jVW3dQ2IJuNyqeXY+JXvIZiN0t2N9D3X14sVSHiw/5j5FSS8IP+1KGWnYGMENF1sA7iI0OWzfBVLTPYA0PAEDAEDAFDYKEi4K1yf86vt8usf1PMPIE03eJDRN9vriNY/sqeifLn41jk3239lr+vEFhMRM/5JQKwSl+D1idJejMsgPhP0xBi6QKsgvqR4D9o/uI/aN61XeN9NfbWWEPAEDAEDIHzgMAAUfpwfkpWSRk78teNmxdtf7WafpsZJ8pkZbsd7VqvhuF5RkBPEdFNWo6FCwMB3SGO9Xy41l4zp68GWclZqHWH+G5dpoCPBj3BBuujlRxqWRYaAoaAIWAIGAILFgE/XXYqJl7eatJIEt7bC/KHk2SShP8q5cYEsOjCSJ9lm0OmiPgxc/i8sMQTMkfEznqXJFyPXbtEBPAj5vSg/gf5AinkjZpHLIYMOfrEn2i0sMC03hoChoAhYAgYAkUE/DTZsWBREQKGeyJ+BQvsi3k6vceOYaL0SLGOIuFU0hnHow0zrfnqtD2Wfu4j4DcjnYbPx+IJMyCAIiP8StwTkWXnHqaRpukRXa/qyeQhnwfE0P4MAUPAEDAEDIEFjQD8/e2OXa8oCYNbDey+7BYdkDcietkTytyUb0z0tF6N8+lPFJV/t+2x/P2BAJYkeJkAyRuIW60EEB8HcTyumYfGfb63sTNYn8uaQfdR85derGXVci00BAwBQ8AQMAT6DgFm/qGcqqHTrk5B4ozdD5j5im47BMtLkvCB2PInmzzidVvZVG92wo3f9HEGawa7bYPl708EiPgFIXLpumIPdAoYxxRiaQDW9YmVD06idRd7eiS2HHun4zjy8mRMDItl270hYAgYAoaAITCvEcCOSCJ+L9516y0np7GbstvOQylj7RbKDBZGIX5KCEPdbs1WRABxNjWt7bYNlr8/EZAd6elrIo90W7EXzOymgOHehWjoz94Z/hvMfEpkjafgaijOB4fQcCKOMpcsufTi+JldGwKGgCFgCBgCCwWBxTgWUMiZWv90x236dLc7Jb1LmceYsYNYy8+TPFHuYnGUNPJcpn7TJ7ttw0IZyPnYT7HmpYchC9jAUeyjWgCDbAUZw/nUScLjsfUP+XHeuT//3AhgEVC7NwQMAUPAEFgYCMCfGjOfCQo0s8wdh6LsEgWsK/xFfmpZp3lVUUuolsDQDpfuJZui63IE+j/7gN/ZC+vxfcXuRGsAjzLzjVjHKh8O2DCSri7bMY7jA4mchfCMyVcRUbs3BAwBQ8AQmPcIeOvcm2FaFmTMWd+m0jS9vUsAFlerfL+cw6okr5z0FcmfrPtLj5qz3i5HYJ5kTxLZzAFyV+ySEkBm2QSC4+Cw9k9IYPpiGQGEH0l8aBDxO7o7uFiu3RsChoAhYAgYAvMWAVhUiHAMW35KloiPlinODoBYXK3S2rzlTyyLsYUvXOsz3XjCJ3CKQwf1WdJ5jAAz3+o3A32IKeG4q0IAnfxmu4AlPdaO8llsborTYxdxmsqSB5xBXdxVXEhrt4aAIWAIGAKGwPxCAG5dZOOHkq9s3R92/jYttu+g90r+3Jo/te5JKHXl47Te7NnH1Wq6soP6LOk8R8D7pzwuVj26K+6urgEsuIHBaTYvetL4TnxsoJ/+/YQ5nSIashNlYjDt2hAwBAwBQ2D+I0CUbiZyJyLk/PHhqKziovkO0FDydzZY95qnfZUAahq9h1uO+JivDuq1pPMcAcgrNhLhowW7eLW7xSlgjQfRY2YQPZxgM64uYiKXMoe7kHOtxkJDwBAwBAwBQ6B/EAhuX8LOW7Gu4J4en+W0mJK/0yXELnPros8Qap2YgpYzXvmOWdbdP+BbS2eFQH5tnzsRpoKCmHkDUfpcmqYPFwoeIKK78Mw7OK/6DUkgkXARs6aQ3m4NAUPAEDAEDIH5jUCS8IOBfBUtdHRdp72HmxavXB35Kytb4xCWkMDTREOY2lvcad2WfuEggCPh4N/Py9Kh2BI4HQreCfn/yG53WBHTzSZr0yFmzwwBQ8AQMATmHQJwe0GUvqUkLCZkRPxJpztvsZOYmbdgOlmserDsNe/61Xr8uqyIBLqF+nDUa+Rv3klb7ztERDVmPulJ4IdE6TrvyqUoPwMXXXTRp8Q1zNCbfrkDNjxNmF/J3o+LlWgIGAKGgCEwxxHAGjshY7ElDtduGvadTvyiwYVGkgzt9co4W0sY38sOYxDCbJOHm/oVAspn/dRd7nzXOQ6hNe8CI0BEq5j5qGzkcLL7CU4AIeLHYN1m5o3Y4Yv1gpHcfZgk6T22xOACD55VbwgYAoaAIXBBEFhMxPvV+qfKMbp/m4g+3U7LsDOTmf+sZQRSKWRSrIFC+kL58XRzZvkz8tcO4JYmh4C3ZK8lSo/l3Q0FGfMfIu8zp7uJ6PJcAXZjCBgChoAhYAgsFAREafLHgZCFTSASBwe6MxNAZr6Cmd/IW/rUyhdIn5BCjZdNH74e+GfbYFNxC0Xyzl0/Ia9JMvQtWYOaPi27fHkfEW2Cw2e/TtA+Ms7dEFjJhoAhYAgYAnMdAex81PV5nohla/G8Be9DWPam6ccAppCZ+USR3IXylABqWLTIpKfhgNrI3zQo2yNDwBAwBAwBQ8AQMAR6hQBzukWIWkzK1B2LWOrStNwJs6z34/F4uk0sgLLpQwmhxIllUTZ8SF0+Hu437rR1WL0aUSvHEDAEDAFDwBAwBAyBGRAgopfzBFCsdDFpY+Z92NmrRcl5wUM1Isp2DmsZak2Md/ZqnKYJIZ9M0/R7Wq6FhoAhYAgYAoaAIWAIGALnAQGi9B0he/F6vGChw4YOuMtIEj5ARD8hSu9m5oNEfEZJIggdrpXYxfH5DSGxlZE+IOrcv+B5gMSqMAQMAUPAEDAEDAFDYH4jQEQfKHFTIheTOX0mcXmSJ+llureYV61+SgbVIijx/HaSJCvmN7LWO0PAEDAEDAFDwBAwBOYoAknCf1Wylid7sbUuED9vEcxZ/CRf2D0sZC/kFysgymCcwfpqkiSXzVE4rFmGgCFgCBgChoAhYAjMfwSI+FggaCBtSvaEsMXPghVQn02fXq2CKENOBeF9nTiVnv/oWw8NAUPAEDAEDAFDwBC4AAhgbV8gfWK102lbtQgqkRMCGCx7rdKVlHeaKH3YdvpegAG2Kg0BQ8AQMAQMAUPAECgiQETrlOjlp4LVEhisfEL4YgKYv87nl2c4eitJ0puL9dq9IWAIGAKGgCFgCBgChsAFQqBaHfp6TNzUyhdb9zQutuzp82JeuZf1gFjvZ8dtXaCBtWoNAUPAEDAEDAFDwBBohUC1Wv2b2J+fEjuxCspav3xc3uqn1sMQujxnifixdo6Qa9UuizcEDAFDwBAwBAwBQ8AQOIcIMPP9wcoXCJ5a/GDVU8seiF6z1U+mi4UopieIqLZo0aLF57DJVrQhYAgYAoaAIWAIGAKGQDcIYGcuER8VchfcuQSrXrOj52JaIsZGj6eHh4cr3bTF8hoChoAhYAgYAoaAIWAInCcEcCoHEZ+MSZ9ch80gaiXUUEhgOkWUHmHmG83qd54Gy6oxBAwBQ8AQMAQMAUOgRwgsThK+g4hPqXUvDoUMYnpY1gX6Z+8TpWvNt1+PRsCKMQQMAUPAEDAEDAFD4AIgMMDMa3A6SFj/FyyAGsfM7xHRpuHh4eEL0Ear0hAwBAwBQ8AQMAQMAUOg1wgsWXLpxUmS3kPEh5j5Y9ncwR/BaXSSpD/Ac3Pq3GvUrby5hMD/A6e+ebujol7lAAAAAElFTkSuQmCC;" parent="d-yFGQFBO1lt44kxvrD7-70" vertex="1">
          <mxGeometry x="180" y="64.99999999999999" width="142.22" height="40" as="geometry" />
        </mxCell>
        <mxCell id="d-yFGQFBO1lt44kxvrD7-10" value="" style="shape=image;verticalLabelPosition=bottom;labelBackgroundColor=#ffffff;verticalAlign=top;aspect=fixed;imageAspect=0;image=data:image/png,iVBORw0KGgoAAAANSUhEUgAAAHAAAAAvCAYAAAA7OE5pAAAUA0lEQVR4Ae1caVQU55r25/ycf3Pm18z9NWd+zZkraGIU6cYFREmiYRVERKBX9kVRcMHtonEB2USUpTcamlVAJIDauC8Y4oZJ1LjHDUQiKsg75/k61XRVF02DmOHm3jqnqK6qb32f712/t5g27R/86Omhfz16+uegbO3Fnek57Zp12W0GXLN157c3mH8Mufvo+X87QyIi+pezPzycr2m8lpBZfCo3o+Bk8ZbCjoNop6L5qgLtoC9n2vqHKPPs2W//fvbKowUnLtzzwdl54+GsJ096/wJCjkWAy7eeuim3N7XOCT3Y/9dv9hJ3ugTkkmtgAbkG5tF03yzrc7fQgr6UPc0V6MO27e7bPf+Tuq+90kupfci1get0333k4refXPxz2ZV75+K7b9hbWfrL9oPHczBW27b+1L+xcvcbOjOD19V0uoUefD3dd98wRxTh1cU3a1gSVtizMs101tD4gxpAc8R51DPwH/5JVTdQxyUgj2aFGchNdoQ8Yk/QvPgOuxPP5yoaafbqSpoRVMgA9VGW3NY1fh+7RG24h3YA9GehGnKLqiWJ6phdG6zdODN7NyeqhpV1CcgZdvHL+iDPqGn5UwMJTvFNNnW7+O0fBqFAxFlhOgIh3JVHSRLdxogPQktj2i1EiqyhL1YZ6LOQYprum00gVNSmqrbc8ovbZgblD7r45zBiiwE21jNJdAu5+OcM//WbfWwBALSx6oi+jzOzMbgG5g+7+mUN5ZSf3swtsil1ffy45z85/QJ9AP2Ck9MNde03w8V0AzgudH39JY5TwAEASJQYIpxjLRdnZmC7BhUw7pkReGBUbrPWcdDerDA947gvwsrHPxaRdrHwZq82sbFNCRBPdT7wTtrTVuOt1D109c/+wIk36ARwA3QLTugaWx0D3QA9s2pD9ak9paf3zF5R+Abv50RWTQqhwLUYi0T93Ue1B86fKzvyUW2ILRRwMsbXceHuoj+cA8EtmwrMpbOCC95iENP99jPxNTuiiumP0fQLmwh0Q3QLEycQezODi9hEIKJmBB9m9cUmPN5n4F43Wd2kE36843BU3m1l8cAM/+z3a7O+MzR3dPv/IRbrhjyzfkZg/hCnyEdV4iLiY9TJxJ6kL8IryDXwAAMTq37UsuNpd4qX/SLcyOYL6QRGYLp7c037J+HKa3eez5SsLukFcJ+v1E5MPzlB0Lnyho/SWX9XwMeZrXOFxMDC5Sxf/0T99z/effq/kyJeT1y6v9Q1MO8DzHBYgkIi4dlBo5mySr4jH1UZSWQmytefpB0FjRS31UgecSdpaYyGcrXHqb71CrWc7mbPhO3MizeTVFZBixWHSRo1OUaDfR/2rsNUKwOp9llwEbNWy492KT8KxNsP+/7LNSBneEZggXW1CCcslVfTroPN5KXQkETZQDsLmyh1dx3JNhiotuUyeav0tPdwCwMeYBaUg4hm3kLACtyR30jDw8SOtbunjv6SqJppzU4TtZ/tphxNG1tkQhpM+n2cmWaFlzPRqqm9mDBhEL3V+ofgPEeGiUfscZovN5JvvJZitxppR0EzLYqupnnKOlqWUEFSZQPtPjQCYJ7+pB0Hrl5vsCD3+9+pBOC2vEbe2G7deUKY86SDJqJi3CJMQzB0JiROL9965Abl6iardzhYqfoYFRjMtKOgiZbGlDARWlhupi25DZSUWcXA8k8ooxxNKxUYOmixSmPXXtuZGzwiTSUAW8xdvLHhRqp0TJNJAxdW+6qinsRdRyrGzYUpe4+bEMVwZjAQjbaOt/B+xRodRaTpSBJVYcd9aL/z2l0ekaYSgOn76nhjO3fltugcnKHTRMosijY9XRhR+HDcAC5Pre6cGXzYKQAdDQxgBiWWUWhKGYWu0ZA0utWuzakMoDS6jVSbDVTVfIk2ZtWSu+yPdXMC0452QxI6DSDbJrnyaIFPjO5nONqOwJmsd1MZwMma40TbWZled+4rdfEthwAiJIbtFkT+gTZ3Ihw2L45vMY41EKnMRN/ElpJycwVFphvIR1VCEoVjq3J8AMLdGOlDvqmCvorWkLtcvA+J4gh5q7TkpdCRR0ybwwUpUdSTj1pDC+W6EUkh07P24R6NOffoNvKUa5gFviGrnrbmNZE6w0jeyjKSRo8/rLcg4eQ7YDFq3PTC9V/nc9skiFmyyH9kFYvywx+B447A8lgDx3v4btXHLltdAVvF8X7wA31bdIy5GWJtOQsg+jDUnxm1j8zCo+SuGIldwgXo7XtjHcqlq3dIIqsWnU9Aoo4G3r63ls0qtYCdkdPAnn34MEz4LWaBQk0EJmro9r2n1vrCH3fuP2ULW2z+Ys9g+bsE5LJttN3F5l12HJhZci6fbb8E5I663QLDBNERsQ5sny1WlNAbm8kLB8/d3/jpMbnL7bdknAHQR11Gb98Nck2Ner126yGP4w8aT/DKFhrs9wLhv9qChwoIPmCOHIBcI6FrtAJ6mCn122rutcMrFkFwsrC+fXABwRG4b2wPc5XFH+Rx4beai1lgzc9DywSDsW/MFiix34ie/DYwsnK5GWCwOIVHdfNFOytuLAAlUUYaEAFvaOiDeB/HLlmDBUtjSnlDwEITirNlsWW8Mi97+0mitmzWCgE8Zv6BR7MlKg2vLm6OnvyBNmXX055DzfT8ZR/vff+btyQRWcQcbSHxgA3Capxl7xZZBX9wkMVJf+3v/7fpftnDM0M+3sJEp8WmDt4AHzx+Tl+qS0ka00oS1VFasUZLg4NDvDKLlPxVOBaA+vrzvPrPe/rJR8X10UTh6/Q0OPSBV2aRwtIHxvD6t7eCd3xfFJEk2wOE5wgqBPBs5y3rOzb/SrNtVdpRgHDjiN3gEaW3m39IMr9/ri9c3VVHRSWiNKLslV+8pmsaknmAsKPoim2Djn5Dnwi5bGms/eA2Zh/hTTJjP98RdgSge1QVgdNsj69j7CXHut18MbY1t9FKaIhN2yNxx4heBx3uP+6xfU1LVKXWuo4AhO772UbvPX7aQxIRY6rt9DVe++n7+PN3RGPuHWwS4DYNGVgwWLgXH3MNSuKLj56+ASvb27a7RMUXUR0X+avYEYDCPp6+6BPtA9aj7XHi3E3rHLGobI8LXbet7zxkRttX9KKnn6RqS+gPc3AIYOxxev1mkBlVR9o6CW2hDgtkqI+RRNXETryzPXYfdmwN29LO9veckPxX0w7XdKbCupwMDly/p9Z2XGzyZTVnSHi2nr7OK9f7+j1PDzoCcO2uKl7dV/1v7dpHf+1nb/LKvegdsIKEcF9f/4D1PaQGZ42Gr9NZn+MHxKkt0RwByHZQ5FUEVwVB/ZitFdR0oouePOulwaFhGvpgObkgPdfRRAH0jDz0cBp2fj8LyhnAvp7tQCfyO7u0lRvTuK6nL//E0xOOAMzT83WMsx2duvQjb355Or4Y9YuziGHDkbO8JoWxWscAWoy+4OQyejPwjteOo5uJAshEKPwJY/P3cmRHIWlnIsBxdSYC4Iveflog4+swRwDmTwDAZy/7yEup480Nro7tkV3SwixNWwPn2cvXJBE43GMB6BvHF8/o48rVnyhlWwmFxOfTiuRi+v7GL7Zd00QAjNjWft4KIEA8VH1+LR64h5e8Ftuo5UBydBWKUAAxP0oz6rlApmU6QdimIwCFIrTz+i+jto++R+sDMVjoN+4AWF9G84n/twNNPNAxTkcAQtdd7X7ANcmuB/TtNDuimj5bUcKMDtgbpkY+l48XwMUpHX1eUUX3U3Y3lPMcemQewzQFkC7+eTQz+BAzYZF4JCSy2L1/gpY3+PeDQySRi0c6xOpzzxwBGJDI7+Pd+yGr/uLqO3vNPMDf2zt+rps3fqF7g3aFAJ65PGKAIUQoPLyUI1INdASQxrrjvGLjAdBn7elXq9JMHXNCcl+JJj5VtNxSA8DpSAsPyLeJg+6j6X7ZLCVwNJ8RYSthBEZb08Gz4jjiIqy1QK4nd5l96qAjANGHMEqiqTll54yjH66P0RaRt4JvDdtS9emLflHrFgDC6Dlmvkppe2soOGnExZDIKm2bYL+XqPm2hUTZSN23H/LKOQugb1rHg6+jS7vdQvJ6RTd1kazEOfWcVYor0suRljc7wsROZERzQAivG7L4Ph5G2nXjHgvoBiSVU3CyhvaXtdFvvyt5ECNmK/ywEWfXEYDoTyiq0UfntTsUla4n9BGSoqV9xS28PhQbDXZjhhhFEEDsSN8rvk20WKUjiVz8HeKiURvKCTqXO6Dvvo7R0kKFgYXNrt7ii1iUGwtAz8SOdxFbWs7MDsnt+zq65Obdu6N8cMPS2APyRFeeEKjR7hFyglXp6EAMs6LxPKXtraPV67QUmMQ3MMYCEJxlvnDLURd27xSbLD6ZcNxIthI7FsrsAxDCuqPdwyU52zlCA6gSLJQXvb+JBt6/PWS/J4q2F8Qffw/gPKOKHswMyH6Xkd96wOHHOy5+2R8mIxsaDuuhipN2dIG+UmeU83YIxIgg9OGi0u25B32UVvHDdnYdEjFzfmXqiB4S9uep0NsRtfv2rx/tF7vL6+lQ5SnL1pNqJHsPcU9IoWs2nLiz8PcoUZyZlqW2Pli1qeFcyNpK9mkBB5xTH8Hgy57JSqSFRYZ9L23tWerpe0M//fIrzZfbAyEkKO6xh9bzyiLakDQkFo5COfSB4HGR8QS9ej3imMNRRr20vbUsJ0esD9tnK9doqO/3+leu/0IeUc6N07aN8f5GdOfbIkvMdfeBmoG5ofk9sD1wSsMKnsHCbDxxc7lDjuOZoNOmTfNRld7Gp1LjHcxY5aFrhBH/serAogN32IaxHNVhfSjryUNuIhgKANdReeE7iGWpokZ0f09YdrLu2SIPz7ofFF94CemCbWd+Xmr7OZwQnzHvTd9djURKN76Zm6xBcu2AsNx2CPfsj7i6R5aL7jkK+8ZC8ZKV2M17bqSJ5kZW2D1H/aWxOoLlKWzL2fuvUs3PICIRSBkTHGcKgF3jdx6pAoiTJUq5ycAKw0bpQlkZYUuFPY/SkVRmJHd5DUtvgHUH3eYph4PfTPOitDRPZiDsQMyTG2mRopSlNsAyXigrtRIP+4MQuxzXwRr0/P39gqhSkkSVk0RWRV7yMsZhUrklHcJDAR/VzAIBSJv4JqbYMi65ifWFhCWPSC15RGrIXVZNixRlLJNuWZyWvJQG2ppTT0i7QGbAQjncBTPNk5WzZF+0t1CuYf0uGMUgitpYe3L+6gNPxiUmxwISjWG3F7J4bljRqwl/xChITPWLKyYvlZG5EzDzF6mMBJdjaayWgpJ1JFXUU+haAy1SGSh2awX5J2gIJrtfgo5Ckkpod/FxRijF5kqSbaxgiwBhKxBse/5RZqKvXm9ZGLKNlSSN1NPyZAMDAvFM9ZZKVj8izUDJuywSJmFnAy1P1rEFE5pqpG9iLHuilce6CIsibruJPOWlhN2ThB1VbLHBPQlbZySprJLUm/XkpdCyNgCYf3wZZZedYKJ458EW8lbpmOO/RKWlxUq+alJnNjeDxhCbY2Eyoff48DJ2e30tOpkdkvd6iVp/zye+/pFnbNMrhNqwH4Xzi9UV7CNFRBgciUgOQHCRe4SevJU68k/UE/IsAxK0LJoSvt4C4NI4PSE7G1yIlAsAmLjTQvQVKWUUt72aWYkw10GcValaxnFLlBanOn5HDeNGBAk8ZSXMTfFRa1kd5WYjxe2AH2emtXsaSLWlisU7kUnAAbjrMNIszITIEjLMA5O05BOZxb4ITtlZRStTy5k0wViwWe0hq2SSYfV6HSXtPML09uo0I3nEtrENbIhnvziLeEYkRbmtvhV0rWm9FjYhcMZTCeYr4qSwirxkRey7cHRue2I7aqyUQ08ErBXVzMJjoklmpIi0cgK3AKjY7TW0aX8jzZObaKGinInSmG3VpMwwMWvWL8mih2DZQtQm/K2OQlJ0TCSGp1VQ/N9GcjQh7nAP7oJ4Q38hawyUmFnHxC4SipN31ZNiUwUDIn5HLam3mKxB9cKKc6ysbzx0nImJTZ/wTIrN0NKqdXq2qCAdEMnBosUc4rbXkETRQH6JRqYOfKL1bGzIgIOB5a3UDMq3t3Yghokw2Cf5bMwZYCFiYSkhlIMzPL3C7Oq3bwgBW07f/b1fV6bx57IspfGOq3/W0NwIwztn48KgASIoIRvaroWuN52fGZD9nvPpRGOYzhD/U5QBoOBQfHSBPNKJ7mQ4Ah1tOpvO6KidibxD5B+REHANTkieOSF5fYtVpfeWxpf/5Jtc+2PgmvqbOFekN3SGptddCEw2duG/WXBSCom4oNFHuQifAjzbNqEzFRnVTDG7hxX1eijr3nDx1IkQzrYO92kVvty1ff6pf0Nf+ScZugAcVAkW67lrd6XauktxWwva8mEjYPcGqgUnfq9ON56AugFgMFCmFLfZAjbab4hVTADiYoZ/1qCXovSJV0zNcwTExwVonJl8UtpfrspovbR8bWUnArnTkV63/MDweLPDJwJ00KZTP38dU3oT4IlG/kcjwJ/lOVYeQkHp+48Vw9eBOJnhn/V+zoq8V96ykvvLEoy3/JOrrgesqWEnEz0plV2+iYbryPXgxA8WQkiK/jxWdGZR+35X/+zBOaEH+j9FsAFAQ29FbW06yfXrVAzyzwKao3mAEAAU4ifzUPtecClELkQOd+IegBdUnNtQ/d0P4WIrH6IadQGwZNWhl5MlqgM2mu+GpdeeAXA4sWAczeef7z6SApyohoiDqF6kLHvwZVz1/XnqI2/gnzoSmxDlX6W0/bp8fdPVwJTKLumqgudYEDA2sMCg6z5yeP+s7iwFQGwYC+BcAMCJXojrz4P2v1kYWfTIW1FyFyci/rCWuTLgNHA/uE2M250dw/9nuf8DVWkWR7Wr81IAAAAASUVORK5CYII=;" parent="d-yFGQFBO1lt44kxvrD7-70" vertex="1">
          <mxGeometry x="109.99999999999994" y="104.99999999999999" width="130" height="54.55" as="geometry" />
        </mxCell>
        <mxCell id="d-yFGQFBO1lt44kxvrD7-103" value="" style="group" parent="1" vertex="1" connectable="0">
          <mxGeometry x="40" y="140" width="1020" height="570.01" as="geometry" />
        </mxCell>
        <mxCell id="d-yFGQFBO1lt44kxvrD7-97" value="" style="whiteSpace=wrap;html=1;rounded=0;verticalAlign=top;strokeColor=#9673a6;fillColor=#e1d5e7;labelBackgroundColor=white;sketch=0;" parent="d-yFGQFBO1lt44kxvrD7-103" vertex="1">
          <mxGeometry width="1020" height="570.01" as="geometry" />
        </mxCell>
        <mxCell id="d-yFGQFBO1lt44kxvrD7-4" value="" style="aspect=fixed;html=1;points=[];align=center;image;fontSize=12;image=img/lib/azure2/other/Instance_Pools.svg;rounded=0;sketch=0;strokeColor=#FF6392;fillColor=#FFE45E;" parent="d-yFGQFBO1lt44kxvrD7-103" vertex="1">
          <mxGeometry x="153.5" y="210" width="85" height="83.69" as="geometry" />
        </mxCell>
        <mxCell id="d-yFGQFBO1lt44kxvrD7-87" value="" style="edgeStyle=orthogonalEdgeStyle;shape=flexArrow;curved=0;rounded=1;sketch=0;orthogonalLoop=1;jettySize=auto;html=1;startArrow=block;startFill=0;endArrow=block;endFill=0;strokeColor=#FF6392;fillColor=#FFE45E;fontColor=#000000;" parent="d-yFGQFBO1lt44kxvrD7-103" source="d-yFGQFBO1lt44kxvrD7-4" target="d-yFGQFBO1lt44kxvrD7-2" edge="1">
          <mxGeometry relative="1" as="geometry">
            <Array as="points">
              <mxPoint x="305" y="220" />
            </Array>
          </mxGeometry>
        </mxCell>
        <mxCell id="d-yFGQFBO1lt44kxvrD7-7" value="" style="shape=image;verticalLabelPosition=bottom;labelBackgroundColor=#ffffff;verticalAlign=top;aspect=fixed;imageAspect=0;image=data:image/png,iVBORw0KGgoAAAANSUhEUgAAAIoAAAB0CAYAAABaH6oNAAAU+ElEQVR4Ae1dC3RVxbkG7eO2Xba3y9suCIiUKyCW5IACWgxvOAcCITzlDUIJUh7CtY2alqeBK3Ipb0HKQwRBeRsEeVkQNBQoRaCVK1LgIhgJ3CIFIhhIpuvbyX/4z2RmP05OCLCHtbLm37Nn/pn5/m//M/PvOZty5croX0FBwc6CggJxq//+fvxzsWLNFvHf0xeJ1OcyRNsez4rE5F+KRxK7iGr1k0WF2q3EA3WTRPUnUkT91n1Fy65DROf+aSJ9wiyx8M13xL4DfxNfX712y/tdhNOhMjJX2TV7q4hy+ouzYsnKDaL3r0ZZxv/JIy0tMoAQ0fyhfqWE1hbBpsxeIvYfPHIrSWOIEkvPcvlKrkUOeAsYtaTk0BGK9D7WspcAaeCtYjkOhS5DFAUoUYEOgz30RIdSI4cdaUBKeK7dfz4cVd9dYGCI4gIkV+BjDQGi6AxK+TAqZEqxLqF7XmWqRyk8DdY16EusxlWkxxAlloC6JQsZtqQpJxbpomlp2POTBNZJMRqfIUqMgAwbBO6fexaV56A8Mm4sUlknCIMdFRbUMRijIYoXEC9cuOgKdJksOiKQcbln8CrLunl93ANh+g8bK3LO/cNV3zV4GKJogIkAFbsZLBabdhwkss+ej7inq68ji2xI2dBer93qQ8zm8Cefueq7YkyGKApQIsAEMUAQMmDjDqmun04iC55qGJTWD6TLrZGpvJdUpRuBvfd37Y0Yn9P4i+4botgBdfz/zgjEKmQD4+l068oRGIOBiCw6Y3PDepWhk9fRtUH5q9Zv80oWQxQdUUASviglkCmNlixU/1alKgKBtB7JYoiiIgqmG3gSJ2N6JQsF5LjxuEzt/bh6U8sDJTTrYfUD734goyyMzD2cXF++Jp2qdOO2D916FkMUmSgXLv7TWpNwYxDItEuha6Re1iyYhogsXAfaAhGGp0+2XhweOXpcoB9YRKN/eBmIP1wjXP/Oxu3Wy0IQVdVPrpvLMokwJboMzhmiyETB7oaD60b26ln4muWp1BetBWa0b4axk/mv0b8Pv4Gm/nJScJnuU4pYi4vAnCEKJ8qMPyxXkoQDzWUCG6kXz4KnGKF27Ip4+yWR4WlwfIH3ya3csc9zTkcYDFHIODAennS34MrlMAV4ibNQu7FON/8xy5rG5P7xaxXZ8VLTpi+GKAAHcz+PlXBQdbIKbJSFHrdbZxvD2BnN8R52bM3ap4ZJr+srHxvK2ATkDFFgLEw5qkUhLV450FwmoOW828GzgKytUgaHyUJ95ancb0xBGvIaopw6nS1qPO58PIAD7Ea+HTwLFqnyNl8mBx8LHhZNfMUQBTsG2ZuQJ6GUg2kny+VLQhZ4hJ1Z+y3DLV+3RWz7YLcAqTVPvDYfay87cmA8/D5iNrQtZ235myjYKXCQ7EjAy+lkVX3ERhjgtjLIkTFlvniidT9BQTciMdL7ajS1jg5Ap816olgbk2a8XuxhkAnC+47D3FKf/U0UnHAnQ5A30KUcSJ3MCUSGcGtQ7DrQNvVH1wbloxwIg8CcZNRi1/AQfAqS+0k6KUVcSNLpX6LgbElprE0IbKSD0ybKgBe7hhERU3FLEK4fMgjg5nA1vIRcV76mhwTeTArv+5coAI6MQwDxJ82rLIOOa6fwOKKxMkmoLyp9ujyQxSm6CkLaveSUdSNizLyKf4mCH1jJ4JTkmhMLxla4bw68JY955bUwWeW2iTCyXpSje7wOCMcMq5QxVfE6JPM2KA9tsENa/iQKAlIECFIV8Px+NDIWpXaGw4s/uV352qldXh7ecf2mD2zbxHRCXhS6dQShducvWUv6/EkUAMABI2Bk8DiQbmTSA91OJ8mwLafycsoJQPcoj1LK5ym8pB05savi5Z1k5qX8SZTuA9PDgIEAMCylTuDZ3edkclozyO+VVATg+uR2qTyluI9FqNPClu9+ZJ1ye7guiqn4kyiykWTASnoNYxQBrHzCsciFUVXtcMPz+7IR+T3IVI9NF8q2k3uNVLYr66PrrL0HoMd/RDly9PhOeBAClgChlBvEq0w6nBay+K0NlUWq6wsvw2XeL7kuYkN20w+27FSHUq4P7fBrvAfzJVGWrtxgEUUHPM/3KhPATmsFBNdUulWGI52q8qo8nEmxI8rzGTOUbat0IW/A8HHwjv7zKGNeeW2nDpRY5TsRZeq8ZWFjETnctC2Thl+THrYAVRIGW3K0ReV5u1wf5cM7zl+y1n9E6T14lC1ROFheZQ6u3VOtipKqDEf6vKRO75Zkj+LULjColdjFf0Rp0XVIBFEIKE4KL4ZRlXVazG7bscfz9py3I/eVX+OLTnYkxVQCXaijCxEQJiiHRXe5H9XzH1HqtegVQRRugJLI3FgIlSNmoTMY7nEjccPo+sD168pAJ45C6tpFvhyR5nq5TG1YRKn0pP+IUq1+cpgoTgbiwLmRCVwYzOmtsddtKunmKe8T8rHtt9uWe33fA3wwlnuqNfYfUSrUbhUmCoHOAecy3feaAlyneAZOkqEcdBNhKeV94DL1A3lUl/KQOm2NPz120ppKqB1eVyejnftqNPE3UbwApgNSl4/fB9lNAappQKeL8lWkwT2MA97EbrpDe3y3hXpcn04uJGTQf0SJSwgV8yhkCDnVgecmH58BdTIcpiceJS4JcTVnXSPIKq9P5PHqr31IFNUahQzECaAHzd3nP/EkOk0/eMqx+ORkoXZ5X7hM9ylF32cvWBFBCJUnw2sD1XRFenQp6vykVkv/eZTS2vWogHbaJpNBYUS7l3VcNycNdldvr97kSBK0I/9UVvVwcN0kgyi+XMzyOAqBRSkZhEDCdUlk1HfztMOQ2JHgDIvTKTQYDn1CYM3tqXz8dJXGJo+V8nUpDnSX8+P2+KmBL7peo+jA85KPacXp1T95FqQ4HonpCKF2HEfEx42xtsCPsxBVxVrE7bfkSC88VrTng604yn808N/U83zGjDBR6OmilHsPL2RwKgtD28U3yKClmdInN3hfVeOWMcDXDnoPSvMfUeYvXRsmCgdNljlgJZFJL77MWJpEcKNbRRbqny5FYHD/x0f8R5SsvQeKHTOgJ0sHVqzy8Z4l2u+guCGCmzKcLPwBkMdI94qCeP4jyuUrV2w9CgEkAxfNtUoX1hrsdHuZeBkiC98uq/qK+0XxGf8RBf8NCwWeyJOoQAIxeL5X2Y5YmPfxeS03HsBLGRDAKchH+ogsdv0EUYrO/vqTKNiG2gEU63tESNKLaxgBOxqn0/pkWLsUP/3At+9BZhw0cuuxVGThDwQ70ulPoiCuwN0uGRApB4rne5F1OmTCkE4YBMcjEdJ3uzvClnvJyg3WtpmIR/rwmbCSkIX0sJeM/iQKnk58hZEA0RmQG9yrTLp5PcrTpSAv+oWdBn73A883fc5yK2gHIsFwiLAiiiuTQ9bp5WM+Ks8CfYi/FHky/xJlzOS5Wq8igx6rayKknOr0Uzndfad8Lx8glMkCMrLpzr9EwbwuA+3l6Zfr3uprIhGlur57+ZgPkQWeDR7MEKXofynFiXUYmMDmxubAl4ZMbVLK24bM26QylMplna6xBvKyG8L0J61x/OtR8LRgx+EE8q26TyTgBNG1TWUp5eV09b2QRfFxHn8TBWTBFtUN0LxMSWVuTC7r9DqVURFGpcvLmoVNO5iCDFHwQT2AqgKbGyhWssqAXvJ0/ZB18HL8nhfPwshiiAIw8MJOF1fhIN9qWWdsXT/clo+CLIYoIAr/v3lUnkVnGK/53JBuZK6fl+f5TrKunsdpyBCF3Kv8cR0OcKxkJ6O6va/rD6/Py1C+nOchgmuIQkRBihNlBOrtkMqGdeqT1/LQ5zKCa4jCiaL6JLiTcbzc54Z0I3PdvDzPj4Xs4sWkIQonCmS83+A/n6A1CzdUSeRYGFbXvk63rjwW8JOmLuQRWJ1siCITBdfy1xN1BijtfG5gN23x8lzW1XX66A7DxhCFgRHxNOEVfmlumbkhdTI3MC/D86OVpQ8OR4xdgYkhigKUMGix/rp1rIzN9XBZRxq5DEji8eyuIYodUXAPZ0ZloHUGiXW+13Z5eS5Tv+Ahnb7IpMHDEEUDTNir4D7C/DjnSoDHIuWG1Mm8HV6G53uRpaMDEWN0wMEQxQGgMJiI3uIFIq1buOG8yl6Mqyqra09VFnkgufS/ZYTH5XL8higugbKAxXlW/CdJMBQRRmecWORzQrjRx8uTjDM3ILmXcSrKGqIoQHEEFSfBuHdxY0QqQwbEtRtZVY/y7FJ4ESzGoxmfoo4higIU1+BiC42zpfAuXoxuZ2A393RtoS7u4RC2dELN9Zg0eBiiaIBxDSymI3zaAscHb8V0pCMSosk4ue/lywkexm6I4gEsR/JgK42fjCLsL5NG5wW85stEwdkS7GbcnomNcryGKFECZ0safOAGXoY+ESqTRja2l2voAjnwcxP2uxvb/sRgjIYoMQDR1kiYmvB2Fk89/p8gWtPgAzUwuopEyMN9/GFRioUzPqKDNZHT/wNUSuPxH1Hy8/MnFxQUZJbFX07OhcxxL8/M/HH1Jpnl7q+fWa5Sw8z7qjfJ/OkjLTMrxLcK/yEP91CmS/+0zKx9B8qkv4RRfn7+zHLmn0HAIGAQMAgYBAwCBgGDgEHAIGAQMAgYBAwCBgGDgEHAIGAQMAgYBAwCBgGDQJkjIIQof3r77KTkFp2OP9J+7NFXD14JIq/MO1bWHQAIW9M7zIqLD4qK/C8hJKo06JJbt93wY/0yli1Y9fH5pkKIe8q6v6XdvhCnv5fRrs3uQixC4mepGz46LcT3Srvd216/liicNPFBERfoeKP56K1v/e8lcf9tP6gSdFCIY9+d2aPN5sIHJyRq/WbnRiHEd0qg8u6oGkmU1qL+0Pl/nLFgRfrsBcvTp82aO2F4av/NNQKhPOsJS2gtAsPe23JMiB/eHaNXj+LSie01X3pu1NK+o95avPOcqK4u5bPcSKIkiXaLszOQRzBA/vJP85u2bRj6opAsHfK7LDszmpehsia9ixFwIgqGjjKfr/5dj4cDwW9AlsrBWac+yhVxWLOsGNbujYoJIVG994p9n1w5V2HDlPTxTyYmn63yi7QLi06Lx6l+9p71iWNHjHjryWYdz1R9NPmbms0HftkpbcHqFQe/asbXPmhr/9T+oyrHhwoeaDX91PuXztTYsWjqsK4deh6oWa9t7kPNUnO6T3xv3pFcUVE2C+pm71mb+Ntnh656vFFKzoOPpVz7edLwk/0mZc7Zfe7aQ3J51TV0HJg+4MUH4oMFFeOTRIdlOWORR2UL23A3FqpzV6QY+M3FbHGPQoMUYs8P01qEDlleJdDz+ot7b3QNEwVrmHq/ufzsC/1WV0kI5ltlHht1efkl8bAQ4lsfThv5OyKZdY+tf+LqdM/r/vpnLwkhvo220J9CogRFxUCnG/WDnT6vlACj8cV2SNQcsCbrpBD/frN/4t6s2SNeqFVEZrl85SbpOfOPXm9E5XUp2tcRxetYdG3ckfnuiSLuWTey/cLCRV6SaPv6mYlCiHstjxI2YkhUbtAtN7HL0MNthqzYuFeI+798d1yX2oHgNRiuUsPBF4fOeW/S2k3vd180Y9yEhvVDXyE/LtAnL+3DKz3QlwiiWPe6Xe/0ynvz3j90tNGfty9t36t5m88sEgS63Rj5wdU+AB11zm7KaB8IBK9WjA+J2n3n7F360aft/3b0aGDHylm/bJsYPIP8aj1X/MVpfQVdKqIg3+tY7khC6DoNANx5FFE+a2KvCZUtUrQWj0/+ZCGesJtECYmqned+8uFFUY3aEuLkv03u2OYDMuyvtlwchPbIuCeXpT1dPSF4HUasOuDdrLNC/AD3wx4lPkm0nHNsGggZrrNo+DNVrGmhjWg0/dO58Gpo5386ttkBEldqNOFc5nlR82YfRPkTb4wcaNWpk3rtlSPXW9E9VYr21UTxPhaV/js2zxNRJvScqCVKQqf8wVtzn+FAiM/X/We7R0PnLW/SeMrZHV+LyhH3z22s0Lte4SI5rv7Yi2sviRoyUeQ1Qu7m8W2rxmN6C4mfj967yiLK8bdrJNUN/sPyTg16fN24y+DDLboOPkh/zVt3Om5NXwnJBYO2XBvE+yDLWqJEMRZZ9x197YEo96y1m3oC3W6k/elGNw5G3p45TzwWCObCgFW6Ljt8XIgf8ftCHPpBesvQx5bHqTv06vTPRGNHomzKSCKi1Bq1Zw28zfV9MxrWDQS/tvSEp0G+pimU4+r0zEvfc6ML74Ms64gSzVhk3Xf0tXui2C9mK6qI8hdGlKeciTLzhGgUDVHyDs5t0CAQvGIR8ul1ezGFRWsULVGiGEu0fbgt67khCsp8EbE9nhm5PcZTrCAKpp7koqknrvHvv7SdehqMvbj6n6J6NEQR2eurdH40mAOiVEp8+dz6q+Jn0YKtI0o0Y4m2D7dlPSei4D4Cbu3CAbeU/M5vfjEG+Xx7rCRK0SLTmhIC3a8P3XpxIOoBCKSnVqb3ocVstYEbPsoW4vvI54vZYmsUxdSDsPuc3skbrB1ZQkp+x8WnxqNvBDgW3Ud3bW+xO/ubh1net/evebPnS7MzM3ZE5msXs1gwexkLtXVXpDDMzV1Pa1Fv8Gs7ps1bNnravKWjp0x/9eVhqU9v0YXwnYkiyudsGNcpvD1+cshXIxZsyVi/bVfnpa+OH5vYIFS4AA30zXsh63J39CU6oojyF3fNaFG/TsiafuLqdv8mZfxbS5a+u73vymWLhg3p0W1XlYRQ/oNdF/913xVRAW2cWfl8n4eKdlwPdl126OOimAzuqXc93sdyVxCEBgFgbhKl+ALQeoKseEbHG83HbF3OXwo6EQVt4GneOXX4KH3ArVveU4s/xWuD4gE3RWQ0V+FRitq5d/8ffj2idiB0lfockSYkFdR5ZuV2IsqB6QOLoq+Yrqae3SUKI706okQzFsL4rki1RLGOGXTOrdN2+N/7vvTmwjUHz0eE2ouAKwzha9YoBBAIdXr32ia/Hf7sql80Scl+sG5yXo1mA86mPDdv3RsH/r+lNE14nnpYO+Vz9r3TcMzIEW83tNppm1e9Sb/zbYZM3TJt84k+QojvUtmrJ3dU/XWPbjtrNBp4ftDKE2k8VqPyKFTPy1iojkkNAgYBg4BBwCBgEDAIGAQMAgYBg4BBwCBgEDAIGAQMAgYBg4BB4G5C4F8hbnBnOIHqEAAAAABJRU5ErkJggg==;" parent="d-yFGQFBO1lt44kxvrD7-103" vertex="1">
          <mxGeometry x="127" y="330" width="138" height="116" as="geometry" />
        </mxCell>
        <mxCell id="d-yFGQFBO1lt44kxvrD7-88" value="" style="edgeStyle=orthogonalEdgeStyle;shape=flexArrow;curved=0;rounded=1;sketch=0;orthogonalLoop=1;jettySize=auto;html=1;startArrow=block;startFill=0;endArrow=block;endFill=0;strokeColor=#FF6392;fillColor=#FFE45E;fontColor=#000000;" parent="d-yFGQFBO1lt44kxvrD7-103" source="d-yFGQFBO1lt44kxvrD7-12" edge="1">
          <mxGeometry relative="1" as="geometry">
            <mxPoint x="240" y="260" as="targetPoint" />
            <Array as="points">
              <mxPoint x="310" y="340" />
            </Array>
          </mxGeometry>
        </mxCell>
        <mxCell id="d-yFGQFBO1lt44kxvrD7-12" value="&lt;b&gt;API&lt;/b&gt;" style="aspect=fixed;html=1;points=[];align=center;image;fontSize=12;image=img/lib/azure2/databases/Virtual_Clusters.svg;rounded=0;sketch=0;strokeColor=#FF6392;fillColor=#FFE45E;" parent="d-yFGQFBO1lt44kxvrD7-103" vertex="1">
          <mxGeometry x="450" y="296" width="138.19" height="134" as="geometry" />
        </mxCell>
        <mxCell id="d-yFGQFBO1lt44kxvrD7-86" value="" style="edgeStyle=orthogonalEdgeStyle;shape=flexArrow;curved=0;rounded=1;sketch=0;orthogonalLoop=1;jettySize=auto;html=1;startArrow=block;startFill=0;endArrow=block;endFill=0;strokeColor=#FF6392;fillColor=#FFE45E;fontColor=#000000;" parent="d-yFGQFBO1lt44kxvrD7-103" source="d-yFGQFBO1lt44kxvrD7-12" target="d-yFGQFBO1lt44kxvrD7-3" edge="1">
          <mxGeometry relative="1" as="geometry">
            <Array as="points">
              <mxPoint x="455" y="250" />
              <mxPoint x="455" y="250" />
            </Array>
          </mxGeometry>
        </mxCell>
        <mxCell id="d-yFGQFBO1lt44kxvrD7-81" value="" style="edgeStyle=orthogonalEdgeStyle;shape=flexArrow;curved=0;rounded=1;sketch=0;orthogonalLoop=1;jettySize=auto;html=1;startArrow=none;startFill=0;endArrow=block;endFill=0;strokeColor=#FF6392;fillColor=#FFE45E;fontColor=#000000;" parent="d-yFGQFBO1lt44kxvrD7-103" source="d-yFGQFBO1lt44kxvrD7-7" target="d-yFGQFBO1lt44kxvrD7-12" edge="1">
          <mxGeometry relative="1" as="geometry">
            <Array as="points">
              <mxPoint x="410" y="390" />
              <mxPoint x="410" y="390" />
            </Array>
          </mxGeometry>
        </mxCell>
        <mxCell id="d-yFGQFBO1lt44kxvrD7-37" value="" style="shape=image;verticalLabelPosition=bottom;labelBackgroundColor=#ffffff;verticalAlign=top;aspect=fixed;imageAspect=0;image=https://helm.sh/img/helm.svg;" parent="d-yFGQFBO1lt44kxvrD7-103" vertex="1">
          <mxGeometry x="310" y="360.00000000000006" width="87.48" height="101" as="geometry" />
        </mxCell>
        <mxCell id="d-yFGQFBO1lt44kxvrD7-83" value="" style="edgeStyle=orthogonalEdgeStyle;shape=flexArrow;curved=0;rounded=1;sketch=0;orthogonalLoop=1;jettySize=auto;html=1;startArrow=none;startFill=0;endArrow=block;endFill=0;strokeColor=#FF6392;fillColor=#FFE45E;fontColor=#000000;" parent="d-yFGQFBO1lt44kxvrD7-103" target="d-yFGQFBO1lt44kxvrD7-41" edge="1">
          <mxGeometry relative="1" as="geometry">
            <mxPoint x="900" y="280" as="sourcePoint" />
            <Array as="points">
              <mxPoint x="900" y="125" />
            </Array>
          </mxGeometry>
        </mxCell>
        <mxCell id="d-yFGQFBO1lt44kxvrD7-85" value="" style="edgeStyle=orthogonalEdgeStyle;shape=flexArrow;curved=0;rounded=1;sketch=0;orthogonalLoop=1;jettySize=auto;html=1;startArrow=none;startFill=0;endArrow=block;endFill=0;strokeColor=#FF6392;fillColor=#FFE45E;fontColor=#000000;exitX=0.804;exitY=-0.018;exitDx=0;exitDy=0;exitPerimeter=0;" parent="d-yFGQFBO1lt44kxvrD7-103" source="d-yFGQFBO1lt44kxvrD7-12" target="d-yFGQFBO1lt44kxvrD7-40" edge="1">
          <mxGeometry relative="1" as="geometry">
            <Array as="points">
              <mxPoint x="561" y="230" />
              <mxPoint x="630" y="230" />
              <mxPoint x="630" y="160" />
            </Array>
          </mxGeometry>
        </mxCell>
        <mxCell id="d-yFGQFBO1lt44kxvrD7-66" value="" style="shape=image;verticalLabelPosition=bottom;labelBackgroundColor=#ffffff;verticalAlign=top;aspect=fixed;imageAspect=0;image=https://www.split.io/wp-content/uploads/2019/09/sentry-logo.png;" parent="d-yFGQFBO1lt44kxvrD7-103" vertex="1">
          <mxGeometry x="680.0000000000001" y="410" width="169.82" height="84.91" as="geometry" />
        </mxCell>
        <mxCell id="d-yFGQFBO1lt44kxvrD7-93" value="" style="edgeStyle=orthogonalEdgeStyle;shape=flexArrow;curved=0;rounded=1;sketch=0;orthogonalLoop=1;jettySize=auto;html=1;startArrow=none;startFill=0;endArrow=block;endFill=0;strokeColor=#FF6392;fillColor=#FFE45E;fontColor=#000000;" parent="d-yFGQFBO1lt44kxvrD7-103" source="d-yFGQFBO1lt44kxvrD7-12" target="d-yFGQFBO1lt44kxvrD7-66" edge="1">
          <mxGeometry relative="1" as="geometry" />
        </mxCell>
        <mxCell id="d-yFGQFBO1lt44kxvrD7-92" value="" style="edgeStyle=orthogonalEdgeStyle;shape=flexArrow;curved=0;rounded=1;sketch=0;orthogonalLoop=1;jettySize=auto;html=1;startArrow=none;startFill=0;endArrow=block;endFill=0;strokeColor=#FF6392;fillColor=#FFE45E;fontColor=#000000;exitX=0.014;exitY=0.512;exitDx=0;exitDy=0;exitPerimeter=0;" parent="d-yFGQFBO1lt44kxvrD7-103" source="d-yFGQFBO1lt44kxvrD7-13" edge="1">
          <mxGeometry relative="1" as="geometry">
            <mxPoint x="870" y="380" as="sourcePoint" />
            <mxPoint x="765" y="420" as="targetPoint" />
            <Array as="points">
              <mxPoint x="810" y="340" />
              <mxPoint x="810" y="360" />
              <mxPoint x="765" y="360" />
            </Array>
          </mxGeometry>
        </mxCell>
        <mxCell id="d-yFGQFBO1lt44kxvrD7-100" value="Azure Kubernetes Service&lt;br style=&quot;font-size: 17px;&quot;&gt;AKS" style="aspect=fixed;html=1;points=[];align=center;image;fontSize=17;image=img/lib/azure2/compute/Kubernetes_Services.svg;rounded=0;labelBackgroundColor=none;sketch=0;strokeColor=#FF6392;fillColor=#FFE45E;fontStyle=1" parent="d-yFGQFBO1lt44kxvrD7-103" vertex="1">
          <mxGeometry x="40" y="26" width="149.6" height="132" as="geometry" />
        </mxCell>
        <mxCell id="d-yFGQFBO1lt44kxvrD7-3" value="CONTRATOS" style="html=1;dashed=0;whitespace=wrap;fillColor=#2875E2;strokeColor=#ffffff;points=[[0.005,0.63,0],[0.1,0.2,0],[0.9,0.2,0],[0.5,0,0],[0.995,0.63,0],[0.72,0.99,0],[0.5,1,0],[0.28,0.99,0]];shape=mxgraph.kubernetes.icon;prIcon=vol;rounded=0;sketch=0;labelPosition=center;verticalLabelPosition=bottom;align=center;verticalAlign=top;fontStyle=1" parent="d-yFGQFBO1lt44kxvrD7-103" vertex="1">
          <mxGeometry x="410" y="13.5" width="90" height="83" as="geometry" />
        </mxCell>
        <mxCell id="d-yFGQFBO1lt44kxvrD7-2" value="DATA" style="html=1;dashed=0;whitespace=wrap;fillColor=#2875E2;strokeColor=#ffffff;points=[[0.005,0.63,0],[0.1,0.2,0],[0.9,0.2,0],[0.5,0,0],[0.995,0.63,0],[0.72,0.99,0],[0.5,1,0],[0.28,0.99,0]];shape=mxgraph.kubernetes.icon;prIcon=vol;rounded=0;sketch=0;labelPosition=center;verticalLabelPosition=bottom;align=center;verticalAlign=top;fontStyle=1;horizontal=1;labelBackgroundColor=#ffffff;" parent="d-yFGQFBO1lt44kxvrD7-103" vertex="1">
          <mxGeometry x="260" y="10.000000000000057" width="90" height="90" as="geometry" />
        </mxCell>
        <mxCell id="d-yFGQFBO1lt44kxvrD7-42" value="" style="shape=image;verticalLabelPosition=bottom;labelBackgroundColor=#ffffff;verticalAlign=top;aspect=fixed;imageAspect=0;image=https://img2.freepng.es/20180630/fio/kisspng-kibana-elasticsearch-logstash-logo-data-visualizat-elastic-5b374c480b4162.4640915215303506640461.jpg;" parent="d-yFGQFBO1lt44kxvrD7-103" vertex="1">
          <mxGeometry x="660" y="158" width="95" height="38" as="geometry" />
        </mxCell>
        <mxCell id="d-yFGQFBO1lt44kxvrD7-91" value="Monitorización" style="group;verticalAlign=bottom;fontStyle=1;fontSize=16;" parent="d-yFGQFBO1lt44kxvrD7-103" vertex="1" connectable="0">
          <mxGeometry x="660" y="90" width="169.82000000000016" height="166.90999999999997" as="geometry" />
        </mxCell>
        <mxCell id="d-yFGQFBO1lt44kxvrD7-44" value="" style="group" parent="d-yFGQFBO1lt44kxvrD7-91" vertex="1" connectable="0">
          <mxGeometry width="166.1400000000001" height="108" as="geometry" />
        </mxCell>
        <mxCell id="d-yFGQFBO1lt44kxvrD7-40" value="" style="shape=image;verticalLabelPosition=bottom;labelBackgroundColor=#ffffff;verticalAlign=top;aspect=fixed;imageAspect=0;image=https://www.icm.es/wp-content/uploads/2020/02/grafana-1.png;" parent="d-yFGQFBO1lt44kxvrD7-44" vertex="1">
          <mxGeometry width="72" height="80" as="geometry" />
        </mxCell>
        <mxCell id="d-yFGQFBO1lt44kxvrD7-41" value="" style="shape=image;verticalLabelPosition=bottom;labelBackgroundColor=#ffffff;verticalAlign=top;aspect=fixed;imageAspect=0;image=https://docs.vmware.com/en/VMware-Tanzu-Toolkit-for-Kubernetes/images/GUID-A3897B1B-822E-410C-96C7-93FBD7AF61A5-low.png;" parent="d-yFGQFBO1lt44kxvrD7-44" vertex="1">
          <mxGeometry x="72" y="14" width="94.14" height="42" as="geometry" />
        </mxCell>
        <mxCell id="d-yFGQFBO1lt44kxvrD7-43" value="" style="shape=image;verticalLabelPosition=bottom;labelBackgroundColor=#ffffff;verticalAlign=top;aspect=fixed;imageAspect=0;image=https://static-www.elastic.co/v3/assets/bltefdd0b53724fa2ce/blt987f36e6cf17bc9a/5ea8c7fba7bdee51f48010f7/brand-elastic-vertical-220x130.svg;" parent="d-yFGQFBO1lt44kxvrD7-44" vertex="1">
          <mxGeometry x="89.53999999999996" y="66.36000000000001" width="70.46" height="41.64" as="geometry" />
        </mxCell>
        <mxCell id="d-yFGQFBO1lt44kxvrD7-13" value="Frontales WEB" style="aspect=fixed;html=1;points=[];align=center;image;fontSize=12;image=img/lib/azure2/containers/App_Services.svg;rounded=0;sketch=0;strokeColor=#FF6392;fillColor=#FFE45E;fontStyle=1;labelBackgroundColor=none;" parent="d-yFGQFBO1lt44kxvrD7-103" vertex="1">
          <mxGeometry x="865.91" y="300" width="78.09" height="78.09" as="geometry" />
        </mxCell>
        <mxCell id="37fSnkKgGNQ4kJgArJxm-3" value="" style="edgeStyle=orthogonalEdgeStyle;shape=flexArrow;curved=0;rounded=1;sketch=0;orthogonalLoop=1;jettySize=auto;html=1;startArrow=none;startFill=0;endArrow=block;endFill=0;strokeColor=#FF6392;fillColor=#FFE45E;fontColor=#000000;exitX=0.014;exitY=0.141;exitDx=0;exitDy=0;exitPerimeter=0;" edge="1" parent="d-yFGQFBO1lt44kxvrD7-103" source="d-yFGQFBO1lt44kxvrD7-13" target="d-yFGQFBO1lt44kxvrD7-12">
          <mxGeometry relative="1" as="geometry">
            <mxPoint x="794.8199999999999" y="330" as="sourcePoint" />
            <mxPoint x="689.8199999999999" y="360" as="targetPoint" />
            <Array as="points">
              <mxPoint x="840" y="311" />
              <mxPoint x="840" y="311" />
            </Array>
          </mxGeometry>
        </mxCell>
        <mxCell id="d-yFGQFBO1lt44kxvrD7-76" value="" style="edgeStyle=orthogonalEdgeStyle;shape=flexArrow;curved=0;rounded=1;sketch=0;orthogonalLoop=1;jettySize=auto;html=1;startArrow=none;startFill=0;endArrow=block;endFill=0;strokeColor=#FF6392;fillColor=#FFE45E;fontColor=#000000;" parent="1" source="d-yFGQFBO1lt44kxvrD7-57" target="d-yFGQFBO1lt44kxvrD7-7" edge="1">
          <mxGeometry relative="1" as="geometry" />
        </mxCell>
        <mxCell id="d-yFGQFBO1lt44kxvrD7-80" value="" style="edgeStyle=orthogonalEdgeStyle;shape=flexArrow;curved=0;rounded=1;sketch=0;orthogonalLoop=1;jettySize=auto;html=1;startArrow=none;startFill=0;endArrow=block;endFill=0;strokeColor=#FF6392;fillColor=#FFE45E;fontColor=#000000;" parent="1" source="d-yFGQFBO1lt44kxvrD7-59" target="d-yFGQFBO1lt44kxvrD7-13" edge="1">
          <mxGeometry relative="1" as="geometry" />
        </mxCell>
        <mxCell id="d-yFGQFBO1lt44kxvrD7-96" value="" style="edgeStyle=orthogonalEdgeStyle;shape=flexArrow;curved=0;rounded=1;sketch=0;orthogonalLoop=1;jettySize=auto;html=1;startArrow=none;startFill=0;endArrow=block;endFill=0;strokeColor=#FF6392;fillColor=#FFE45E;fontColor=#000000;" parent="1" source="d-yFGQFBO1lt44kxvrD7-12" target="d-yFGQFBO1lt44kxvrD7-11" edge="1">
          <mxGeometry relative="1" as="geometry">
            <mxPoint x="1320" y="129.57142857142867" as="targetPoint" />
            <Array as="points">
              <mxPoint x="559" y="250" />
              <mxPoint x="640" y="250" />
              <mxPoint x="640" y="94" />
            </Array>
          </mxGeometry>
        </mxCell>
      </root>
    </mxGraphModel>
  </diagram>
</mxfile>
